<svg xmlns="http://www.w3.org/2000/svg" width="4.5" height="3.326" viewBox="0 0 4.5 3.326">
  <g id="Group_172" data-name="Group 172" transform="translate(-166.714 -384.614)">
    <path id="Path_55" data-name="Path 55" d="M194.4,439.757c-.114.051-.122.127-.086.232.1.286.186.575.292.906.063-.246.143-.458.2-.662.057.186.1.422.194.65.109-.342.206-.655.309-.966.034-.1-.077-.113-.106-.191a5.7,5.7,0,0,1,.722.141.2.2,0,0,1,.135.166c.061.281.126.562.19.843.011.049.036.1-.035.122-.286.07-.518.273-.812.326a2.912,2.912,0,0,1-1.344-.04c-.233-.068-.43-.227-.669-.286-.06-.015-.051-.06-.04-.108.067-.29.132-.581.2-.871a.19.19,0,0,1,.131-.152c.235-.056.474-.1.711-.148Z" transform="translate(-25.819 -53.444)" fill="#fcfcfc"/>
    <path id="Path_56" data-name="Path 56" d="M219.6,384.614a.613.613,0,0,1,.615.606.434.434,0,0,0,.051.228.146.146,0,0,1-.012.157,2.728,2.728,0,0,1-.4.587.345.345,0,0,1-.527,0,2.736,2.736,0,0,1-.4-.589.122.122,0,0,1-.018-.1c.077-.164.045-.352.12-.516A.577.577,0,0,1,219.6,384.614Z" transform="translate(-50.611 0)" fill="#fcfcfc"/>
    <path id="Path_57" data-name="Path 57" d="M270.893,404.355c.152.034.3.072.459.1a.194.194,0,0,1,.171.162c.036.165.074.33.113.494.01.04.028.085-.026.1-.193.05-.35.186-.552.221-.1.017-.135-.01-.153-.1-.033-.166-.072-.33-.111-.495-.075-.322-.1-.346-.411-.43.016-.065.1-.014.119-.068,0-.043-.04-.061-.063-.091a.614.614,0,0,1-.135-.616.407.407,0,0,1,.388-.311.4.4,0,0,1,.4.3.621.621,0,0,1-.132.629C270.934,404.28,270.89,404.3,270.893,404.355Z" transform="translate(-100.433 -18.144)" fill="#fcfcfc"/>
    <path id="Path_58" data-name="Path 58" d="M167.469,404.355c-.152.034-.3.072-.459.1a.194.194,0,0,0-.171.162c-.036.165-.074.33-.113.494-.01.04-.028.085.026.1.193.05.35.186.552.221.1.017.135-.01.153-.1.033-.166.072-.33.111-.495.075-.322.1-.346.411-.43-.016-.065-.1-.014-.119-.068,0-.043.04-.061.063-.091a.614.614,0,0,0,.135-.616.407.407,0,0,0-.388-.311.4.4,0,0,0-.4.3.621.621,0,0,0,.132.629C167.428,404.28,167.471,404.3,167.469,404.355Z" transform="translate(0 -18.144)" fill="#fcfcfc"/>
    <path id="Path_59" data-name="Path 59" d="M237.484,442.91c.058.015.146.011.14.081s-.066.18-.131.18-.137-.106-.146-.183S237.435,442.932,237.484,442.91Z" transform="translate(-68.503 -56.538)" fill="#fcfcfc"/>
  </g>
</svg>
