<svg xmlns="http://www.w3.org/2000/svg" viewBox="0 0 182.95 139.83"><defs><style>.cls-1{fill:#a4cd4e;}.cls-2{fill:#6a8e3e;}.cls-3{fill:#75ab96;}.cls-4{fill:#334a41;}.cls-5{fill:#679683;}.cls-6{fill:#5c8675;}.cls-7{fill:#6b9c88;}.cls-8{fill:#699986;}.cls-9{fill:#679684;}.cls-10{fill:#679784;}.cls-11{fill:#5e8a79;}.cls-12{fill:#fff;}.cls-13{fill:#aeaeae;}.cls-14{fill:#b7b7b6;}.cls-15{fill:#9f9f9f;}.cls-16{fill:#040000;}.cls-17{fill:#3a554b;}.cls-18{fill:#76ac97;}.cls-19{fill:#5c8776;}.cls-20{fill:#5c8676;}.cls-21{fill:#689885;}.cls-22{fill:#699a86;}.cls-23{fill:#6a9b88;}.cls-24{fill:#6a9b87;}.cls-25{fill:#7a8a53;}.cls-26{fill:#57584f;}</style></defs><g id="图层_2" data-name="图层 2"><g id="图层_1-2" data-name="图层 1"><path class="cls-1" d="M102,139.83H92a10.33,10.33,0,0,0-2-.11,85.57,85.57,0,0,1-11.4-1.2,146.12,146.12,0,0,1-20.1-4.89c-7.61-2.35-15-5.21-22.41-8.17-2.48-1-4.93-2.09-7.32-3.3-.23-.12-.74-.19-.35-.67a2.93,2.93,0,0,1,.83-.06H164.7a3.34,3.34,0,0,1,.83,0c.36.2.15.44,0,.64s-.52.65-.8,1a34.42,34.42,0,0,1-12,8.33,66.77,66.77,0,0,1-15.88,4.29c-3.82.61-7.63,1.24-11.46,1.81s-7.42,1-11.15,1.44c-2.86.3-5.72.56-8.59.74-1,.06-2.05.07-3.09.08C102.34,139.77,102.14,139.71,102,139.83Z"/><path class="cls-1" d="M139.71,14.17h22.61c.25,0,.52-.1.74.11a.83.83,0,0,1-.6.2H37.64c-.44,0-.92.13-1.31-.21.22-.2.49-.1.74-.1,7.64,0,15.28,0,22.92,0a3.85,3.85,0,0,0,2.35-.7A90.1,90.1,0,0,1,71.5,8,75.19,75.19,0,0,1,85.11,2.46a65.73,65.73,0,0,1,9.07-2C95.46.3,96.77.24,98.06.12c.12,0,.24,0,.32-.12h2.5a6.12,6.12,0,0,0,2.28.29A49.28,49.28,0,0,1,113.88,2a64.51,64.51,0,0,1,11.48,4.38A117.81,117.81,0,0,1,137.1,13c.47.3,1,.56,1.42.88a1.26,1.26,0,0,0,.74.14A.67.67,0,0,1,139.71,14.17Z"/><path class="cls-1" d="M183,68.84a3.12,3.12,0,0,0-.21,1.38,39.44,39.44,0,0,1-.87,5.18,109,109,0,0,1-4.21,13.21,89.41,89.41,0,0,0-3.83,12.58c-.46,2.36-.88,4.73-1.48,7.06-.15.57-.32,1.14-.5,1.7a.69.69,0,0,0,0,.68.53.53,0,0,1-.45.11c-1.54,0-3.08,0-4.62,0-.3,0-.65.06-.82-.31,0-.28.25-.44.43-.61a5.75,5.75,0,0,0,1.81-4.37q0-42.33,0-84.64c0-.43-.12-.88.21-1.26.19.23.11.5.11.75q0,7.44,0,14.88a1.37,1.37,0,0,0,.41,1.05,54.87,54.87,0,0,1,8.53,11.28,44,44,0,0,1,4.31,10.57,37.49,37.49,0,0,1,1,5.47,4.44,4.44,0,0,0,.21,1.62Z"/><path class="cls-2" d="M10.48,33.25l-.36,0A1.38,1.38,0,0,1,9,33.36c-.17,0-.33-.12-.51,0h0a1.32,1.32,0,0,1-1.17.15c-.17,0-.33-.11-.51,0h0a.4.4,0,0,1-.31.16c-.81-.06-1.61.14-2.42.14a2.71,2.71,0,0,0-.85,0,3.34,3.34,0,0,1-1.93-.08A2,2,0,0,1,0,32.28V30.85a2.66,2.66,0,0,1,2.7-1.54,3.85,3.85,0,0,0,1.35-.12c.07-.06.16-.15.25-.14.89.11,1.77-.27,2.66-.1a.47.47,0,0,0,.23,0c2.08-.48,4.21-.32,6.3-.57a2.32,2.32,0,0,1,2.37,1.06,2.37,2.37,0,0,1-1.72,3.65c-1.12.12-2.25.18-3.38.21A.58.58,0,0,1,10.48,33.25Z"/><path class="cls-1" d="M24.55,121.58c0,.35-.28.4-.56.38a3.71,3.71,0,0,1-1.58-.47,6.22,6.22,0,0,1-3-3.89,1.32,1.32,0,0,0-.55-.8,43,43,0,0,1-6.72-6A47.22,47.22,0,0,1,5.7,102a50.93,50.93,0,0,1-3.5-7.71A45.34,45.34,0,0,1,.12,85.9,1,1,0,0,0,0,85.64V73a5.23,5.23,0,0,0,.5-1.75A21.79,21.79,0,0,1,2,66.8a25,25,0,0,1,4.79-7.23c.22-.24.35-.58.67-.73.27-.41.69-.67,1-1.07,1.31-1.34,2.66-2.62,4.08-3.84,1.11-1,2.19-1.92,3.29-2.88l.49-.43c.32-.19.52-.52.83-.72l.84-.71c.27-.16.44-.43.71-.6s.42-.54.83-.35a.47.47,0,0,1,.09.55c-1,1-2.1,1.81-3.13,2.73C13.8,53.9,11,56.17,8.55,58.8a28.66,28.66,0,0,0-7,11.46A32.12,32.12,0,0,0,.39,76.93c-.08,1-.13,2-.11,3a45.5,45.5,0,0,0,.63,6.38,46.14,46.14,0,0,0,12,24.22,45.48,45.48,0,0,0,6.55,5.77,2,2,0,0,1,.44.39,1.19,1.19,0,0,1,.08.16,1,1,0,0,1,0,.17,2.11,2.11,0,0,1,0,.25,3.19,3.19,0,0,0,.2.75c.07.16.18.3.24.47a1,1,0,0,0,.19.3.57.57,0,0,1,.12.18,1.53,1.53,0,0,0,.27.44,2.46,2.46,0,0,0,.76.78,5,5,0,0,0,1,.66l.3.14a11.61,11.61,0,0,0,1.39.41A.14.14,0,0,1,24.55,121.58Z"/><path class="cls-1" d="M84.69,139.83a11,11,0,0,0-2.2-.35c-3-.42-5.92-.86-8.85-1.48-2.65-.55-5.27-1.21-7.9-1.85s-5.27-1.49-7.89-2.3c-4.16-1.29-8.25-2.75-12.32-4.28-3.45-1.29-6.87-2.62-10.27-4-2.42-1-4.79-2.08-7.14-3.22-.31-.15-.64-.27-.61-.71a.49.49,0,0,1,.72,0c.12.3.42.33.67.45,3.9,2,8,3.58,12,5.17,3.08,1.21,6.19,2.31,9.28,3.47s6.46,2.24,9.74,3.23c3.79,1.15,7.62,2.2,11.5,3,3,.65,6,1.22,9.06,1.67,2.59.38,5.19.67,7.81.83,1.08.07,2.15.23,3.24.23.14,0,.28,0,.38.12Z"/><path class="cls-1" d="M139.25,14.16c-.73.16-1.2-.37-1.7-.69-2.69-1.72-5.42-3.34-8.22-4.86-2.27-1.23-4.55-2.41-6.91-3.44A61.93,61.93,0,0,0,111.9,1.64,50.15,50.15,0,0,0,106.31.7c-1.57-.19-3.15-.21-4.72-.34a.8.8,0,0,1-.71-.36H104c.82.13,1.65.1,2.47.17A41.87,41.87,0,0,1,114,1.6a71,71,0,0,1,15.2,6.28c3.19,1.73,6.31,3.6,9.37,5.55C138.83,13.61,139.21,13.73,139.25,14.16Z"/><path class="cls-1" d="M139.25,14.16a28,28,0,0,0-3.56-2.34,119.11,119.11,0,0,0-11-6.06A62.74,62.74,0,0,0,110.27.87a39.77,39.77,0,0,0-6-.75c-.12,0-.24,0-.32-.12h3.93A6.89,6.89,0,0,0,110,.44a64.81,64.81,0,0,1,6.58,1.7,69.87,69.87,0,0,1,9.12,3.69c3.53,1.74,6.94,3.69,10.31,5.71,1.14.68,2.23,1.43,3.35,2.14.19.12.37.24.38.49Z"/><path class="cls-2" d="M19.53,48.83v-.59c0-.24,0-.48,0-.71,0-6.05.07-12.1,0-18.15a6.18,6.18,0,0,1,6.22-6.24c1.45,0,2.89,0,4.34,0,.59,0,.83-.11.79-.76a15.29,15.29,0,0,1,0-2.79,5.79,5.79,0,0,1,5.41-5.33c.29,0,.59,0,.89,0l100.9,0,24.52,0,.42,0a5.89,5.89,0,0,1,5.37,5.24V35.72c0,.2,0,.4,0,.59q0,34.5,0,69a6,6,0,0,1-2.43,5.1c-.1.27-.35.29-.59.32s-.59,0-.89,0c-16.37,0-32.75,0-49.12,0-26.95,0-53.9,0-80.84,0-.3,0-.6,0-.9,0a1.15,1.15,0,0,1-.44-.15,5.92,5.92,0,0,1-2.58-5.21c0-5.51,0-11,0-16.54V81.64c0-.78,0-.81-.81-.81h-4a6.3,6.3,0,0,1-6.46-6.38c0-8.27,0-16.54,0-24.82A1.12,1.12,0,0,1,19.53,48.83Z"/><path class="cls-2" d="M16.4,6A2.2,2.2,0,0,1,18,3.84a2.09,2.09,0,0,1,2.46,1.09c.55,1.12,1,2.28,1.51,3.43,1.08,2.47,2.16,4.93,3.2,7.42a2.12,2.12,0,0,1-1.54,3.06,2.05,2.05,0,0,1-2.18-1,16.59,16.59,0,0,1-.95-2c-.87-2-1.77-3.89-2.59-5.86-.43-1.06-.9-2.11-1.33-3.17A2.26,2.26,0,0,1,16.4,6Z"/><path class="cls-2" d="M14.75,23a1.91,1.91,0,0,1-1.27-.34C10.26,20.47,7,18.29,3.82,16.1A2.16,2.16,0,1,1,6.3,12.57q4.71,3.18,9.41,6.37a2.19,2.19,0,0,1-.14,3.87A1.37,1.37,0,0,1,14.75,23Z"/><path class="cls-3" d="M28.23,121.61h-.72l-3,0a.2.2,0,0,0,0-.08.87.87,0,0,1,.72-.21c5.13,0,10.25,0,15.38,0,2.62,0,5.24,0,7.85,0l.6,0H86c1.91.06,3.81,0,5.72,0,26.37,0,52.74,0,79.12,0,.32,0,.68-.07.95.21a1.41,1.41,0,0,1-.76.09l-5.34,0-.77,0H28.82Z"/><path class="cls-4" d="M86,121.48H40.63c0-.26.22-.25.38-.29a3.35,3.35,0,0,1,.88-.13c1.49.06,3-.11,4.46-.14,3.51-.08,7-.18,10.53-.33,1.42-.07,2.85-.06,4.28-.1,2,0,4.08-.14,6.12-.17,3.39-.06,6.78-.19,10.17-.26,1.57,0,3.14,0,4.7-.09,3.13-.13,6.27-.16,9.4-.25,2.7-.08,5.39-.12,8.09-.24,3.11-.13,6.22-.13,9.33-.32l.71,0c3.79,0,7.57-.22,11.36-.27,3.29,0,6.59-.08,9.88-.21,3.07-.12,6.14-.16,9.22-.25,2.51-.08,5-.14,7.55-.24,3.07-.12,6.14-.09,9.21-.32h.18c2.22.08,4.44-.15,6.66-.13,2.5,0,5-.11,7.5-.15,1.38,0,2.77,0,4.16-.13a.88.88,0,0,1,.76.24,3.15,3.15,0,0,1-.59,1.44c-3.34-.12-6.66.09-10,.11-2.65,0-5.31.11-8,.21-3.15.13-6.3.14-9.44.33-.24,0-.48,0-.72,0-3.75,0-7.49.25-11.23.3-2.34,0-4.68.15-7,.17-2.56,0-5.11.1-7.67.15-2.75,0-5.51.13-8.26.23s-5.63.12-8.44.23c-4,.17-8,.23-12.06.36-2.2.08-4.4.06-6.6.21A.37.37,0,0,0,86,121.48Z"/><path class="cls-4" d="M176.16,117.67c-1.47,0-2.95,0-4.42.09-1.27.09-2.54,0-3.81,0-2.2.13-4.4,0-6.59.14-1.45.08-2.89,0-4.33.1-2.65.15-5.3.16-7.95.26-1.45.06-2.89,0-4.33.09-2.65.16-5.3.17-7.95.27-1.43,0-2.86,0-4.27.11s-2.84,0-4.26.16c-1.65.14-3.32,0-5,.07-2.13.1-4.26,0-6.39.12-2.57.11-5.14.15-7.71.25-1.52.06-3,0-4.57.1-2.49.15-5,.16-7.47.26-1.54.06-3.09,0-4.63.11s-3,0-4.55.12-2.84,0-4.25.12c-1.72.15-3.45,0-5.16.11s-3.57,0-5.34.13c-1.31.11-2.62,0-3.92.11-1.52.15-3,0-4.57.11-2.57.15-5.14.17-7.71.26-1.52,0-3,0-4.56.1-2.49.14-5,.15-7.47.26a30.14,30.14,0,0,0-4.14.21,1,1,0,0,0-.2.11H24.51a2.71,2.71,0,0,1-1.52-.4c0-.4.3-.45.6-.48a3.56,3.56,0,0,0,1-.1,2.28,2.28,0,0,1,.64,0c1.27,0,2.55.09,3.82-.07a1.3,1.3,0,0,1,.44,0,33.65,33.65,0,0,0,3.62-.08,2.49,2.49,0,0,1,.67,0c1.15,0,2.31,0,3.46,0a1.74,1.74,0,0,0,.64-.08,5.9,5.9,0,0,1,1.11,0c1.38,0,2.77.07,4.15,0a.78.78,0,0,1,.22,0c1,0,2,0,3,0a2,2,0,0,0,.65-.07c.52,0,1-.07,1.56-.06a33,33,0,0,0,3.59-.07,2.85,2.85,0,0,1,.77,0,33.3,33.3,0,0,0,3.74-.07,1.71,1.71,0,0,1,.45,0c2.51.08,5-.2,7.51-.12a1.84,1.84,0,0,0,.47-.07.85.85,0,0,1,.22,0c1,0,2.1,0,3.15,0a2.09,2.09,0,0,0,.7-.07,1.26,1.26,0,0,1,.33,0,31.4,31.4,0,0,0,3.5-.08,2.44,2.44,0,0,1,.66,0,22.34,22.34,0,0,0,3.06-.08A7.4,7.4,0,0,1,78,119,28.11,28.11,0,0,0,81.7,119a9,9,0,0,1,1.56,0,29.81,29.81,0,0,0,3.78-.07,3.73,3.73,0,0,1,1,0,38.09,38.09,0,0,0,4-.08,3.77,3.77,0,0,1,.89,0,31.42,31.42,0,0,0,3.63-.07,2,2,0,0,1,.55-.05,35.86,35.86,0,0,0,3.74-.07,2.93,2.93,0,0,1,.78,0c.63,0,1.25,0,1.88,0,2-.13,4-.07,6-.24a32.31,32.31,0,0,0,3.55-.08,2.53,2.53,0,0,1,.67,0,29.84,29.84,0,0,0,3.54-.07c1.06-.08,2.12,0,3.18,0a2.45,2.45,0,0,0,.81-.07l.22,0c1.21,0,2.41,0,3.62,0a1.86,1.86,0,0,0,.7-.07,3.67,3.67,0,0,1,.66-.05h1.29a23.87,23.87,0,0,0,2.54,0l1.4-.07a5.55,5.55,0,0,0,1.41,0c2.58.07,5.15-.16,7.72-.14,1.95,0,3.91-.07,5.87-.13,2.82-.08,5.64-.22,8.47-.22a1.13,1.13,0,0,0,.41-.06,2.53,2.53,0,0,1,.67,0,29.81,29.81,0,0,0,3.41-.08,6.38,6.38,0,0,1,1,0,20,20,0,0,0,2.57-.07c.6,0,1.2,0,1.79,0,3.47-.05,6.92-.22,10.39-.27a1.6,1.6,0,0,1,.89.1.91.91,0,0,1,0,.49Z"/><path class="cls-4" d="M176.29,117.11l0-.5a1.1,1.1,0,0,1-.14-.18c-.14-.36-.45-.34-.75-.34-1,0-2.1.08-3.15.1-4.18,0-8.36.28-12.55.34-2.38,0-4.75.16-7.14.15-3.73,0-7.45.2-11.18.26-2.54,0-5.07.16-7.61.23-2.75.08-5.51.14-8.27.24s-5.43.15-8.14.23c-3.07.1-6.15.12-9.22.26-1.59.07-3.17.06-4.76.09-3.27.05-6.54.19-9.81.26-2.76.06-5.51.13-8.27.24-3.07.12-6.14.17-9.21.3-2.53.1-5.08.13-7.61.19-3.59.09-7.18.17-10.77.22-2.82,0-5.63.15-8.45.24l-7.67.23c-2.77.08-5.55.14-8.32.25-3.11.12-6.23.15-9.34.26-.71,0-1.43.06-2.13.15a1.66,1.66,0,0,1-.83-.84c-.08-.51.31-.41.57-.43,1.64-.17,3.29-.06,4.93-.14s3.57,0,5.35-.13c1.29-.09,2.58,0,3.86-.11,1.63-.12,3.25,0,4.87-.14,1.35-.09,2.7,0,4-.1,2.69-.15,5.39-.16,8.08-.26,1.34-.05,2.69,0,4-.09,2.89-.16,5.79-.17,8.67-.25,1.82-.06,3.65,0,5.46-.12,1.65-.12,3.29,0,4.93-.12s3.14,0,4.69-.12c1.37-.12,2.74,0,4.1-.11,2.81-.15,5.62-.17,8.43-.26,1.29,0,2.58,0,3.86-.1,2.71-.15,5.43-.16,8.14-.26,1.38,0,2.78,0,4.15-.11,1.73-.14,3.46,0,5.17-.12s3.38,0,5-.11,3.37-.09,5-.15q4.19-.14,8.37-.21c2.59-.06,5.18-.13,7.77-.25,1.35-.06,2.7,0,4-.1,1.51-.13,3,0,4.52-.13,1.19-.1,2.38,0,3.56-.1,1.86-.18,3.72,0,5.58-.17s3.6,0,5.4-.09c3-.09,5.94-.19,8.91-.24l3-.09a1.08,1.08,0,0,1,.8.17A4.48,4.48,0,0,1,176.29,117.11Z"/><path class="cls-4" d="M86,121.48a2.44,2.44,0,0,1,1.21-.2c.83,0,1.65-.17,2.48-.15,1.86,0,3.72-.12,5.58-.15,1.49,0,3,0,4.48-.1q3.8-.16,7.59-.24c1.06,0,2.11-.11,3.17-.11,1.86,0,3.72-.09,5.58-.15,1.4,0,2.81,0,4.21-.1,2-.18,3.92,0,5.88-.11,3-.14,5.92-.15,8.88-.25,1.72-.06,3.43,0,5.14-.12,2.63-.12,5.26-.15,7.89-.25,1.42-.06,2.85,0,4.27-.1,2.52-.17,5-.16,7.58-.27,1.34-.06,2.69,0,4-.09,2.41-.14,4.83,0,7.24-.13,1.25-.07,2.49,0,3.74-.09.24,0,.49,0,.62.24a4.84,4.84,0,0,1-3.79,2.39l-6.07,0H86Z"/><path class="cls-4" d="M33.59,110.55l3.63,0H165a1.86,1.86,0,0,0,1-.14c.16.23.4.14.6.14h4.14a4.67,4.67,0,0,1,1.12.09,4.71,4.71,0,0,1,2.15.84c-.14.31-.44.32-.71.31-1.45,0-2.89.16-4.34.14-3.69,0-7.37.2-11.06.26-2.57,0-5.15.13-7.73.22-4.14.15-8.28.25-12.42.37-3.17.09-6.34.16-9.51.23-3.47.08-6.94.15-10.4.25-.81,0-1.63.12-2.44.09a.74.74,0,0,0-.87.6.5.5,0,0,1-.17.15,4.31,4.31,0,0,1-1.24.06c-1.64,0-3.27,0-4.91.09a2.07,2.07,0,0,0-.66-.09h-6.72a1.05,1.05,0,0,1-.79-.16c0-.29.23-.28.41-.31a3.94,3.94,0,0,1,.77,0h12c.9,0,.9,0,1-.91,0-.37.11-.74.11-1.12,0-.69-.07-.76-.73-.78H83.37c-.24,0-.48,0-.72,0a10.61,10.61,0,0,1-1.13,0H34.77C34.37,110.84,33.88,111,33.59,110.55Z"/><path class="cls-4" d="M20.16,118.15a2.42,2.42,0,0,1-.25-.83,3.56,3.56,0,0,1,1.61-.28c.93-.05,1.87,0,2.8,0,2.83-.12,5.66-.17,8.49-.27,1.29,0,2.58,0,3.86-.08,3.31-.15,6.62-.18,9.93-.26,1.64,0,3.29,0,4.93-.11s3.49,0,5.22-.14c1.23-.08,2.46,0,3.68-.11,1.51-.14,3,0,4.52-.12,1.35-.12,2.69,0,4-.11,2.65-.14,5.3-.15,8-.26,1.37,0,2.74,0,4.1-.1,1.57-.15,3.14,0,4.7-.12,1.92-.16,3.85,0,5.76-.12,1.71-.13,3.41,0,5.11-.11,2.73-.15,5.47-.16,8.2-.26,1.4,0,2.81,0,4.22-.1,2.63-.15,5.26-.16,7.89-.26,1.41,0,2.82,0,4.22-.11s2.78,0,4.16-.11,3,0,4.51-.13c1.69-.14,3.37,0,5.05-.1s3.57,0,5.35-.14c1.52-.11,3,0,4.57-.11,3-.19,6-.1,9-.33H154c2.34.06,4.67-.11,7-.16,2.71,0,5.43-.14,8.14-.24,1.15,0,2.3-.09,3.44-.08.68,0,1.34-.14,2-.13a1.73,1.73,0,0,1,1.06.3c.07.19.21.36.18.58a.73.73,0,0,1-.6.19c-.81,0-1.63.1-2.43.1-2,0-4,.11-6,.15-3.42.07-6.85.14-10.28.27-1.55.07-3.09.06-4.64.09-3.31.06-6.62.2-9.93.27-2.61,0-5.23.17-7.85.23-2.85,0-5.7.15-8.56.24-1.34,0-2.69,0-4,.08-3.27.17-6.54.18-9.81.29-1.28,0-2.57.07-3.86.08-3.31,0-6.62.18-9.93.27-2.6.07-5.19.14-7.79.23-1.5.06-3,0-4.51.11s-2.78,0-4.16.1c-3.27.19-6.54.19-9.8.28s-6.31.17-9.46.23c-2.81,0-5.63.15-8.44.24-2.62.08-5.24.13-7.85.23-2.89.11-5.79.15-8.68.24l-8,.24-7.84.19A4.07,4.07,0,0,1,20.16,118.15Z"/><path class="cls-5" d="M20.16,118.15a2.26,2.26,0,0,1,1-.24l6.76-.19c1.1,0,2.21,0,3.31,0,1.68,0,3.36-.08,5-.15,1.37-.06,2.74,0,4.1-.09,2.69-.14,5.38-.15,8.07-.27,1.34,0,2.69,0,4-.08,2.83-.15,5.66-.17,8.48-.27,1.27,0,2.54-.07,3.8-.08,2,0,4-.1,6.06-.16,1.58,0,3.16,0,4.74-.1s3.37,0,5-.13c1.29-.1,2.58,0,3.86-.1,2.77-.14,5.54-.16,8.3-.27,1.27,0,2.54,0,3.8-.09,2.83-.14,5.66-.18,8.49-.26,1.16,0,2.33-.08,3.49-.08,2.38,0,4.76-.11,7.13-.17,1.53,0,3.06,0,4.57-.1s3,0,4.51-.12,2.7,0,4-.1c2.75-.16,5.5-.17,8.25-.27,1.3,0,2.61,0,3.91-.09,2.75-.15,5.5-.15,8.25-.27,1.52-.06,3.05-.06,4.57-.07,1.84,0,3.68-.1,5.52-.16,1.68-.06,3.36,0,5-.1,2.82-.14,5.64-.16,8.46-.26,1,0,2,0,3-.1l.23.37c-.32.3-.77.08-1.12.25a13.28,13.28,0,0,1-1.41,0c-1.3,0-2.61,0-3.92,0a1.05,1.05,0,0,1-.21.06c-1.36.07-2.72,0-4.08.06a.8.8,0,0,1-.21,0c-1,.05-2,0-3,0a2,2,0,0,0-.64.05.8.8,0,0,1-.21,0,2.17,2.17,0,0,1-.36,0c-2.48-.06-4.95.21-7.42.13a1.49,1.49,0,0,0-.42,0,.65.65,0,0,1-.21.06c-1.16.08-2.34,0-3.51.07a.65.65,0,0,1-.2,0c-1.29.06-2.57,0-3.85,0l-.18.07-.18.07a1,1,0,0,1-.38,0,1.57,1.57,0,0,0-.48,0,29.46,29.46,0,0,0-3.39.08,4,4,0,0,1-.77,0,20.58,20.58,0,0,0-2.83.08,13.54,13.54,0,0,1-1.56,0H131a1.89,1.89,0,0,0-.71.07,2.59,2.59,0,0,1-.56,0c-1.42,0-2.84,0-4.26,0a.65.65,0,0,1-.21.06c-1.39.07-2.8-.05-4.19.06a.8.8,0,0,1-.21.05c-1.13.08-2.27-.05-3.4.08a.8.8,0,0,1-.21,0c-2.55-.06-5.1.09-7.64.18-1.42,0-2.84,0-4.26.12l-.21,0c-1.4.07-2.8,0-4.2.07l-.21,0c-1.17.08-2.35-.06-3.52.08l-.22,0h-.06c-2.53,0-5,.21-7.58.12-.48,0-.94.21-1.41,0a13.78,13.78,0,0,0-2.57,0,9.83,9.83,0,0,1-1.88,0,15.4,15.4,0,0,0-2.45.08,9.56,9.56,0,0,1-1.31,0,16.07,16.07,0,0,0-2.5.08c-.55.07-1.11,0-1.66,0a14.82,14.82,0,0,0-2.4.08c-.63.07-1.26,0-1.89,0a15.42,15.42,0,0,0-2.54.09h-.12c-1.84,0-3.68.14-5.52.15-3.13,0-6.25.18-9.38.26-1.34,0-2.69,0-4,.09-3.1.15-6.21.19-9.32.27-1.25,0-2.49,0-3.74.08-3.62.11-7.25.19-10.87.27-1.3,0-2.61.08-3.92.07-.48,0-.91.28-1.4.2Z"/><path class="cls-6" d="M114.46,114c0-.83,0-.83.83-.83,1.94,0,3.88-.08,5.82-.16,1.52-.06,3,0,4.57-.09,2-.13,4,0,6-.13,1.65-.07,3.31,0,5-.13,1.43-.12,2.85,0,4.27-.16a7.13,7.13,0,0,1,1,0c2.26.06,4.51-.11,6.77-.15q4.14-.09,8.28-.25c1.36-.05,2.73,0,4.09-.09,3.26-.17,6.52-.2,9.79-.26.88,0,1.77-.08,2.66-.09a1,1,0,0,0,.51-.13,1.87,1.87,0,0,1,1,1,.52.52,0,0,1-.4.18c-.9,0-1.8,0-2.7,0a17.06,17.06,0,0,0-2.37.07c-.48.11-1,0-1.46.12a1.28,1.28,0,0,1-.55,0,9.8,9.8,0,0,0-2.42,0c-1.18.13-2.37,0-3.55.06a8.61,8.61,0,0,0-1.83.08c-.9.12-1.8-.06-2.69.11a2,2,0,0,1-.64,0,4.82,4.82,0,0,0-1.93,0,2.68,2.68,0,0,1-.75,0h-3.49a2.15,2.15,0,0,0-.76.09l-.24,0c-2.2-.06-4.4.11-6.6.15-2.85,0-5.7.15-8.55.25-1.16,0-2.33,0-3.5.09-2.87.15-5.74.15-8.61.26-1.39.06-2.77,0-4.16.11-.89.06-1.77.11-2.67.1A.82.82,0,0,1,114.46,114Z"/><path class="cls-4" d="M175.65,113.15a50.28,50.28,0,0,0-6.26.11H169c-2.32-.09-4.64.09-6.95.15-1.38,0-2.77,0-4.15.09-2.67.15-5.33.15-8,.26-1.42.06-2.85,0-4.27.11s-3,0-4.56.12c-1.77.15-3.55,0-5.32.13s-3.33,0-5,.11c-1.49.13-3,0-4.45.12s-2.86,0-4.28.12-2.81,0-4.21.12-2.89,0-4.33.1c-2.61.15-5.22.16-7.83.27-1.42,0-2.85,0-4.27.09-3,.17-6,.16-9,.27-1.82.06-3.64,0-5.46.1s-3.37,0-5,.13c-1.31.1-2.62,0-3.92.09-2.75.15-5.5.16-8.24.27-1.27,0-2.54,0-3.8.1-1.54.15-3.09,0-4.63.13-1.23.11-2.46,0-3.67.11-1.78.17-3.56,0-5.33.14-1.38.11-2.77,0-4.15.08-3.43.15-6.86.17-10.3.27-1.38,0-2.77,0-4.15.11s-2.89,0-4.33.12c-1.23.12-2.46,0-3.67.11-1.47.16-2.93,0-4.4.12a14.32,14.32,0,0,1-1.47.11v-.24a.89.89,0,0,1,.7-.28h.11c2.13.08,4.25-.09,6.36-.14,3.07-.08,6.14-.2,9.21-.22a.93.93,0,0,0,.29-.05l.22,0h.12c3,.07,6-.12,9-.15,1.88,0,3.76,0,5.64-.11,2.63-.12,5.26-.17,7.89-.24s5.23-.13,7.83-.25c1.37-.07,2.74,0,4.1-.11,1.6-.15,3.21,0,4.81-.15l.22,0,.29,0c2.68.08,5.35-.07,8-.15,2.24-.07,4.48,0,6.71-.14.88-.06,1.75,0,2.62-.07,3.22-.12,6.45-.17,9.67-.26l8.25-.23c2.85-.08,5.7-.14,8.55-.26,1.46-.06,2.93,0,4.39-.13l.22,0h.12c2.93.06,5.86-.13,8.79-.16,1.8,0,3.61,0,5.4-.12,1.35-.08,2.69,0,4-.09,2.74-.16,5.49-.16,8.24-.27,1.28,0,2.57,0,3.85-.09,2.73-.15,5.46-.17,8.19-.26,1.32,0,2.65,0,4-.09a1.65,1.65,0,0,0,.7-.09,8,8,0,0,1,1.46-.14c1.52,0,3,0,4.55-.07a1.28,1.28,0,0,1,.75.1A.92.92,0,0,1,175.65,113.15Z"/><path class="cls-7" d="M176.29,115.05c-2.48-.06-5,.09-7.43.15-3.12.08-6.24.15-9.35.24-1.8,0-3.6,0-5.38.11-1.41.11-2.82,0-4.22.12s-2.77,0-4.15.12-2.93,0-4.39.1c-2.55.15-5.1.18-7.65.25q-4.09.14-8.19.24c-1.75.05-3.5,0-5.24.13s-3.34,0-5,.11-3.49,0-5.23.11c-2.88.15-5.77.16-8.66.25-2.51.07-5,.14-7.53.25-1.53.06-3,0-4.57.09-2.67.15-5.35.16-8,.27-1.45.06-2.9,0-4.34.1-1.74.16-3.49,0-5.22.13s-3.4,0-5.1.16c-1.48.15-3,0-4.49.07s-3.09,0-4.62.13c-1.25.1-2.49,0-3.74.09-2.8.15-5.61.16-8.42.27-1.19,0-2.38,0-3.56.1-1.62.13-3.25,0-4.87.13-1.37.11-2.73,0-4.09.11-1.57.15-3.14,0-4.69.13s-3.21,0-4.81.1a20.35,20.35,0,0,1-2.07.11.28.28,0,0,0-.33.27.49.49,0,0,1-.25-.5.38.38,0,0,1,.16-.12,20.29,20.29,0,0,1,3.48-.17,29.93,29.93,0,0,0,3.28-.08,6.71,6.71,0,0,1,1.1,0,32.41,32.41,0,0,0,3.41-.08,3.88,3.88,0,0,1,.76,0,20.25,20.25,0,0,0,2.7-.08,5.14,5.14,0,0,1,.88,0c1.08,0,2.16.07,3.24-.06a1.13,1.13,0,0,1,.32,0h.75a18.74,18.74,0,0,0,2.7-.08,11.33,11.33,0,0,1,1.43,0,20.77,20.77,0,0,0,2.84-.08,6.51,6.51,0,0,1,1,0,32.4,32.4,0,0,0,3.41-.07,5.54,5.54,0,0,1,1,0h3a1.71,1.71,0,0,0,.64-.08c.71-.08,1.42,0,2.12,0a8.65,8.65,0,0,0,2-.09c1.06-.06,2.12,0,3.18,0,2.18-.17,4.36,0,6.53-.14,1.54-.09,3.09,0,4.62-.12,1.7-.17,3.41.06,5.09-.21h.56a18.19,18.19,0,0,0,2.45-.07c.6,0,1.19,0,1.78,0a29.7,29.7,0,0,0,3.4-.09l.23,0c2,.06,3.92-.11,5.87-.15,3-.07,6-.24,9.07-.22a1.15,1.15,0,0,0,.41-.08c1.2-.06,2.4-.11,3.6-.13,1.83,0,3.67-.12,5.5-.15s3.69.06,5.54,0c3-.12,6.06-.18,9.09-.25,2.35-.05,4.71-.14,7.06-.24,1.51-.06,3,0,4.51-.11s2.82,0,4.22-.12c1.63-.15,3.25,0,4.88-.11,2.83-.14,5.66-.15,8.49-.26,1.75-.07,3.49,0,5.23-.1s3.37,0,5-.13c1.29-.1,2.58,0,3.86-.11,1.45-.15,2.9,0,4.33-.19a1,1,0,0,1,.64.11.8.8,0,0,1,.17.15Z"/><path class="cls-4" d="M175.23,112.66c-1.83.1-3.66.16-5.49.14a9.73,9.73,0,0,0-1.2.11c-1.13.13-2.26,0-3.38.06-3.6.18-7.19.19-10.79.34-1.62.06-3.24.09-4.87.14-3.69.1-7.39.18-11.09.35-1.2,0-2.41,0-3.62.06-1.55.1-3.1,0-4.64.08s-3.24,0-4.86.1a.38.38,0,0,0-.23.06c-1,.13-2.06,0-3.08.07-1.74.13-3.49,0-5.23.12-2.85.14-5.7.15-8.54.25s-5.71.11-8.55.27c-1.61.09-3.21,0-4.81.11-3,.12-6.1.16-9.15.23-1.42,0-2.85,0-4.26.1-1.63.15-3.25,0-4.87.1a.35.35,0,0,0-.22.06,1.4,1.4,0,0,1-.64.06c-4.47,0-8.94.21-13.4.34q-2.91.09-5.82.15c-2.91,0-5.81.18-8.72.25-1.9,0-3.8,0-5.7.12-1.7.1-3.4,0-5.1.09a.45.45,0,0,0-.28.06,3.25,3.25,0,0,1-1.12.06c-2.47-.06-4.93.09-7.39.15s-5,.17-7.53.2c-.25,0-.48.17-.74.07l0-.12a.17.17,0,0,1,0-.19.73.73,0,0,1,.37-.19c1.06-.06,2.12,0,3.18,0a2.46,2.46,0,0,0,.81-.08,2.87,2.87,0,0,1,.77,0,38,38,0,0,0,4-.08.83.83,0,0,1,.22,0c.12,0,.24,0,.36,0,2.65.08,5.3-.11,8-.16,1.44,0,2.89,0,4.32-.11s2.66,0,4-.12,2.57,0,3.85-.1c2.93-.16,5.85-.25,8.78-.23a1.14,1.14,0,0,0,.41-.07,4.53,4.53,0,0,1,.9,0h3.57a1.56,1.56,0,0,0,.64-.07l.22,0c1.23,0,2.46,0,3.69,0a2.18,2.18,0,0,0,.76-.07l.23,0c2.59.06,5.19-.1,7.78-.15,3-.06,6-.15,9-.25,1.29,0,2.58,0,3.86-.09,3-.15,5.94-.22,8.91-.24a1.4,1.4,0,0,0,.41-.06c1.48-.11,3,0,4.45,0a2.91,2.91,0,0,0,.88-.07,4.53,4.53,0,0,1,.9,0c1,0,2.07.08,3.09,0,1.66-.11,3.33,0,5-.19h1.2a12.14,12.14,0,0,0,3.07-.06,3.11,3.11,0,0,1,.53,0c2.56.07,5.11-.11,7.66-.16,1.3,0,2.61,0,3.91-.08,3.15-.21,6.3-.16,9.44-.34,1.27-.07,2.54-.09,3.8-.1,2.1,0,4.2-.18,6.3-.16a20.6,20.6,0,0,0,2.07-.09c.88-.08,1.76.07,2.64-.08h.71a6.79,6.79,0,0,1,1.91,0H157a1.17,1.17,0,0,1,.64,0c1.25,0,2.49,0,3.74-.1a.78.78,0,0,1,.22,0c.73,0,1.46,0,2.19,0,1.08,0,2.15-.22,3.23-.13.2,0,.4,0,.58.06h.48c.72-.13,1.45,0,2.17-.17.55,0,1.09,0,1.64,0a22.74,22.74,0,0,0,2.74-.06H175Z"/><path class="cls-8" d="M176.26,114.82h-.1a.79.79,0,0,0-.61-.19c-3.4.15-6.8.23-10.21.31l-7.52.19c-2.8.08-5.61.13-8.42.24-.91,0-1.82,0-2.73.08a9,9,0,0,0-1.27,0c-.18,0-.41.06-.45-.24a.83.83,0,0,1,.4-.11h.42c2.3.09,4.59-.08,6.89-.14,3.09-.09,6.18-.15,9.26-.27,2.84-.1,5.67-.13,8.5-.25,1.37,0,2.74,0,4.11,0a6.09,6.09,0,0,1,1.41-.1.41.41,0,0,1,.21.1A.8.8,0,0,1,176.26,114.82Z"/><path class="cls-9" d="M176.15,114.34H176c-.34-.18-.73.06-1.07-.12.34-.24.73-.06,1.09-.12Z"/><path class="cls-1" d="M19.91,116.72l0,.12a52.47,52.47,0,0,1-4.13-3.27c-1.43-1.34-2.82-2.72-4.11-4.19A46.08,46.08,0,0,1,2.91,94.59a46.11,46.11,0,0,1-2-7.36,42.31,42.31,0,0,1-.68-5.51c0-1.07-.13-2.14-.08-3.2A29.81,29.81,0,0,1,2.51,67.24a29.44,29.44,0,0,1,4.43-6.85,45.94,45.94,0,0,1,3.59-3.79c1.62-1.5,3.31-2.94,5-4.4L19.17,49a.57.57,0,0,1,.36-.18c0,.22,0,.44,0,.65q0,12.36,0,24.71A6.15,6.15,0,0,0,22,79.42a5.93,5.93,0,0,0,3.61,1.19c1.55,0,3.1,0,4.64,0,.5,0,.63.13.63.62,0,8,0,16,0,24.06a6.07,6.07,0,0,0,2.47,5.15c-.16.4-.52.27-.81.27-2.4,0-4.79,0-7.19,0a5.1,5.1,0,0,0-4.79,2.85,5.79,5.79,0,0,0-.37,1.06,2.56,2.56,0,0,0-.11.83q0,.39,0,.78A.81.81,0,0,1,19.91,116.72Z"/><path class="cls-4" d="M21.78,120.33c.1-.24.3-.27.53-.28,1.6-.06,3.19-.08,4.79-.13s3.43,0,5.14-.13c1.23-.08,2.46,0,3.68-.1,2.7-.15,5.41-.15,8.11-.26,1.38-.06,2.77,0,4.15-.09,2.75-.16,5.49-.14,8.24-.27,1.82-.08,3.64,0,5.46-.08s3.69-.07,5.52-.16c1.68-.08,3.36,0,5-.11,2.37-.12,4.75-.11,7.11-.23,1.4-.07,2.8,0,4.19-.11,3-.14,5.93-.16,8.9-.26,1.27,0,2.53,0,3.8-.09,3.56-.2,7.12-.18,10.68-.26,2.94-.07,5.89-.14,8.82-.25,1.36-.06,2.73,0,4.09-.14,1.07-.11,2.16,0,3.25-.07l8.89-.27c1.07,0,2.13-.07,3.2-.08,1.68,0,3.36-.08,5-.15,1.48-.07,3,0,4.44-.11s2.74,0,4.1-.11c2-.2,4,0,5.93-.12s3.77,0,5.64-.14c1.15-.08,2.29,0,3.44-.09,2.88-.13,5.77-.2,8.66-.27,1,0,2,0,3.08-.09.48,0,.66.14.58.6-.41.2-.86,0-1.27.18-2.37-.06-4.74.18-7.11.13-1,0-1.93.1-2.9.11-1.35,0-2.69.06-4,.09a1.23,1.23,0,0,1-.33,0c-1.17.07-2.35,0-3.52.1a8.55,8.55,0,0,1-.88,0c-1.11.11-2.23,0-3.34.11-3.23.06-6.45.23-9.68.27-1.19,0-2.37.12-3.56.1-2.18,0-4.35.2-6.53.11-.46.11-.93-.1-1.39.06a5.74,5.74,0,0,1-1.31,0,22.22,22.22,0,0,1-2.58.06h-1.32a5.5,5.5,0,0,0-1.28.12c-1.06,0-2.12,0-3.18,0a1,1,0,0,0-.57.06h-.12c-1.18.13-2.36,0-3.53.06a1.63,1.63,0,0,0-.76.1c-.92,0-1.84,0-2.76,0a1,1,0,0,0-.57.06h-.6c-1.17.13-2.35,0-3.52.06-1.43.16-2.87.07-4.3.13l-1.8.11a11.29,11.29,0,0,0-1.93.06h-.72c-1,.12-2.07,0-3.11.06a1.52,1.52,0,0,0-.7.06H96.6c-1,.13-2,0-3,.06a1.52,1.52,0,0,0-.7,0h-.83c-1.1.14-2.2,0-3.3.07a1.73,1.73,0,0,0-.75,0h-1c-1,.13-2.08,0-3.12.06a1.47,1.47,0,0,0-.69.06H81.71c-1,.14-2,0-3,.06a1.47,1.47,0,0,0-.69.06H76.71a21.55,21.55,0,0,1-2.41.06,1.47,1.47,0,0,0-.69.06H73c-1,.13-1.92,0-2.88.06a1.47,1.47,0,0,0-.69.06H69.2c-1.06.13-2.12,0-3.17.06a1.76,1.76,0,0,0-.76.06h-.12c-1.18.13-2.38,0-3.55.08-1.52.16-3,0-4.55.16H56.7c-1,.13-2.08,0-3.12.06a1.52,1.52,0,0,0-.7.06h-.71c-1,.13-2,0-3,.06a1.47,1.47,0,0,0-.69.06,8.54,8.54,0,0,1-1.43,0c-1,.12-2.08,0-3.12.06a1.47,1.47,0,0,0-.69.06c-1.18.13-2.36,0-3.54.06a1.59,1.59,0,0,0-.75.05H37.88c-1.14.13-2.28,0-3.42.06a1.73,1.73,0,0,0-.75.06h-.6c-1,.14-2,0-3,.06a1.47,1.47,0,0,0-.69.06h-.36c-1,.13-2.12,0-3.17.06a1.76,1.76,0,0,0-.76.06h-.59a1.47,1.47,0,0,1-.75,0,1.59,1.59,0,0,0-1,.28A2.28,2.28,0,0,1,21.78,120.33Z"/><path class="cls-10" d="M87.9,116.48c.35.26.69,0,1,0,2.72,0,5.43-.08,8.14-.12a.14.14,0,0,1-.06.2.9.9,0,0,1-.46.09c-1.75-.08-3.48.15-5.23.12-1.94,0-3.88.1-5.82.16-1.37,0-2.74,0-4.1.09-1.52.11-3.05,0-4.57.12-2.61.14-5.22.19-7.84.25-1.42,0-2.85,0-4.27.11-2.93.13-5.86.13-8.79.25-1.62.07-3.25,0-4.87.11-1.78.14-3.57,0-5.35.13-1.46.1-2.93,0-4.39.11s-2.82,0-4.22.11c-2.65.14-5.31.16-8,.25s-5.06.14-7.59.21a1.88,1.88,0,0,0-1,.24.4.4,0,0,1-.21-.29,2.83,2.83,0,0,1,1.48-.36c2.42.08,4.83-.11,7.24-.14,1.73,0,3.47,0,5.19-.11s3.45,0,5.16-.12,3.33,0,5-.1c2.78-.16,5.57-.18,8.35-.25s5.25-.14,7.87-.25c1.51-.07,3,0,4.51-.11,1.19-.11,2.37-.07,3.56-.1a12,12,0,0,1,1.8-.06c.24,0,.47.06.7-.06h1.9a11.38,11.38,0,0,1,1.75-.06c.21,0,.43.06.63-.06h1.67a12.17,12.17,0,0,1,1.81-.06,1.47,1.47,0,0,0,.69-.06H81a13.69,13.69,0,0,1,1.81-.06,1.47,1.47,0,0,0,.69-.06h1.79a13.83,13.83,0,0,1,1.93-.06A1.47,1.47,0,0,0,87.9,116.48Z"/><path class="cls-4" d="M20.59,118.91c.06-.36.34-.4.63-.4l5.55-.12,9.32-.27c1.25,0,2.5,0,3.74-.1,1.64-.12,3.29,0,4.92-.13,1.79-.13,3.56,0,5.34-.1,2.92-.14,5.85-.18,8.78-.26,1.08,0,2.16-.1,3.24-.09,1.76,0,3.52-.11,5.28-.16,1.56,0,3.12,0,4.67-.09,2.67-.08,5.33-.22,8-.28.53,0,1-.1,1.58-.08,2.22.1,4.44-.08,6.65-.15,1.5,0,3,0,4.51-.1s2.85,0,4.27-.1a3.94,3.94,0,0,1,1.87,0,.12.12,0,0,1,0,.19,6.62,6.62,0,0,1-1.66.09c-1.18,0-2.36,0-3.54.1a5,5,0,0,1-.67,0c-1.34,0-2.68,0-4,.11a10,10,0,0,1-2.18.13c-2.16,0-4.33.11-6.49.18-1.35.11-2.7,0-4,.09-1,0-2,0-3,0-2.52.09-5,.18-7.55.17a2.62,2.62,0,0,0-.88.1,3.73,3.73,0,0,1-.67,0c-1.16,0-2.32-.07-3.48.06-.33.13-.69,0-1,.11a2.08,2.08,0,0,1-.61,0,10.91,10.91,0,0,0-2.74.07c-.55,0-1.1,0-1.65,0a17.56,17.56,0,0,0-3,.11c-1,0-2,0-2.93,0-1.18,0-2.37,0-3.54.1a1.83,1.83,0,0,1-.33,0c-1.3,0-2.6,0-3.9.08a.76.76,0,0,1-.21,0c-1.4.07-2.8,0-4.19.09a.76.76,0,0,1-.21,0c-1.13.07-2.26,0-3.39.09a.76.76,0,0,1-.21,0c-1.31.1-2.64,0-4,.09a.83.83,0,0,1-.22,0c-1.37.07-2.74,0-4.11.1l-.21,0c-1.07,0-2.15,0-3.21.07a.73.73,0,0,0-.34.17H20.7Z"/><path class="cls-11" d="M19.91,117a2.54,2.54,0,0,1,.87-.12c2.2,0,4.39-.08,6.58-.15,3.11-.09,6.21-.22,9.33-.21-.18.2-.41.12-.62.12-2.59,0-5.17,0-7.75.14s-5.1.22-7.65.22a6.33,6.33,0,0,0-.76.12Z"/><path class="cls-3" d="M22.75,121c0-.29.24-.33.48-.33h1.31c-.26.23-.57.11-.85.11a.74.74,0,0,0-.7.34Z"/><path class="cls-12" d="M116,96.1c.28-.15.15-.42.15-.63q0-7.08,0-14.17c0-.56.16-.71.7-.68a7.4,7.4,0,0,0,4.21-.77,5.65,5.65,0,0,0,3-4.93c.08-3.93,0-7.86,0-11.79q0-16.86,0-33.71a6.06,6.06,0,0,0-2.49-5.14,6.25,6.25,0,0,0-3.5-1.15c-.3,0-.6,0-.9,0H36.55c-1,0-1.12-.08-.89-1.16a5.36,5.36,0,0,1,5.42-4.35H158.27A5.31,5.31,0,0,1,163.7,22a6,6,0,0,1,.07,1.12q0,39.06,0,78.13a5.39,5.39,0,0,1-5.58,5.55h-117a5.48,5.48,0,0,1-5.62-5.57c.07-4.85,0-9.69,0-14.53,0-.2,0-.4,0-.6.29-.29.66-.21,1-.21,4.25,0,8.49,0,12.74,0,11.35,0,22.7,0,34,0h.3c4.06,0,8.12-.06,12.18,0a7.81,7.81,0,0,1,1.25.56c5.12,2.57,10.26,5.1,15.37,7.69A19.33,19.33,0,0,1,116,96.1Z"/><path class="cls-12" d="M71.23,55.48h35c2.1,0,3.1,1,3.1,3.09v7a2.7,2.7,0,0,1-3,2.95H35.86a2.68,2.68,0,0,1-2.74-2.75q0-3.72,0-7.45a2.65,2.65,0,0,1,2.8-2.8Z"/><path class="cls-13" d="M96.1,86.15l-7,0-5.41,0a1.66,1.66,0,0,0-.7,0H51.71c-.75,0-1.51-.09-2.26-.06-.23,0-.49,0-.49-.3s.23-.3.43-.33c.53-.09,1.06-.15,1.6-.22q6.66-.87,13.34-1.63c1.3-.14,2.59-.38,3.89-.52,1.6-.17,3.2-.32,4.78-.58s3.15-.41,4.72-.58c2.52-.28,5-.74,7.54-1a1.14,1.14,0,0,0,.62-.2l11.87,0a1.09,1.09,0,0,1,.74.28c1.3,1.13,2.61,2.23,3.91,3.35a2.61,2.61,0,0,1,.27.31c-.25.35-.66.34-1,.39-1.63.23-3.24.52-4.87.71a5.31,5.31,0,0,1-1.26,0C95.71,85.8,96.3,85.53,96.1,86.15Z"/><path class="cls-14" d="M85.88,80.64a.56.56,0,0,1-.58.42c-1.53.08-3,.34-4.54.55-1.71.24-3.42.45-5.15.59a15.22,15.22,0,0,0-2.21.37c-.66.15-1.36.14-2,.24-2.28.31-4.56.58-6.84.87-1.5.19-3,.35-4.52.53-2.3.27-4.61.51-6.9.84-1.24.18-2.49.31-3.73.47-.14,0-.32,0-.32.17s.18.19.32.18c.81-.06,1.62.12,2.43.12H83c.25,0,.52-.1.74.1l-12.09,0h-36a.09.09,0,0,1-.07,0,1,1,0,0,1-.13-.57c0-1.5,0-3,0-4.5a.41.41,0,0,1,.12-.38H85.88Z"/><path class="cls-4" d="M20.37,113.62a4.92,4.92,0,0,1,3.79-3,6.6,6.6,0,0,1,1.53-.13q3.51,0,7,0c.21,0,.44.08.62-.1l.26.12c.23.18.5.09.75.09H82.67a4.6,4.6,0,0,1,0,2.7c-.39,0-.27-.27-.33-.46-.08-.84-.11-.9-.92-.86-3.21.17-6.42.14-9.63.33-.26,0-.51,0-.77,0-3.41,0-6.82.21-10.23.26-2.93,0-5.86.14-8.8.23-4.14.14-8.28.16-12.42.32-2.6.09-5.19.15-7.79.2-2.22,0-4.44.13-6.66.2l-4.16.12C20.78,113.73,20.55,113.79,20.37,113.62Z"/><path class="cls-15" d="M96.1,86.15c0-.48-.46-.31-.75-.48,2.48-.34,4.92-.61,7.32-1.11l4.46,3.81C109,90,111,91.64,112.86,93.31c1,.93,2.17,1.78,3.14,2.79l-5.59-2.76-11-5.51Z"/><path class="cls-12" d="M62.66,37.63c-.41-1.12-.84-2.22-1.23-3.35a5.27,5.27,0,0,1,9.82-3.8c.41.93.74,1.88,1.08,2.83a1.12,1.12,0,0,1-.57,1.5,1.08,1.08,0,0,1-1.37-.64c-.37-.83-.66-1.7-1-2.55a3.18,3.18,0,0,0-3.89-2.08,3.11,3.11,0,0,0-2.13,3.73c.38,1.21.87,2.38,1.31,3.57a2,2,0,0,1,.22.79A2.8,2.8,0,0,1,62.66,37.63Z"/><path class="cls-2" d="M35.52,80.64a47.19,47.19,0,0,1,0,5.45c-1.27,0-2.54,0-3.81,0-.35,0-.43-.15-.43-.47,0-1.5,0-3,0-4.52,0-.39.13-.51.52-.51C33.06,80.64,34.29,80.64,35.52,80.64Z"/><path class="cls-16" d="M62.66,37.63H74.35c.79,0,.8,0,.8.8,0,3.15,0,6.29,0,9.44a.14.14,0,0,1-.18-.07,7.23,7.23,0,0,1-.1-2q0-3,0-5.94A2.91,2.91,0,0,0,74,38.12c-.17-.21-.44-.17-.67-.17-1.15,0-2.3,0-3.45,0s-2.3-.07-3.44.08c-.26.15-.2.41-.2.64,0,1.67,0,3.33,0,5,0,.28.11.68-.23.79s-.59-.26-.76-.53l-3.41-5.44-.12-.21c-.09-.13-.18-.29-.36-.25s-.22.26-.22.43c0,1.15,0,2.3,0,3.45,0,.87,0,1.75,0,2.62,0,1.74,0,3.48,0,5.23,0,.77,0,.79.8.8,1,0,2,0,3,0a3.12,3.12,0,0,1,1.18.1.19.19,0,0,1,.1.18l-4.88,0c-.4,0-.5-.14-.5-.52q0-6.09,0-12.18c0-.44.16-.55.56-.53S62.25,37.63,62.66,37.63Z"/><path class="cls-17" d="M66.23,50.84s0-.06,0-.09l.08-.08a1.07,1.07,0,0,1,.58-.12c1.48,0,3,0,4.45,0,.89,0,1.79,0,2.68,0s.84,0,.84-.88c0-.4,0-.79,0-1.19a.78.78,0,0,1,.19-.6h.1c0,.85,0,1.7,0,2.55,0,.3-.08.42-.4.42Z"/><path class="cls-18" d="M133,117.67c1.07,0,2.14,0,3.21,0,3.06-.14,6.11-.17,9.17-.27,1.22,0,2.45,0,3.67-.1s2.56-.06,3.84-.1a12.55,12.55,0,0,1,2.74,0c-.19.2-.45.12-.67.11-2.42-.08-4.83.07-7.23.17-1.54.06-3.08,0-4.61.14a9.57,9.57,0,0,1-1.52.06c-2.87-.1-5.73.19-8.6.11a.06.06,0,0,1,0-.08Z"/><path class="cls-18" d="M165,116.84c2.13-.18,4.27,0,6.4-.15,1.25-.07,2.49,0,3.73-.09a.46.46,0,0,1,.47,0c-.09.13-.24.12-.37.12-1.24,0-2.49.06-3.72.08-2.17,0-4.34.19-6.51.16,0,0-.05,0,0-.08S165,116.84,165,116.84Z"/><path class="cls-3" d="M57.05,119.82c.12-.15.29-.12.44-.12,2.56,0,5.11-.21,7.66-.12-.12.15-.28.12-.44.12Z"/><path class="cls-3" d="M103.5,118.51c1.6-.13,3.19-.11,4.78-.14.43,0,.86-.13,1.3-.1,0,0,0,0,0,.08s0,0,0,0l-6.08.24s0-.06,0-.08S103.49,118.51,103.5,118.51Z"/><path class="cls-4" d="M121.49,118c.17-.19.41-.11.61-.11h3.2a.7.7,0,0,1,.6,0c-.18.19-.41.12-.62.12Z"/><path class="cls-3" d="M39,120.29c.17-.19.41-.11.61-.11,1.23,0,2.45,0,3.68,0-.18.19-.41.11-.62.11Z"/><path class="cls-3" d="M165,116.84V117a13.14,13.14,0,0,1-1.66,0,10.61,10.61,0,0,1-2.39,0c.18-.19.41-.12.62-.12Z"/><path class="cls-3" d="M117.08,118.15c.18-.19.41-.11.62-.12h3.67c-.17.19-.41.12-.61.12h-3.44A.16.16,0,0,1,117.08,118.15Z"/><path class="cls-3" d="M33.71,120.41c.17-.19.4-.11.61-.11h3.56c-.18.2-.41.12-.62.12C36.08,120.42,34.89,120.41,33.71,120.41Z"/><path class="cls-3" d="M88,119c.18-.19.41-.11.62-.11h3.43c-.18.2-.41.12-.61.12Z"/><path class="cls-3" d="M65.27,119.58c.18-.19.41-.11.62-.12H69.2c-.17.19-.41.11-.61.12Z"/><path class="cls-3" d="M25.13,120.65c.18-.19.41-.11.62-.11h3.31c-.17.19-.4.12-.61.12Z"/><path class="cls-3" d="M97.07,118.75c.18-.2.41-.12.62-.12h3.19c-.17.19-.4.11-.61.11Z"/><path class="cls-3" d="M43.24,120.18c.17-.2.4-.12.61-.12,1.07,0,2.13,0,3.2,0-.18.19-.41.11-.62.11Z"/><path class="cls-3" d="M52.88,119.94c.18-.2.41-.12.62-.12h3.2c-.18.19-.41.11-.62.11Z"/><path class="cls-4" d="M83.26,119.1c.17-.19.4-.11.61-.11h3.2c-.18.2-.41.12-.62.12C85.39,119.11,84.32,119.1,83.26,119.1Z"/><path class="cls-3" d="M92.9,118.86c.2-.2.45-.11.68-.11,1,0,2,0,3,0-.2.2-.45.11-.68.11C94.92,118.87,93.91,118.86,92.9,118.86Z"/><path class="cls-3" d="M78,119.22c.19-.2.44-.11.67-.11h3c-.2.21-.45.12-.68.12C80,119.23,79,119.22,78,119.22Z"/><path class="cls-3" d="M48.48,120.06c.19-.21.44-.12.67-.12h3c-.2.2-.45.11-.67.11Z"/><path class="cls-3" d="M29.42,120.53c.2-.2.45-.11.67-.11h3c-.19.21-.45.12-.67.12C31.43,120.54,30.43,120.53,29.42,120.53Z"/><path class="cls-3" d="M109.58,118.39v-.12h3.57c-.23.22-.53.11-.79.11C111.43,118.4,110.51,118.39,109.58,118.39Z"/><path class="cls-3" d="M157.1,117.08c.24-.22.53-.11.79-.12h2.79s0,.05,0,.08l0,0h-1A12.75,12.75,0,0,1,157.1,117.08Z"/><path class="cls-3" d="M69.44,119.46c.24-.22.53-.11.79-.11.93,0,1.86,0,2.78,0-.23.22-.52.11-.79.11C71.29,119.47,70.37,119.46,69.44,119.46Z"/><path class="cls-3" d="M117.08,118.15h.24c-.24.22-.53.11-.79.11-.93,0-1.86,0-2.78,0,.32-.24.68-.1,1-.11C115.54,118.13,116.31,118.15,117.08,118.15Z"/><path class="cls-18" d="M157.1,117.08h2.62c-.28.23-.6.1-.91.11-.84,0-1.69,0-2.54,0,0,0-.05-.06,0-.08s0,0,0,0Z"/><path class="cls-3" d="M156.27,117.08v.12h-3.34c.32-.24.69-.1,1-.11C154.73,117.06,155.5,117.08,156.27,117.08Z"/><path class="cls-3" d="M73.61,119.34c.4-.25.84-.09,1.26-.11.61,0,1.22,0,1.84,0-.41.25-.85.09-1.27.11C74.83,119.36,74.22,119.34,73.61,119.34Z"/><path class="cls-3" d="M127.8,117.79h2.62a4.79,4.79,0,0,1-1.73.12c-.3,0-.59,0-.89,0a.06.06,0,0,1,0-.08Z"/><path class="cls-18" d="M160.68,117.08V117h2.62a5.1,5.1,0,0,1-1.74.11A8.61,8.61,0,0,1,160.68,117.08Z"/><path class="cls-3" d="M103.5,118.51v.12h-1.9A6.39,6.39,0,0,1,103.5,118.51Z"/><path class="cls-3" d="M133,117.67v.12c-.43.21-.87-.07-1.31,0C132.15,117.54,132.61,117.74,133,117.67Z"/><path class="cls-3" d="M175.56,116.6h-.47c.37-.24.79-.06,1.18-.12v.13C176,116.8,175.8,116.64,175.56,116.6Z"/><path class="cls-3" d="M127.8,117.79v.12h-1.31a.06.06,0,0,1,0-.08l0,0Z"/><path class="cls-3" d="M126.49,117.79v.12H125.3C125.68,117.67,126.1,117.85,126.49,117.79Z"/><path class="cls-4" d="M82.65,113.39c0-.91,0-1.82,0-2.73H111.2c.93,0,1.86,0,2.79,0,.37,0,.5.12.47.48,0,.79-.09,1.58-.1,2.37,0,.41-.27.37-.53.37h-13.1c-.23,0-.48-.07-.69.09a.65.65,0,0,1-.54.19c-1.33,0-2.66,0-4,0-3.51,0-7,0-10.53,0-.56,0-1.11,0-1.67,0a.89.89,0,0,1-.71-.23A.47.47,0,0,1,82.65,113.39Z"/><path class="cls-6" d="M95.53,114H100l7.63,0c0,.3-.28.21-.46.23a7.08,7.08,0,0,0-1.22,0c-.33,0-.65,0-1,0-1.06.07-2.14,0-3.2.11s-1.94,0-2.91,0c-.55.12-1.11,0-1.66.1-3.43,0-6.86.24-10.29.24-.22,0-.43,0-.65,0-.23-.19,0-.33.07-.47a1.06,1.06,0,0,1,.58-.11c1.84,0,3.67,0,5.51-.08A24.23,24.23,0,0,0,95.53,114Z"/><path class="cls-4" d="M151.15,113c-.2.2-.45.11-.68.11-2.53,0-5.06,0-7.58.14s-5.14.15-7.71.26c-1.48.06-3,0-4.44.11s-2.86,0-4.27.11-2.94,0-4.39.12-2.89,0-4.33.12c-1,.08-1.89.08-2.84.1-.19,0-.4.06-.56-.11h.11c2.2,0,4.4-.1,6.59-.14,2.8-.06,5.6-.15,8.4-.24,2.53-.07,5.06-.14,7.58-.25,1.37,0,2.74,0,4.09-.1s2.86,0,4.27-.12,2.73,0,4.09-.1A4.69,4.69,0,0,1,151.15,113Z"/><path class="cls-19" d="M105.05,114.22h1c.7-.12,1.43,0,2.14-.12,1.66-.11,3.33-.14,5-.11a1.22,1.22,0,0,1-.78.23c-2.44-.06-4.87.21-7.32.12,0,0,0,0,0-.08S105,114.22,105.05,114.22Z"/><path class="cls-20" d="M108.15,114.1a9.05,9.05,0,0,1-2.14.12c.31-.24.66-.07,1-.12s.46.08.66-.11C107.83,114,108,113.93,108.15,114.1Z"/><path class="cls-21" d="M99,116.48H97.07v-.12c1-.13,2,0,3-.06a1.47,1.47,0,0,0,.69-.06c1.22-.12,2.44,0,3.66-.06a1.59,1.59,0,0,0,.75-.05c1-.14,2,0,3.07-.07,1.46-.13,2.92,0,4.37-.14s3,0,4.43-.09a.45.45,0,0,0,.28-.06c1-.13,1.92,0,2.88-.06a1.47,1.47,0,0,0,.69-.06c1.22-.13,2.44,0,3.66-.06a1.73,1.73,0,0,0,.75-.06c1.22-.13,2.44,0,3.65-.06a1.79,1.79,0,0,0,.76-.06h.47a15.37,15.37,0,0,1,2.35,0c1,0,1.92,0,2.89,0,.09,0,.13,0,.14.13-.18.26-.46.2-.71.21H132a2.15,2.15,0,0,0-.76.09c-1.37,0-2.73.13-4.09.14-3.46,0-6.92.22-10.38.27-1.79,0-3.59,0-5.39.1a2.11,2.11,0,0,0-.35,0c-1.16.06-2.33,0-3.49.06-.71,0-1.41.1-2.12.07-1,0-2,0-3,.11-.56,0-1.12,0-1.67,0S99.55,116.77,99,116.48Z"/><path class="cls-21" d="M175,114.22c.35,0,.73-.12,1.07.12-1.58.17-3.17,0-4.75.15-1.33.1-2.65,0-4,.09-3,.16-6,.17-9,.27-1.31,0-2.62,0-3.92.09-1.54.13-3.08,0-4.62.14s-3.2,0-4.81.09l.12-.12c1.14-.13,2.28,0,3.42-.06a1.59,1.59,0,0,0,.75-.06c1-.13,2,0,3-.06.23,0,.47.07.69-.05,1.23-.13,2.46.05,3.68-.08,1.59-.17,3.19,0,4.78-.16,1-.13,2.08,0,3.12-.06a1.47,1.47,0,0,0,.69-.06c1.18-.13,2.36,0,3.54-.06a1.73,1.73,0,0,0,.75-.06c1.1-.13,2.2,0,3.3-.06a1.73,1.73,0,0,0,.75-.06Z"/><path class="cls-8" d="M131.26,115.65c.17-.19.4-.12.61-.12h3.06c.21,0,.44.07.61-.12,1.16-.07,2.33-.09,3.49-.13,1.85-.06,3.71-.13,5.57-.11H145c.32.24.68.07,1,.12s.47-.08.66.12a27.28,27.28,0,0,1-3.13.1c-2.39,0-4.78.16-7.18.21a3.36,3.36,0,0,0-1,0c-1.19.06-2.38,0-3.56.06A.56.56,0,0,1,131.26,115.65Z"/><path class="cls-9" d="M117.32,115.77c-.17.19-.41.12-.61.11-2.35-.08-4.7.1-7,.16-1.49,0-3,0-4.49.09.14-.17.33-.12.5-.12,1.28-.05,2.57-.06,3.85-.09,2.09,0,4.18-.21,6.28-.15C116.3,115.78,116.81,115.77,117.32,115.77Z"/><path class="cls-21" d="M144.6,115.17a.46.46,0,0,1-.44.12c-2.41-.07-4.81.2-7.22.12a7.28,7.28,0,0,1-1.4,0s0,0,0-.08l0,0h1.55a17.48,17.48,0,0,1,2.17-.06,1.47,1.47,0,0,0,.69-.06h.72c1-.13,1.92,0,2.87-.06a1.5,1.5,0,0,0,.7-.06C144.37,115.06,144.51,115,144.6,115.17Z"/><path class="cls-9" d="M161.39,114.58c-.12.14-.28.12-.44.12-2.67-.06-5.34.2-8,.12.12-.15.29-.12.44-.12Z"/><path class="cls-9" d="M135.54,115.29v.12h-5.36c.18-.19.41-.11.62-.11Z"/><path class="cls-9" d="M129.71,115.41c-.18.19-.41.12-.62.12H125.3c.18-.19.41-.11.62-.12Z"/><path class="cls-9" d="M105.17,116.13c-.17.19-.41.11-.61.11-1.27,0-2.53,0-3.8,0,.18-.19.41-.11.62-.11Z"/><path class="cls-9" d="M125.3,115.53c-.17.19-.41.11-.61.12h-3.8c.18-.19.41-.12.62-.12Z"/><path class="cls-9" d="M169.49,114.34c-.18.19-.41.11-.62.11H165.2c.18-.19.41-.12.62-.12Z"/><path class="cls-9" d="M149.24,114.93c-.17.2-.41.12-.61.12-1.19,0-2.37,0-3.56,0,.18-.19.41-.11.62-.11Z"/><path class="cls-9" d="M173.54,114.22c-.18.19-.41.11-.62.12h-3.43c.18-.19.41-.12.61-.12Z"/><path class="cls-9" d="M165.2,114.46c-.17.19-.4.11-.61.11h-3.2c.18-.19.41-.12.62-.12Z"/><path class="cls-9" d="M152.93,114.82c-.19.2-.44.11-.67.11h-3c.2-.2.45-.11.68-.11Z"/><path class="cls-9" d="M100.76,116.24c-.19.21-.44.12-.67.12-1,0-2,0-3,0,.2-.2.45-.11.68-.11Z"/><path class="cls-9" d="M144.24,115.05c-.24.22-.53.11-.79.12-.93,0-1.86,0-2.78,0,.23-.22.52-.11.79-.11C142.38,115,143.31,115.05,144.24,115.05Z"/><path class="cls-9" d="M120.89,115.65c-.23.22-.52.11-.79.11-.92,0-1.85,0-2.78,0,.24-.22.53-.11.79-.12C119,115.64,120,115.65,120.89,115.65Z"/><path class="cls-9" d="M140,115.17c-.48.26-1,.08-1.5.12s-.9,0-1.36,0a3.47,3.47,0,0,1,1.5-.11C139,115.15,139.5,115.17,140,115.17Z"/><path class="cls-9" d="M87.9,116.48a4.81,4.81,0,0,1-1.73.12c-.3,0-.59,0-.89,0a5.08,5.08,0,0,1,1.74-.11A8.61,8.61,0,0,1,87.9,116.48Z"/><path class="cls-9" d="M71.23,117a5.2,5.2,0,0,1-1.8.11,5.45,5.45,0,0,1-.7,0,5.38,5.38,0,0,1,1.79-.12C70.75,116.94,71,117,71.23,117Z"/><path class="cls-4" d="M79.68,116.72a5.38,5.38,0,0,1-1.79.12c-.23,0-.47,0-.71,0a5.4,5.4,0,0,1,1.79-.12C79.21,116.7,79.45,116.72,79.68,116.72Z"/><path class="cls-4" d="M83.49,116.6a5.38,5.38,0,0,1-1.79.12c-.23,0-.47,0-.71,0a5.2,5.2,0,0,1,1.8-.11A5.45,5.45,0,0,1,83.49,116.6Z"/><path class="cls-9" d="M75.51,116.84a9.49,9.49,0,0,1-2.38.12A9.49,9.49,0,0,1,75.51,116.84Z"/><path class="cls-19" d="M167.58,112.67c-2,0-4,.21-6.07.12,0,0,0-.05,0-.08s0,0,0,0c1.82.09,3.64-.13,5.46-.11C167.18,112.56,167.41,112.48,167.58,112.67Z"/><path class="cls-19" d="M161.39,112.79c-.17.19-.41.12-.61.12H157a4.22,4.22,0,0,1,1.62-.11c.37,0,.75,0,1.12,0A5.2,5.2,0,0,1,161.39,112.79Z"/><path class="cls-20" d="M151.15,113h-1.67c.18-.19.41-.12.61-.12h3.68A5.1,5.1,0,0,1,152,113,8.61,8.61,0,0,1,151.15,113Z"/><path class="cls-19" d="M174.61,112.43a4.21,4.21,0,0,1-1.62.12c-.37,0-.74,0-1.12,0a.06.06,0,0,1,0-.08l0,0Z"/><path class="cls-19" d="M171.87,112.43v.12H170.2a1,1,0,0,1-.71,0A10,10,0,0,1,171.87,112.43Z"/><path class="cls-19" d="M169.49,112.55h.71a7.68,7.68,0,0,1-2.14.12C168.52,112.42,169,112.61,169.49,112.55Z"/><path class="cls-20" d="M156.39,112.91h-1.91A3.27,3.27,0,0,1,156.39,112.91Z"/><path class="cls-20" d="M161.39,112.79h-1.67c.58-.26,1.2-.05,1.79-.12v.12Z"/><path class="cls-4" d="M76.35,115.41c.19-.2.45-.11.68-.11,2.61,0,5.22,0,7.83-.16,1.61-.08,3.21,0,4.81-.09,2.84-.16,5.69-.17,8.53-.26s5.58-.14,8.36-.24c1.7-.07,3.41,0,5.1-.12,1.37-.11,2.74,0,4.09-.11,1.51-.15,3,0,4.51-.12s3.2,0,4.8-.1c-.15.18-.37.12-.56.12-2.51-.06-5,.09-7.54.15-2.95.06-5.9.15-8.84.23l-7.89.24c-1.44,0-2.89,0-4.32.12s-3.16,0-4.73.19a10.29,10.29,0,0,1-1.47,0c-2.78,0-5.55,0-8.31.15C79.71,115.41,78,115.35,76.35,115.41Z"/><path class="cls-11" d="M125.06,114.1c.16-.18.37-.12.56-.12,2.6.08,5.19-.09,7.78-.15,1.6,0,3.21,0,4.81-.09,2.51-.14,5-.17,7.53-.26,1.44,0,2.88,0,4.31-.1,2.85-.15,5.7-.16,8.54-.26,1.43-.06,2.86,0,4.27-.1,1.9-.15,3.79-.09,5.68-.11-.2.2-.45.12-.68.11-2.46,0-4.91.12-7.36.2-1.08,0-2.17,0-3.24.06-1.57.12-3.14,0-4.69.14s-2.84,0-4.26.16a7.7,7.7,0,0,1-1.28,0c-2.22-.07-4.44.09-6.65.15-1.53,0-3.06,0-4.57.1-1.88.17-3.77,0-5.64.12C128.46,114.14,126.76,114.05,125.06,114.1Z"/><path class="cls-11" d="M36.69,116.48c.11-.14.28-.12.43-.11,2.76.08,5.51-.12,8.27-.16,1.54,0,3.09,0,4.63-.11,1.19-.1,2.37,0,3.56-.1,2.84-.16,5.69-.16,8.54-.26,1.45-.06,2.9.05,4.33-.11,1.66-.19,3.32,0,5-.15s3.28-.06,4.92-.07c-.16.18-.37.12-.56.12-2.52-.07-5,.1-7.55.15s-5.1.13-7.65.24c-1.56.06-3.12,0-4.68.1-2.88.17-5.77.15-8.65.26-1.73.07-3.46,0-5.17.1S38.49,116.42,36.69,116.48Z"/><path class="cls-4" d="M135.31,115.65c1.73,0,3.48-.07,5.21-.16,2-.1,4.07,0,6.1-.08a1.15,1.15,0,0,1,.63-.12c2.79,0,5.58,0,8.36-.15,1.46-.09,2.92,0,4.38-.16,1.28-.14,2.59,0,3.87-.07,1.63-.16,3.27.06,4.89-.21a1.08,1.08,0,0,1,.18,0c2.22.08,4.43-.15,6.65-.12.21,0,.5-.13.58.24-.49-.26-1,0-1.46,0-2.19-.06-4.39.09-6.58.15-1.51,0-3,0-4.51.1-1.9.17-3.81,0-5.7.13-1.51.11-3,0-4.51.1-2.94.17-5.89.17-8.83.26-1.39,0-2.78,0-4.15.11s-2.81,0-4.21.14c-.65,0-1.32.11-2,.09-1.84-.07-3.68.07-5.52.14-1.62.07-3.25,0-4.87.09-3.55.22-7.12.25-10.68.23,0-.26.23-.17.36-.17,2,.06,3.95-.09,5.93-.13q5.5-.12,11-.34c1.4,0,2.81,0,4.22,0A1.18,1.18,0,0,0,135.31,115.65Z"/><path class="cls-22" d="M135.31,115.65c-.18.19-.41.11-.62.11-1.37,0-2.73,0-4.09,0-2.51.12-5,.14-7.52.25-1.55.07-3.09,0-4.63.1s-3.28.07-4.92.1c-.14,0-.28,0-.38.12-2.07.08-4.15.09-6.22.16-.94,0-1.89,0-2.83.08a29.59,29.59,0,0,1-3.26.05c-.09,0-.12-.08-.08-.17h1.67a19.46,19.46,0,0,1,2.29-.06,1.47,1.47,0,0,0,.69-.06h2.14c.92-.13,1.84,0,2.76-.06.24,0,.48.07.7-.06,1.66,0,3.32-.08,5-.15,1.38-.06,2.78,0,4.15-.11s2.8,0,4.2-.16a5.32,5.32,0,0,1,1,0c2,.07,4-.2,5.94-.13Z"/><path class="cls-4" d="M100.76,116.6h3.34c-.2.21-.45.12-.68.12-2.42,0-4.83.08-7.25.19-.88,0-1.76,0-2.64,0-1.68,0-3.35.2-5,.12-.92.13-1.84,0-2.76.06a1.52,1.52,0,0,0-.7.06,13.14,13.14,0,0,1-1.66,0,13.69,13.69,0,0,1-1.81.06,1.51,1.51,0,0,0-.7.06H80.4s-.06-.06,0-.08,0,0,0,0a6.17,6.17,0,0,1,1.77-.12c2,0,4.11-.21,6.17-.13a3.88,3.88,0,0,0,.75-.11c1.1-.13,2.2,0,3.3-.06a1.73,1.73,0,0,0,.75-.06h.6c1-.13,1.92,0,2.88-.06a1.47,1.47,0,0,0,.69-.06H99A5.9,5.9,0,0,1,100.76,116.6Z"/><path class="cls-23" d="M80.4,117.2v.12c-3,.17-5.92.15-8.87.27-1.88.07-3.75,0-5.63.08a12.28,12.28,0,0,1-1.82.12.09.09,0,0,1,0-.08s0,0,0,0,.2,0,.27-.11h.59a14.31,14.31,0,0,1,2.07,0c1.9-.07,3.82-.09,5.72-.16l3.07-.08a1.06,1.06,0,0,1,.58.06,1.86,1.86,0,0,1,1-.12C78.39,117.19,79.39,117.2,80.4,117.2Z"/><path class="cls-8" d="M36.57,118.27c.17-.19.4-.12.61-.12H41a.17.17,0,0,1,0,.14c-.08.06-.2,0-.27.1H40c-.92,0-1.85,0-2.77,0C37,118.38,36.77,118.45,36.57,118.27Z"/><path class="cls-24" d="M20.84,119a.27.27,0,0,1,.12-.23,29.74,29.74,0,0,1,3.27,0,.1.1,0,0,1,.07.16C23.14,118.84,22,118.91,20.84,119Z"/><path class="cls-24" d="M24.42,118.63h.12c1.36-.13,2.73,0,4.09,0,.09,0,.11.08.07.17H27.63c-1,.12-2.09,0-3.14,0A.11.11,0,0,1,24.42,118.63Z"/><path class="cls-24" d="M64.08,117.67v.12H60.86a2.15,2.15,0,0,1-1.07,0c.29-.23.64-.06,1-.12A20.69,20.69,0,0,1,64.08,117.67Z"/><path class="cls-24" d="M48.83,117.91h3a4.84,4.84,0,0,1,1.26,0,.11.11,0,0,1,0,.17h-.95a32.28,32.28,0,0,1-3.26,0C48.82,118.05,48.79,118,48.83,117.91Z"/><path class="cls-24" d="M54.79,117.79h1.67a19.71,19.71,0,0,1,2.43-.05.11.11,0,0,1,.07.17H56.81a11.65,11.65,0,0,1-2,0A.11.11,0,0,1,54.79,117.79Z"/><path class="cls-24" d="M32.87,118.63h-.71c-1.09.12-2.18,0-3.26.05-.09,0-.12-.09-.08-.17,1.33-.13,2.65,0,4-.05C32.89,118.49,32.91,118.54,32.87,118.63Z"/><path class="cls-24" d="M41,118.27v-.12c1.29-.13,2.57,0,3.86-.05.09,0,.11.08.07.17H43.47A10.45,10.45,0,0,1,41,118.27Z"/><path class="cls-23" d="M54.79,117.91h2c-.19.21-.44.11-.67.12-1,0-2,0-3,0v-.12A5.2,5.2,0,0,1,54.79,117.91Z"/><path class="cls-24" d="M45,118h.24c1.13-.12,2.25,0,3.38,0a.11.11,0,0,1,.07.17h-1a21.63,21.63,0,0,1-2.67,0A.11.11,0,0,1,45,118Z"/><path class="cls-24" d="M36.57,118.27h2.9c.18,0,.4-.06.55.12h-.24a29.87,29.87,0,0,1-3.14,0A.11.11,0,0,1,36.57,118.27Z"/><path class="cls-24" d="M36.45,118.51h-.84a21.71,21.71,0,0,1-2.55,0,.11.11,0,0,1-.07-.17c1.13-.13,2.26,0,3.38,0C36.46,118.37,36.49,118.42,36.45,118.51Z"/><path class="cls-23" d="M85,117.2c.28-.23.61-.11.91-.12.85,0,1.7,0,2.55,0-.28.23-.61.1-.91.11C86.74,117.21,85.89,117.2,85,117.2Z"/><path class="cls-23" d="M28.82,118.63h3.34c-.28.23-.61.1-.91.11-.85,0-1.7,0-2.55,0v-.12S28.78,118.58,28.82,118.63Z"/><path class="cls-23" d="M48.71,118.15V118s.08,0,.12,0h3.34c-.28.23-.61.11-.91.11C50.41,118.16,49.56,118.15,48.71,118.15Z"/><path class="cls-23" d="M24.42,118.75h3.21c-.32.24-.68.1-1,.11-.76,0-1.53,0-2.3,0v-.11S24.38,118.7,24.42,118.75Z"/><path class="cls-23" d="M36.45,118.51v-.12s.08,0,.12,0h3.21c-.32.24-.68.1-1,.11C38,118.52,37.22,118.51,36.45,118.51Z"/><path class="cls-23" d="M45,118.15h2.74a3.46,3.46,0,0,1-1.5.11c-.45,0-.9,0-1.36,0v-.12Q45,118.07,45,118.15Z"/><path class="cls-23" d="M41,118.27h2.5a4.16,4.16,0,0,1-1.61.11c-.38,0-.75,0-1.13,0A.25.25,0,0,1,41,118.27Z"/><path class="cls-23" d="M33,118.51h2.62a4.17,4.17,0,0,1-1.61.11c-.38,0-.75,0-1.13,0v-.12Q32.93,118.43,33,118.51Z"/><path class="cls-23" d="M80.87,117.32a5.2,5.2,0,0,1,1.8-.12c.23,0,.47,0,.71,0a5.2,5.2,0,0,1-1.8.11A5.58,5.58,0,0,1,80.87,117.32Z"/><path class="cls-23" d="M59,117.91v-.12a.17.17,0,0,1,.24,0h1.66A6.39,6.39,0,0,1,59,117.91Z"/><path class="cls-4" d="M19.91,116.72v-.47a.86.86,0,0,1,.8-.31c1.85.06,3.69-.11,5.53-.13,3.19,0,6.38-.21,9.57-.27,2.75-.05,5.51-.16,8.26-.22,3-.07,6-.2,9-.26l3.74-.08q5.14-.11,10.29-.26c2.83-.09,5.66-.13,8.49-.25,1.88-.08,3.77,0,5.65-.19a2,2,0,0,1,1.28.13.32.32,0,0,1,0,.43,21.45,21.45,0,0,1-2.89.16c-2.11,0-4.22.09-6.32.15-1.48,0-3,0-4.43.08-.66.14-1.34,0-2,.11-.89,0-1.78,0-2.67,0-.57.13-1.17,0-1.75.11-.89,0-1.78,0-2.67,0s-1.63,0-2.44.11c-2.21-.07-4.43.11-6.64.15-2.69,0-5.37.19-8.06.22-.45,0-.91.06-1.36.11a4.06,4.06,0,0,0-1.39,0c-3.51.07-7,.27-10.51.24a.44.44,0,0,0-.23.06h-.12c-1.09.14-2.2,0-3.29.06a1.79,1.79,0,0,0-.76.06H24.3c-1.14.13-2.28,0-3.42.06a1.73,1.73,0,0,0-.75.06A.23.23,0,0,1,19.91,116.72Z"/><path class="cls-19" d="M41.21,116a6.55,6.55,0,0,1,1.77-.12c2,0,4-.1,6-.16,1.42,0,2.85,0,4.26-.1s2.76-.06,4.14-.1a4.48,4.48,0,0,1,1.55,0c-.12.15-.29.12-.44.12h-.83c-2.3-.09-4.59.1-6.88.15-1.35,0-2.69,0-4,.09-2.72.16-5.45.16-8.17.27-1.47,0-2.94,0-4.39.1-1.68.17-3.36,0-5,.1.18-.19.41-.12.62-.11,2.46.06,4.92-.15,7.39-.15.94,0,1.89-.08,2.83-.09A2.4,2.4,0,0,1,41.21,116Z"/><path class="cls-4" d="M68.84,115.17c1,0,2,.06,3,0,1.68-.12,3.36,0,5-.13,1.33-.1,2.65,0,4-.09a9.1,9.1,0,0,1,1.65-.12.92.92,0,0,1,.72-.17h1.25a3.6,3.6,0,0,0,.92-.1c.28,0,.57-.08.8.15,2.38.07,4.75-.12,7.12-.16,1.32,0,2.64,0,4-.08a6.47,6.47,0,0,1,1.46,0l.09,0c-.2.2-.45.12-.68.11-2.49-.06-5,.12-7.47.16-1.36,0-2.73,0-4.09.1s-3,0-4.5.13-2.77,0-4.15.11-3,0-4.56.13-3,0-4.57.09a.06.06,0,0,1,0-.08S68.83,115.17,68.84,115.17Z"/><path class="cls-19" d="M98.86,114.34h3a10.52,10.52,0,0,1,2.38,0c-.18.19-.41.11-.62.11H98.86s0,0,0-.08S98.85,114.34,98.86,114.34Z"/><path class="cls-19" d="M64.2,115.29h2.74a6,6,0,0,1,1.79,0c-.18.19-.41.12-.62.12H64.2s0,0,0-.08S64.19,115.29,64.2,115.29Z"/><path class="cls-19" d="M59.79,115.41h2.74a4.48,4.48,0,0,1,1.55,0c-.18.19-.41.12-.62.12H59.79s0,0,0-.08S59.78,115.41,59.79,115.41Z"/><path class="cls-19" d="M20.13,116.6c.17-.19.41-.11.61-.11H24.3c-.18.2-.41.12-.62.12C22.5,116.61,21.31,116.6,20.13,116.6Z"/><path class="cls-19" d="M25,116.48c.18-.19.41-.11.62-.11h3.43c-.17.2-.4.12-.61.12Z"/><path class="cls-20" d="M104.22,114.34h-2.38c.36-.24.76-.1,1.14-.11.69,0,1.38,0,2.07,0v.12Z"/><path class="cls-20" d="M59.79,115.41v.12H57.41A9.49,9.49,0,0,1,59.79,115.41Z"/><path class="cls-20" d="M68.73,115.29H66.94a6.74,6.74,0,0,1,1.9-.12v.12Z"/><path class="cls-20" d="M64.08,115.41H62.53a4.93,4.93,0,0,1,1.67-.12v.12Z"/><path class="cls-4" d="M82.54,114.46c-1.9.11-3.8.05-5.69.15-1.39.08-2.78,0-4.16.1-1.55.1-3.11,0-4.66.12-2.74.15-5.49.15-8.24.25-1.92.08-3.85,0-5.76.12-1.6.12-3.2,0-4.8.1-2.71.16-5.41.19-8.12.25-1.35,0-2.71,0-4.07.11-2.7.13-5.4.13-8.1.24-1.28.06-2.56,0-3.83.12-1.54.11-3.09.09-4.63.11a3.15,3.15,0,0,0-.58.12v-.84a.57.57,0,0,1,.48-.3,8.35,8.35,0,0,1,1.12-.13c2.06.07,4.12-.08,6.18-.14,3.87-.11,7.73-.18,11.59-.3,2-.07,3.93-.11,5.89-.17l11.35-.31c2.06-.06,4.12-.12,6.18-.15,3.73,0,7.45-.22,11.18-.27,2.61,0,5.23-.13,7.84-.21.37,0,.79-.07.93.43.2.19.45.11.68.11h12.2a.36.36,0,0,1-.32.12c-1.21-.09-2.4.16-3.6.12-1.75-.06-3.5.21-5.26.12-.28.25-.63.15-1,.18a12.23,12.23,0,0,1-2.42.11A.63.63,0,0,1,82.54,114.46Z"/><path class="cls-4" d="M20.37,113.62a6.51,6.51,0,0,1,1.71-.11c1.76,0,3.52-.1,5.28-.15,2.8-.09,5.6-.13,8.4-.25,1.46-.06,2.93,0,4.38-.15a12.16,12.16,0,0,1,1.22-.06c2.9.07,5.79-.11,8.68-.14,1.67,0,3.36,0,5-.11s3.13,0,4.69-.1c2.55-.14,5.1-.15,7.65-.27,1.39-.06,2.77,0,4.15-.09q4.07-.21,8.13-.25c.7,0,1.4-.07,2.11-.11s.84.2.75.78c0,.1,0,.2,0,.3a22.46,22.46,0,0,1-2.72.19c-2.7,0-5.39.11-8.09.16-3,0-5.9.15-8.85.24l-6.84.22c-2.89.1-5.78.16-8.68.24-3.07.08-6.14.13-9.21.23-4.44.15-8.88.23-13.32.37-1.39,0-2.78.08-4.17.09a1.1,1.1,0,0,1-.64-.08A2.94,2.94,0,0,1,20.37,113.62Z"/><path class="cls-4" d="M20,114.57a.92.92,0,0,1,.52-.11c2.16.09,4.31-.1,6.47-.15,1.82,0,3.64,0,5.45-.12,1.54-.1,3.08,0,4.62-.1,3.06-.17,6.13-.16,9.2-.26,1.56,0,3.12,0,4.69-.09,2.53-.14,5.06-.13,7.59-.27a32.79,32.79,0,0,0,4.2-.18,4.67,4.67,0,0,1,1,0c1.86.06,3.72-.11,5.58-.15,2.2-.06,4.4,0,6.59-.13,1.49-.08,3,0,4.46-.09a4.92,4.92,0,0,1,2.16,0c0,.16,0,.35.11.48v.47a.68.68,0,0,0-.63-.24c-2.39,0-4.79.1-7.19.16-1.56,0-3.13,0-4.69.09-3,.15-6,.15-9,.26-1.76.07-3.51,0-5.26.11-2.59.13-5.18.17-7.78.24-1.51,0-3,0-4.54.13s-3,0-4.57.14c-1.29.12-2.61,0-3.9.09-1.74.15-3.49,0-5.23.12-1.31.11-2.61,0-3.91.11-1.53.15-3.05,0-4.57.12a4.48,4.48,0,0,0-1.45.22A1.51,1.51,0,0,1,20,114.57Z"/><path class="cls-8" d="M76.35,117.32c-2.37-.06-4.74.1-7.11.15-1.44,0-2.89,0-4.33.08.12-.14.29-.11.44-.11,1.27,0,2.53-.06,3.79-.09,2.2,0,4.39-.19,6.59-.15C75.94,117.2,76.17,117.12,76.35,117.32Z"/><path class="cls-8" d="M28.82,118.63H24.54c.17-.2.4-.12.61-.12,1.23,0,2.45,0,3.67,0Z"/><path class="cls-8" d="M33,118.51H28.82c.18-.19.41-.12.62-.12,1.18,0,2.37,0,3.55,0Z"/><path class="cls-8" d="M45,118.15H41c.18-.19.41-.11.62-.12H45Z"/><path class="cls-8" d="M93.14,116.72c-.17.19-.4.12-.61.12H89.09c.18-.19.41-.11.62-.12Z"/><path class="cls-8" d="M97.31,116.6c-.24.22-.53.11-.79.12-.93,0-1.86,0-2.78,0,.23-.22.53-.11.79-.11C95.46,116.59,96.38,116.6,97.31,116.6Z"/><path class="cls-8" d="M64.08,117.67H60.74c.24-.22.53-.11.8-.11h2.78A.24.24,0,0,1,64.08,117.67Z"/><path class="cls-8" d="M48.83,118H45.26c.24-.22.53-.11.79-.11.93,0,1.86,0,2.78,0Z"/><path class="cls-8" d="M36.57,118.39H33c.24-.22.53-.11.79-.11.93,0,1.86,0,2.79,0Z"/><path class="cls-8" d="M24.42,118.75H21c.28-.24.61-.11.91-.12.85,0,1.7,0,2.55,0Z"/><path class="cls-8" d="M54.79,117.91h-3c.44-.25.92-.08,1.38-.11s1.07,0,1.6,0Z"/><path class="cls-8" d="M59.2,117.79H56.46A6.66,6.66,0,0,1,59.2,117.79Z"/><ellipse class="cls-8" cx="99.87" cy="116.54" rx="1.26" ry="0.08"/><path class="cls-16" d="M58.76,59A2.72,2.72,0,1,1,56,61.61,2.72,2.72,0,0,1,58.76,59Z"/><path class="cls-16" d="M98.74,61.64a2.71,2.71,0,0,1-2.68,2.75A2.72,2.72,0,1,1,96,59,2.71,2.71,0,0,1,98.74,61.64Z"/><path class="cls-16" d="M74,59a2.72,2.72,0,0,1,0,5.44A2.72,2.72,0,1,1,74,59Z"/><path class="cls-16" d="M44.07,59a2.72,2.72,0,1,1-2.76,2.66A2.7,2.7,0,0,1,44.07,59Z"/><path class="cls-16" d="M51.38,59a2.72,2.72,0,0,1,0,5.44,2.72,2.72,0,1,1,0-5.44Z"/><path class="cls-16" d="M81.36,59a2.72,2.72,0,1,1-2.75,2.67A2.69,2.69,0,0,1,81.36,59Z"/><path class="cls-16" d="M86,61.67a2.72,2.72,0,1,1,2.71,2.72A2.69,2.69,0,0,1,86,61.67Z"/><path class="cls-16" d="M66.07,59a2.72,2.72,0,1,1-2.73,2.69A2.69,2.69,0,0,1,66.07,59Z"/><path class="cls-16" d="M75,47.88c0,.77,0,1.53,0,2.3,0,.39-.07.57-.51.56-1.07,0-2.13,0-3.19,0L69.1,47.23c-.21-.32-.25-.62.1-.87a.56.56,0,0,0,.18-.78c-.11-.23-.18-.48-.3-.71a1.42,1.42,0,0,1,0-1.7,1,1,0,0,0,0-.87,1,1,0,0,0-.89-.77,1.06,1.06,0,0,0-1,.67c-.14.26-.21.57-.47.74s-.46.33-.56-.13c0-1.49,0-3,0-4.48,0-.19-.06-.39.06-.57h3.68a14.7,14.7,0,0,1,1.22,1.81c1.2,1.91,2.35,3.84,3.59,5.72.13.18.19.39.31.57Z"/><path class="cls-16" d="M66.23,37.76V43a1.09,1.09,0,0,1,.19.78c0,2.06,0,4.11,0,6.17a1.08,1.08,0,0,1-.19.78l0,0-1.19,0c-1-1.28-1.7-2.7-2.58-4-.48-.75-1-1.46-1.44-2.24q0-3.09,0-6.18c0-.2-.08-.47.27-.49a.53.53,0,0,1,.61.29c1,1.64,2,3.25,3,4.87.22.35.42.71.64,1.06.1.17.24.41.43.37s.13-.34.13-.52c0-1.82,0-3.65,0-5.47C66.11,38.17,66,37.93,66.23,37.76Z"/><path class="cls-16" d="M75,45.86a1.24,1.24,0,0,1-.39-.43c-1-1.44-1.87-3-2.81-4.44a25,25,0,0,1-1.92-3.23c1.25,0,2.5,0,3.74,0a.78.78,0,0,1,.66.36,3.55,3.55,0,0,1,.74,2.58C75,42.41,75,44.13,75,45.86Z"/><path class="cls-16" d="M61,44.44c.08,0,.22,0,.25.11a24,24,0,0,0,1.36,2.08c.7,1.12,1.39,2.24,2.08,3.36.14.23.39.42.33.73-1.17,0-2.34,0-3.51,0-.41,0-.54-.13-.53-.55C61,48.28,61,46.36,61,44.44Z"/><path class="cls-16" d="M66.23,50.73V43c.44,0,.6-.31.71-.66a1.37,1.37,0,0,1,1.13-1,1.07,1.07,0,0,1,1.1.67,1.28,1.28,0,0,1-.09,1.5.61.61,0,0,0-.06.8c.22.46.4.94.59,1.42.11.28.13.54-.22.68s-.38.42-.14.78c.63.9,1.22,1.83,1.81,2.77a1.15,1.15,0,0,1,.28.76Z"/><path class="cls-6" d="M85.4,114.34h.95l-.12.36H85.4A.26.26,0,0,1,85.4,114.34Z"/><path class="cls-20" d="M98.86,114.34v.12H97.31C97.81,114.2,98.35,114.41,98.86,114.34Z"/><path class="cls-8" d="M111,116.24c-.28.24-.61.11-.91.12-.85,0-1.7,0-2.55,0,.28-.23.61-.1.91-.11C109.31,116.23,110.16,116.24,111,116.24Z"/><path class="cls-8" d="M105.41,116.36c-.44.25-.92.09-1.38.12s-1.07,0-1.6,0c.45-.24.92-.08,1.38-.11S104.88,116.36,105.41,116.36Z"/><path class="cls-6" d="M85.4,114.34v.36a1.58,1.58,0,0,1-.83.12,2.25,2.25,0,0,0-1.31,0h-.72v-.36A16.11,16.11,0,0,0,85.4,114.34Z"/><path class="cls-20" d="M41.21,116H40A1.31,1.31,0,0,1,41.21,116Z"/><path class="cls-6" d="M83.26,114.82c0-.13.08-.27.2-.22.36.12.77,0,1.11.22Z"/><rect class="cls-25" x="19.64" y="110.24" width="156.77" height="11.57" rx="5.78"/><rect class="cls-26" x="87.07" y="110.54" width="22.01" height="4.34" rx="2.17"/></g></g></svg>