<svg xmlns="http://www.w3.org/2000/svg" viewBox="0 0 23.85 25.17"><defs><style>.cls-1{fill:#709f40;}.cls-2{fill:#fff;}</style></defs><g id="Layer_2" data-name="Layer 2"><g id="图层_1" data-name="图层 1"><g id="Group_237" data-name="Group 237"><path id="Path_131" data-name="Path 131" class="cls-1" d="M21,20.92a1.58,1.58,0,0,1-.56-.13l-.91-.32a.13.13,0,0,0-.12,0,10.12,10.12,0,0,1-2,1.48,11.23,11.23,0,0,1-2.3,1,.17.17,0,0,0-.14.15c-.07.4-.15.8-.24,1.21a1.05,1.05,0,0,1-.91.81.88.88,0,0,1-.23,0H10.21a1.08,1.08,0,0,1-1-.57,1.7,1.7,0,0,1-.16-.53c-.06-.33-.13-.66-.19-1,0,0,0-.07-.08-.08A11.23,11.23,0,0,1,7,22.27a10.1,10.1,0,0,1-1.82-1.14,7.69,7.69,0,0,1-.76-.65.13.13,0,0,0-.12,0l-1.12.39a1.1,1.1,0,0,1-1.32-.51l-1.72-3A1.12,1.12,0,0,1,.4,15.94l.85-.76A.14.14,0,0,0,1.3,15c-.1-.43-.19-.87-.25-1.31A8.09,8.09,0,0,1,1,12.08a11.39,11.39,0,0,1,.33-2,.1.1,0,0,0,0-.12L.33,9.1A1.09,1.09,0,0,1,.16,7.76L1.82,4.89a1.26,1.26,0,0,1,.52-.55,1.09,1.09,0,0,1,.9-.06l1.08.38a.11.11,0,0,0,.11,0A9.76,9.76,0,0,1,6.65,3.05a11.43,11.43,0,0,1,2.11-.87.15.15,0,0,0,.11-.13C9,1.63,9,1.21,9.12.79A1.11,1.11,0,0,1,10,0h3.58a1.1,1.1,0,0,1,1.05.64,2.65,2.65,0,0,1,.16.63c.06.27.11.55.16.83a.11.11,0,0,0,.09.08,11.23,11.23,0,0,1,1.77.7A10.33,10.33,0,0,1,19,4.27l.4.37a.15.15,0,0,0,.18,0l1.14-.39A1.09,1.09,0,0,1,22,4.79l1.35,2.36c.14.23.28.47.41.71a1.07,1.07,0,0,1-.23,1.31l-.92.83a.09.09,0,0,0,0,.11q.15.6.24,1.2a7.91,7.91,0,0,1,.09,1.82,11.43,11.43,0,0,1-.32,1.93.16.16,0,0,0,.07.2c.3.27.61.53.91.81a1.08,1.08,0,0,1,.19,1.3c-.35.63-.72,1.24-1.07,1.86-.24.4-.46.81-.71,1.21A1.05,1.05,0,0,1,21,20.92Z"/><path id="Path_132" data-name="Path 132" class="cls-2" d="M4.65,19.21H4.6l-1.67.57c-.06,0-.09,0-.12-.05l-1.27-2.2-.41-.69v-.08l1.36-1.19a.08.08,0,0,0,0-.09c-.1-.38-.2-.75-.27-1.13s-.11-.61-.14-.91a10.33,10.33,0,0,1,0-1.36,5.88,5.88,0,0,1,.1-.93,13.16,13.16,0,0,1,.34-1.51.06.06,0,0,0,0-.08L1.18,8.37a.1.1,0,0,1,0-.14h0l1.51-2.6c.05-.09.11-.18.15-.27s.05,0,.1,0l1.68.56a.08.08,0,0,0,.12,0A9.64,9.64,0,0,1,7.12,4,10.21,10.21,0,0,1,9.73,3a.17.17,0,0,0,.14-.15c.11-.58.22-1.15.34-1.72,0,0,0-.05,0-.05h3.35c.08,0,.11,0,.12.1.11.58.23,1.15.34,1.73,0,0,0,.07.08.08a11.75,11.75,0,0,1,1.82.6,9.9,9.9,0,0,1,2,1.18,9,9,0,0,1,1.21,1.11.11.11,0,0,0,.15,0L21,5.34a.08.08,0,0,1,.12,0v0l1.66,2.87a.08.08,0,0,1,0,.11h0L21.49,9.49a.17.17,0,0,0-.07.22,10.21,10.21,0,0,1,.3,1.33c0,.26.08.5.1.78a8,8,0,0,1,0,.86A9.81,9.81,0,0,1,21.73,14a12,12,0,0,1-.33,1.47.09.09,0,0,0,0,.11l1.32,1.16a.1.1,0,0,1,0,.14h0l-1.67,2.88s0,0-.08,0c-.56-.2-1.13-.37-1.69-.58a.08.08,0,0,0-.12,0,9.57,9.57,0,0,1-2.67,2,10.88,10.88,0,0,1-2.35.87c-.05,0-.08,0-.09.09-.11.58-.23,1.15-.35,1.73,0,.06,0,.08-.1.08H10.31c-.07,0-.09,0-.11-.08l-.33-1.7c0-.06,0-.1-.1-.12a10.35,10.35,0,0,1-2.47-.92,10,10,0,0,1-1.83-1.27,6.9,6.9,0,0,1-.72-.71Z"/><path id="Path_133" data-name="Path 133" class="cls-1" d="M4.82,15.67A1.82,1.82,0,0,1,5,14.91l1.36-4.44.41-1.33a.55.55,0,0,1,.55-.41.58.58,0,0,1,.53.42l.93,3,1,3.16a1.27,1.27,0,0,1,0,.67.54.54,0,0,1-1.07-.15,2.81,2.81,0,0,0-.18-.8,1.13,1.13,0,0,0-.08-.24c0-.08,0-.06-.07-.06H6.23s-.05,0-.06,0c-.08.27-.17.54-.25.81a1.71,1.71,0,0,0,0,.32.55.55,0,0,1-.62.47.55.55,0,0,1-.45-.4A1.66,1.66,0,0,1,4.82,15.67Z"/><path id="Path_134" data-name="Path 134" class="cls-1" d="M10.84,14.56V9.28a.54.54,0,0,1,.41-.54h2.3A1.65,1.65,0,0,1,15.17,10a1.49,1.49,0,0,1,.05.36v1.71a1.65,1.65,0,0,1-1.29,1.59,1.87,1.87,0,0,1-.34,0H12c-.06,0-.08,0-.08.08v2.1a.55.55,0,0,1-.53.57.56.56,0,0,1-.57-.53h0V14.56Z"/><path id="Path_135" data-name="Path 135" class="cls-1" d="M18,12.56v2.63c0,.08,0,.11.1.13A.55.55,0,0,1,18,16.4H16.82a.55.55,0,0,1-.54-.56.54.54,0,0,1,.44-.53c.14,0,.14,0,.14-.18V9.92c0-.06,0-.09-.08-.1a.55.55,0,0,1-.51-.5.58.58,0,0,1,.43-.58h1.22a.57.57,0,0,1,.55.4.54.54,0,0,1-.37.68l-.09,0c-.06,0-.07,0-.07.09C18,10.81,18,11.69,18,12.56Z"/><path id="Path_136" data-name="Path 136" class="cls-2" d="M7.28,11.17l.77,2.49H6.54Z"/><path id="Path_137" data-name="Path 137" class="cls-2" d="M11.94,11.19V9.92c0-.06,0-.09.08-.09h1.56a.5.5,0,0,1,.54.47v1.77a.5.5,0,0,1-.5.5H12c-.07,0-.08,0-.08-.08C11.94,12.05,11.94,11.62,11.94,11.19Z"/></g></g></g></svg>