<svg xmlns="http://www.w3.org/2000/svg" viewBox="0 0 13.23 17.56"><defs><style>.cls-1{fill:#709f40;}.cls-2{fill:#fff;}</style></defs><g id="Layer_2" data-name="Layer 2"><g id="图层_1" data-name="图层 1"><g id="Group_241" data-name="Group 241"><path id="Path_79" data-name="Path 79" class="cls-1" d="M0,8.76V.58C0,.1.1,0,.56,0H10a.73.73,0,0,1,.59.25c.8.82,1.61,1.62,2.42,2.42a.69.69,0,0,1,.21.52V17c0,.41-.11.52-.52.52H.54C.11,17.56,0,17.45,0,17Z"/><path id="Path_80" data-name="Path 80" class="cls-2" d="M.74,8.79V1.08C.74.8.8.72,1.09.72c2.81,0,5.63,0,8.44,0,.25,0,.32.06.31.31,0,.63,0,1.26,0,1.89,0,.37.1.47.48.48h1.91c.21,0,.27.06.27.26V16.59c0,.22-.08.26-.28.26H1c-.23,0-.29-.07-.29-.3V8.79Z"/><path id="Path_81" data-name="Path 81" class="cls-2" d="M11.85,2.67H10.71c-.12,0-.15,0-.15-.16V1.31Z"/><path id="Path_82" data-name="Path 82" class="cls-1" d="M6.61,11.88H2.1a.36.36,0,0,1-.33-.36.34.34,0,0,1,.31-.36,1.14,1.14,0,0,1,.26,0h8.73c.22,0,.39.11.39.35a.36.36,0,0,1-.34.38,0,0,0,0,1,0,0H6.61Z"/><path id="Path_83" data-name="Path 83" class="cls-1" d="M6.62,9.62H2.37a1.38,1.38,0,0,1-.29,0,.36.36,0,0,1,0-.72.6.6,0,0,1,.23,0h8.62a.88.88,0,0,1,.23,0,.35.35,0,0,1,.31.37.33.33,0,0,1-.3.35l-.32,0Z"/><path id="Path_84" data-name="Path 84" class="cls-1" d="M6.59,14.13H2.28a.67.67,0,0,1-.37-.08.32.32,0,0,1-.14-.34A.32.32,0,0,1,2,13.42a1.06,1.06,0,0,1,.35,0H11c.32,0,.49.14.48.39s-.17.34-.48.34Z"/><path id="Path_85" data-name="Path 85" class="cls-1" d="M6.61,6.63h4.54a.35.35,0,0,1,.31.35.34.34,0,0,1-.29.37h0a3.7,3.7,0,0,1-.47,0H2.33a1.42,1.42,0,0,1-.29,0A.35.35,0,0,1,1.76,7a.36.36,0,0,1,.3-.35H6.61Z"/></g></g></g></svg>