<svg xmlns="http://www.w3.org/2000/svg" viewBox="0 0 22 21.97"><defs><style>.cls-1{fill:#fff;}.cls-2{fill:#709f40;}.cls-3{fill:#f4f4f5;}</style></defs><g id="Layer_2" data-name="Layer 2"><g id="图层_1" data-name="图层 1"><g id="Group_223" data-name="Group 223"><path id="Path_108" data-name="Path 108" class="cls-1" d="M15,7.47V13.7a1.07,1.07,0,0,1-1,1.18H7.87a1.08,1.08,0,0,1-1.18-1,.89.89,0,0,1,0-.23V1.21a1.08,1.08,0,0,1,1-1.2h6.12A1.08,1.08,0,0,1,15,1a.67.67,0,0,1,0,.2Z"/><path id="Path_109" data-name="Path 109" class="cls-1" d="M22,9.44v4.44c0,.7-.31,1-1,1H17a.86.86,0,0,1-1-.74,1.22,1.22,0,0,1,0-.27v-9a.87.87,0,0,1,.72-1,1,1,0,0,1,.25,0h4a.87.87,0,0,1,1,.71.76.76,0,0,1,0,.3C22,6.43,22,7.94,22,9.44Z"/><path id="Path_110" data-name="Path 110" class="cls-1" d="M6,9.39v4.47a.88.88,0,0,1-1,1H1a.87.87,0,0,1-1-.74,1.22,1.22,0,0,1,0-.27v-9a.87.87,0,0,1,.71-1,.82.82,0,0,1,.27,0H5.05a.87.87,0,0,1,1,.75.81.81,0,0,1,0,.22C6,6.39,6,7.9,6,9.39Z"/><path id="Path_111" data-name="Path 111" class="cls-1" d="M14.86,16.37h3.52c.24,0,.32-.07.28-.29V16c0-.44.13-.54.57-.44.12,0,.11.09.11.17v3c0,.13,0,.18-.17.14s-.39.09-.48,0,0-.33,0-.5V17.26c0-.17,0-.23-.22-.23H11.32c-.18,0-.24.06-.21.23v.09c0,.55,0,.57-.58.5-.14,0-.09-.1-.1-.17s.09-.5,0-.61-.43,0-.64,0H3.67c-.24,0-.31.06-.3.3v1.33c0,.16,0,.28-.22.21s-.36.09-.44,0,0-.31,0-.47V15.85c0-.32.15-.3.36-.3s.36,0,.35.28c0,.54,0,.54.53.54h6.19c.27,0,.36-.08.32-.34V16c0-.4.18-.54.58-.42.14,0,.09.14.1.22,0,.59,0,.59.63.59Z"/><path id="Path_112" data-name="Path 112" class="cls-1" d="M10.75,21.36A1.4,1.4,0,0,1,9.33,20v0a1.42,1.42,0,1,1,2.84-.17V20a1.39,1.39,0,0,1-1.37,1.41Z"/><path id="Path_113" data-name="Path 113" class="cls-1" d="M19,22a1.22,1.22,0,0,1-1.21-1.2A1.2,1.2,0,1,1,19,22Z"/><path id="Path_114" data-name="Path 114" class="cls-1" d="M4.21,20.75A1.2,1.2,0,1,1,3,19.57,1.2,1.2,0,0,1,4.21,20.75Z"/><path id="Path_115" data-name="Path 115" class="cls-2" d="M12.19,12a1.37,1.37,0,0,1-2.73,0h0a1.37,1.37,0,0,1,2.73,0Z"/><path id="Path_116" data-name="Path 116" class="cls-2" d="M10.85,4.15h2.23c.29,0,.5.14.45.35a.41.41,0,0,1-.45.33H8.58c-.31,0-.47-.13-.45-.35a.39.39,0,0,1,.45-.32Z"/><path id="Path_117" data-name="Path 117" class="cls-2" d="M10.81,7.11H8.58c-.23,0-.42-.05-.45-.33s.15-.34.46-.35h4.49c.24,0,.42.07.46.33s-.17.35-.46.35Z"/><path id="Path_118" data-name="Path 118" class="cls-2" d="M10.85,8.7h2.23c.24,0,.42.06.45.32s-.16.36-.45.36H8.58c-.3,0-.47-.13-.45-.36s.22-.32.45-.32Z"/><path id="Path_119" data-name="Path 119" class="cls-2" d="M10.85,1.91h2.38a.33.33,0,0,1,.31.35h0a.33.33,0,0,1-.31.32H8.53c-.24,0-.4-.11-.39-.35s.17-.33.38-.33Z"/><path id="Path_120" data-name="Path 120" class="cls-2" d="M19,11a1.2,1.2,0,1,1-1.19,1.2h0A1.21,1.21,0,0,1,19,11Z"/><path id="Path_121" data-name="Path 121" class="cls-2" d="M19,6.16H17.77c-.24,0-.43-.08-.44-.34s.19-.35.43-.35h2.47c.24,0,.43.09.43.36s-.21.34-.45.33Z"/><path id="Path_122" data-name="Path 122" class="cls-2" d="M19,10.05H17.71c-.22,0-.38-.1-.38-.33s.15-.34.39-.34h2.52c.24,0,.4.09.4.33s-.17.34-.4.34Z"/><path id="Path_123" data-name="Path 123" class="cls-2" d="M19,7.43h1.2c.23,0,.41.08.41.33s-.18.35-.42.35H17.74c-.24,0-.43-.09-.43-.35s.21-.34.44-.33Z"/><path id="Path_124" data-name="Path 124" class="cls-2" d="M1.83,12.15A1.19,1.19,0,1,1,3,13.34,1.18,1.18,0,0,1,1.83,12.15Z"/><path id="Path_125" data-name="Path 125" class="cls-2" d="M3,6.16H1.79c-.24,0-.43-.08-.43-.34s.19-.35.43-.35H4.26c.23,0,.42.08.43.33s-.18.36-.42.36H3Z"/><path id="Path_126" data-name="Path 126" class="cls-2" d="M3,10.05H1.75c-.24,0-.4-.09-.39-.35s.16-.32.38-.32H4.26c.23,0,.41.08.41.33s-.16.34-.4.34H3Z"/><path id="Path_127" data-name="Path 127" class="cls-2" d="M3,8.1H1.78c-.28,0-.45-.14-.43-.35s.2-.32.43-.32H4.25c.23,0,.42.06.43.32s-.18.36-.43.36Z"/><path id="Path_128" data-name="Path 128" class="cls-1" d="M11.52,12a.67.67,0,0,1-.64.69h0A.69.69,0,0,1,10.1,12a.69.69,0,0,1,.63-.74h.12a.67.67,0,0,1,.67.67Z"/><path id="Path_129" data-name="Path 129" class="cls-1" d="M19.49,12.16a.5.5,0,0,1-.5.5.5.5,0,1,1,0-1A.5.5,0,0,1,19.49,12.16Z"/><path id="Path_130" data-name="Path 130" class="cls-3" d="M3,11.64a.5.5,0,0,1,.44.55A.5.5,0,1,1,3,11.64Z"/></g></g></g></svg>