<svg xmlns="http://www.w3.org/2000/svg" viewBox="0 0 34.3 47.46"><defs><style>.cls-1{fill:#fdfefe;}.cls-2{fill:#709f40;}</style></defs><g id="Layer_2" data-name="Layer 2"><g id="图层_1" data-name="图层 1"><g id="Group_176" data-name="Group 176"><path id="Path_72" data-name="Path 72" class="cls-1" d="M32.64,0a3.68,3.68,0,0,1,1.63,3.49c-.05,9.6,0,19.18,0,28.78a11.06,11.06,0,0,1-.54,3.87,6.8,6.8,0,0,0,.16,5.38c.39.79,0,.92-.62.92H16.5c-.5,0-1,0-.93-.73s.65-.56,1.09-.56H30.73c1.09,0,1.95,0,1.32-1.48-.36-.84.49-2.1-.52-2.59A6.76,6.76,0,0,0,28.88,37H8.32C6,37,5.4,36.46,5.39,34.14V3A3.17,3.17,0,0,1,7.05,0Z"/><path id="Path_73" data-name="Path 73" class="cls-1" d="M0,22.5V4.64A4.39,4.39,0,0,1,1.78.79C2.11.55,2.5.23,2.92.44s.26.75.26,1.14V35.4a1.85,1.85,0,0,1-.89,1.93,2.23,2.23,0,0,0-.7,3.07,2,2,0,0,0,.54.58c.37.35,1.32.35,1,1.18-.26.58-.93.26-1.43.29a1.34,1.34,0,0,1-1.59-1A6.66,6.66,0,0,1,0,40Q0,31.26,0,22.5Z"/><path id="Path_74" data-name="Path 74" class="cls-1" d="M9.87,39.3h3.47c.67,0,.93.27.92.94v6.31c0,.77-.22,1.14-1,.76a7.88,7.88,0,0,0-7,0c-.7.32-.93,0-.93-.67V40.33c0-.76.31-1,1-1C7.55,39.33,8.71,39.3,9.87,39.3Z"/><path id="Path_75" data-name="Path 75" class="cls-2" d="M19.44,15.81H11.69c-1.31,0-2-.43-1.91-1.84.06-2.21,0-4.42,0-6.64,0-1.3.45-2,1.84-2h16c1.32,0,1.81.62,1.81,1.82V13.8c0,1.42-.69,2-2.07,2C24.71,15.78,22.07,15.81,19.44,15.81Z"/></g></g></g></svg>