<svg xmlns="http://www.w3.org/2000/svg" xmlns:xlink="http://www.w3.org/1999/xlink" viewBox="0 0 1600.26 500"><defs><style>.cls-1{fill:url(#未命名的渐变_80);}.cls-2{fill:#fdfefe;}.cls-3{fill:#416330;}.cls-4{fill:#6d923f;}.cls-5{fill:none;}.cls-6{fill:#9ecd5e;}.cls-7{fill:#6f9f40;}</style><linearGradient id="未命名的渐变_80" y1="250" x2="1600" y2="250" gradientUnits="userSpaceOnUse"><stop offset="0" stop-color="#e9f5ef"/><stop offset="0.05" stop-color="#d2dfcc"/><stop offset="0.08" stop-color="#ccdbc5"/><stop offset="0.3" stop-color="#a8c295"/><stop offset="0.51" stop-color="#8baf70"/><stop offset="0.7" stop-color="#76a155"/><stop offset="0.87" stop-color="#699845"/><stop offset="1" stop-color="#65953f"/><stop offset="1" stop-color="#8ccfb5"/></linearGradient></defs><g id="Layer_2" data-name="Layer 2"><g id="Layer_4" data-name="Layer 4"><rect class="cls-1" width="1600" height="500"/><g id="Group_240" data-name="Group 240"><path id="Path_72" data-name="Path 72" class="cls-2" d="M1578.24,0C1592.65,9.51,1602,26,1600,43.11c-.64,119.19-.06,149.65,0,268.85.27,16.49,0,32.49.26,48.32-.26,26-.26,45.61,0,66.81-.26,10-6.15,11.56-14.53,11.56h-92.22c-6.27,0-12.3,0-11.71-9.08.33-5.24,3.57-7.17,8.45-7.18,6.78,0,13.57.15,20.36.16l48.72.08c4.38,0,9.46-.32,12-3.87,2-2.68,1.75-6.39.84-9.58s-2.43-6.24-2.89-9.53c-.54-3.81.4-7.66,1-11.47s.66-7.95-1.31-11.26a13.32,13.32,0,0,0-8-5.61,38,38,0,0,0-9.93-1c-32.73-.46-65.43.36-98.16.36H1392c-29.29,0-36.38-6.68-36.38-35.44,0-128.86,0-169.27-.46-298.37A39.45,39.45,0,0,1,1375.78,0Z"/><path id="Path_73" data-name="Path 73" class="cls-2" d="M1289,230.69V44.5c-1.36-15.64,6.9-30.78,21.9-40.14,4.1-2.51,9-5.8,14.29-3.68s3.28,7.81,3.28,11.84V365.06c1.72,8-2.75,16.11-11.19,20.19-12.92,6.77-16.86,21-8.79,31.88a25.55,25.55,0,0,0,6.74,6.2c4.57,3.63,16.52,3.68,11.72,12.28-3.16,6-11.72,2.75-17.57,3-8.83,1.6-17.56-3-19.68-10.36a55.25,55.25,0,0,1-.76-14.74Q1289,322.13,1289,230.69Z"/><path id="Path_74" data-name="Path 74" class="cls-3" d="M1411.39,387.41h43.17c8.49,0,11.72,3.28,11.72,11.71q-.36,39.25,0,78.49c0,9.55-2.7,14.17-12.54,9.49a97.91,97.91,0,0,0-86.51-.35c-8.84,4-11.71.53-11.71-8.32,0-26.18.29-52.31,0-78.49,0-9.43,3.8-12.71,12.82-12.41C1382.63,387.76,1397,387.41,1411.39,387.41Z"/><path id="Path_75" data-name="Path 75" class="cls-4" d="M1530.41,107.3c-32.09,0-64.43-.41-96.29,0-16.28,0-24.31-5.38-23.84-22.78.76-27.47.52-32.86,0-60.33,0-16.11,5.86-24.31,22.9-24.19,66.19.35,78.18.35,144.33,0,16.34,0,22.43,7.79,22.49,22.73,0,27.53,0,32.85,0,60.32,0,17.58-8.61,24.49-25.65,24.25C1541.78,107,1563.27,107.3,1530.41,107.3Z"/></g><rect class="cls-5" width="1600" height="500"/><g id="Shield_Icon-4C"><path class="cls-6" d="M1385.84,328a1.38,1.38,0,0,1-1.38-1.38v-35a1.38,1.38,0,0,1,1.38-1.38l20-7.9,0-24.17a57,57,0,0,1-41.45,17.27s-3.63,62.17,41.45,86.35V328Z"/><path class="cls-7" d="M1405.8,282.33l10.1,3.92,12-13.57c-7.36-2.77-14.71-7.54-22.14-14.52l0,24.17Z"/><path class="cls-7" d="M1447.22,275.43a43.21,43.21,0,0,1-7.88-.05l-11.89,17.46v33.79a1.38,1.38,0,0,1-1.38,1.38h-20.29v33.77C1450.85,337.6,1447.22,275.43,1447.22,275.43Z"/><polygon class="cls-7" points="1403.95 306.1 1390.3 295.03 1403.49 320.51 1444.36 260.51 1403.95 306.1"/></g></g></g></svg>