<svg xmlns="http://www.w3.org/2000/svg" viewBox="0 0 53.93 60.58"><defs><style>.cls-1{fill:#fff;}.cls-2{fill:#709f40;}</style></defs><g id="Layer_2" data-name="Layer 2"><g id="图层_1" data-name="图层 1"><g id="Group_238" data-name="Group 238"><path id="Path_138" data-name="Path 138" class="cls-1" d="M24.43,60.58a12.87,12.87,0,0,1-2.28-1.16,5,5,0,0,1,2.3-8.81A4.75,4.75,0,0,1,29.64,53a1.1,1.1,0,0,0,1.4.62,23.44,23.44,0,0,0,12.87-6.76,26.17,26.17,0,0,0,4.26-6,.79.79,0,0,1,.12-.3,16.92,16.92,0,0,1-2.36-.17A6.57,6.57,0,0,1,40.52,34a68,68,0,0,1,0-7.82,6.57,6.57,0,0,1,7.18-5.91,7.53,7.53,0,0,1,.95.16l1,.21A22.37,22.37,0,0,0,44.1,10.8,22.8,22.8,0,0,0,29.43,3.54,23.36,23.36,0,0,0,4.33,20.6l.81-.18a6.69,6.69,0,0,1,8.12,4.83,6.85,6.85,0,0,1,.2,1.49V34A6.71,6.71,0,0,1,6.9,40.46a6.62,6.62,0,0,1-6.79-6c-.18-2.93-.11-5.89,0-8.83A23.8,23.8,0,0,1,2.72,15.15,26.58,26.58,0,0,1,22.3.42a26.9,26.9,0,0,1,31.06,21,32.25,32.25,0,0,1,.53,5.28c.09,2.26,0,4.55,0,6.81a6.65,6.65,0,0,1-.26,2,51.31,51.31,0,0,1-2,5.65A26.44,26.44,0,0,1,31.68,56.75c-.94.19-1.73.37-2.13,1.39a4.36,4.36,0,0,1-3.08,2.3l-.31.12ZM3.55,30.28H3.44v3.47A3.47,3.47,0,0,0,6.63,37a3.22,3.22,0,0,0,3.46-3h0c.1-2.52.1-5.05,0-7.56A3.13,3.13,0,0,0,7,23.61a3.12,3.12,0,0,0-3.46,2.64,33.84,33.84,0,0,0,.06,4Zm40.41,0h-.1v3.47A3.46,3.46,0,0,0,47,37.05a3.22,3.22,0,0,0,3.46-3c.11-2.51.09-5,0-7.51a3.32,3.32,0,0,0-6.55-.31,33.55,33.55,0,0,0,0,4Z"/><path id="Path_139" data-name="Path 139" class="cls-2" d="M3.57,30.28a30.56,30.56,0,0,1,0-4.06A3.14,3.14,0,0,1,7,23.57a3.14,3.14,0,0,1,3.11,2.91c.1,2.52.12,5.05,0,7.56a3.22,3.22,0,0,1-3.46,3h0A3.46,3.46,0,0,1,3.5,33.71V30.25Z"/><path id="Path_140" data-name="Path 140" class="cls-2" d="M44,30.27a30.71,30.71,0,0,1,0-4.07,3.33,3.33,0,0,1,6.56.31c.1,2.49.1,5,0,7.51a3.23,3.23,0,0,1-3.46,3,3.45,3.45,0,0,1-3.17-3.3V30.25Z"/></g></g></g></svg>