<svg xmlns="http://www.w3.org/2000/svg" viewBox="0 0 295.96 250.29"><defs><style>.cls-1{fill:#a4cd4e;}.cls-2{fill:#fff;}.cls-3{fill:#6a8e3e;}.cls-4{fill:#bebebd;}.cls-5{fill:#070a08;}.cls-6{fill:#4e7365;}.cls-7{fill:#dadada;}.cls-8{fill:#e7d4cd;}.cls-9{fill:#606161;}.cls-10{fill:#313232;}.cls-11{fill:#606060;}.cls-12{fill:#cfc0b6;}</style></defs><g id="图层_2" data-name="图层 2"><g id="图层_1-2" data-name="图层 1"><path class="cls-1" d="M195,0h11.95a35.48,35.48,0,0,0,4.49.17A106.25,106.25,0,0,1,232.3,2.88a73.24,73.24,0,0,1,18.28,6.5,52.16,52.16,0,0,1,10.65,7.4,43.17,43.17,0,0,1,13.41,24,76.42,76.42,0,0,1,1.21,10.11c.25,3.54.08,7.06.15,10.59,0,.46.13,1-.35,1.33-.47-.2-.39-.64-.36-1a1.43,1.43,0,0,0-1.05-1.52q-6.63-2.84-13.25-5.73c-6.44-2.8-12.85-5.66-19.27-8.51-5-2.22-9.63-5.11-14.4-7.74a66.65,66.65,0,0,0-13.95-6.19A5.21,5.21,0,0,1,211.5,31a40.13,40.13,0,0,0-3.17-2.51,1.29,1.29,0,0,0-.47-.11q-21.08,0-42.14,0a18.53,18.53,0,0,1-3.16,0c-1.91-1.88-4.49-2.69-6.7-4.11a9.05,9.05,0,0,0-2.07-.6,6.78,6.78,0,0,1-.42-3.45c.36-.75.91-.56,1.46-.29,1.56.74,3,1.62,4.58,2.42s3.15,1.69,4.73,2.53c.62.32,1,.24,1.06-.48s.36-1.22.44-1.86a.58.58,0,0,1,0-.19c.43-2,.44-2-1.46-3-3.58-1.73-7.16-3.46-10.71-5.26a1.94,1.94,0,0,0-1-.32c-.78,0-1.55,0-2.33,0-3.32,0-6.64,0-10,0A5.61,5.61,0,0,1,139,13.7a.89.89,0,0,1-.62-.68c-.59-2.19-2.21-3.08-4.28-3.25a14.28,14.28,0,0,0-7,1.29,4.69,4.69,0,0,0-2.28,2.14,1.32,1.32,0,0,1-.66.68,24.48,24.48,0,0,1-3.83.1c-.9,0-1.8,0-2.69,0s-1.09.12-1,1.14c.4,3.95.87,7.9,1.28,11.85,0,.43.18.89-.21,1.27a3.67,3.67,0,0,1-1.8.21H75.82c-1.88,0-1.88,0-1.88,1.91V214.62a6.59,6.59,0,0,0,.11,1.72c.2.69,1,.81,1.33,1.41a9.77,9.77,0,0,0,1.93,1.7c1.26,1,2.52,2.08,3.76,3.14a2.9,2.9,0,0,0,2.34.87,1.44,1.44,0,0,1,.76.1,1.9,1.9,0,0,1,.78.83,33.32,33.32,0,0,0,4.8,5.73c3.47,3.59,7,7.15,10.6,10.6,3.07,2.93,6.08,5.95,9.26,8.78.23.2.54.39.41.79H98.84a31.89,31.89,0,0,0-4.58-.17,121.18,121.18,0,0,1-17.21-1.82A151.55,151.55,0,0,1,61.73,245a157.56,157.56,0,0,1-23.58-8.33,124.77,124.77,0,0,1-13.3-6.75c-6.89-4.13-12.92-9.17-17.2-16.08a51.07,51.07,0,0,1-6.37-16.33A52.85,52.85,0,0,1,.1,185.91a.47.47,0,0,0-.1-.36v-7.13A18,18,0,0,0,.16,175,85.69,85.69,0,0,1,1.9,161c1.78-9.54,4.12-19,6-28.47a128,128,0,0,0,2.16-15,104.91,104.91,0,0,0,.1-13.85C9.77,96.56,8.81,89.5,8.06,82.42c-.42-4-.69-8.11-.89-12.19A73.37,73.37,0,0,1,8.39,53.1C10,44.43,13.57,36.7,19.92,30.45A49,49,0,0,1,36.35,20.09,70.77,70.77,0,0,1,50,16.21,136.1,136.1,0,0,1,64.57,14.5c4-.28,8-.38,12-.55,9.07-.39,18.13-.92,27.15-2,8.28-1,16.52-2.41,24.75-3.79C139.66,6.25,150.81,4.23,162,2.67q9.15-1.26,18.37-2C185,.25,189.56.15,194.15.09,194.43.09,194.73.18,195,0Z"/><path class="cls-1" d="M208.51,28.29c1,.77,2,1.51,2.92,2.33a6.68,6.68,0,0,0,2.62,1.48,65.6,65.6,0,0,1,13.37,6,177.24,177.24,0,0,0,18.94,9.75c4.74,2,9.37,4.15,14.06,6.21,4.42,1.95,8.82,4,13.32,5.72a2.44,2.44,0,0,1,1.81,3,3.89,3.89,0,0,1,.22,2.62c-.21,1.69-.18,3.4-.3,5.09-.27,3.84-.6,7.67-.74,11.52-.18,4.61-.4,9.22-.13,13.85a105.7,105.7,0,0,0,1.16,11.38,103.29,103.29,0,0,0,2.84,11.89c2.65,9.08,6.32,17.79,9.55,26.65a162.77,162.77,0,0,1,6.37,20.7A46.88,46.88,0,0,1,295.86,177a.63.63,0,0,0,.1.46v9.63c-.24,1.64-.18,3.31-.46,5a63.84,63.84,0,0,1-9.75,24.42,68.72,68.72,0,0,1-14.53,15.95A62.51,62.51,0,0,1,249,243.89a65.16,65.16,0,0,1-13.1,2.09c-3.31.25-6.62.22-9.92.14-4-.1-7.94-.35-11.9-.67q-5.09-.4-10.18-.67c-4.74-.26-9.49-.5-14.23-.34-3.91.14-7.82.25-11.73.49s-7.74.55-11.61.85c-2.94.23-5.87.54-8.81.83-4.73.46-9.44,1-14.17,1.48-4.4.43-8.81.88-13.22,1.27-3.16.28-6.32.56-9.5.65-3,.08-5.89.2-8.84.18a.62.62,0,0,0-.46.1H110l-4.22-4c-.16-.15-.36-.27-.52-.42Q97,238,89.1,229.81a30.17,30.17,0,0,1-4.89-6.12,1.75,1.75,0,0,1,1.36-.32c7.51,0,15-.06,22.54,0H215.29c1,0,1.19-.21,1.19-1.19,0-9.28.05-18.55,0-27.83-.05-9,0-18,0-27,.08-3.21,0-6.41,0-9.62-.08-13.4,0-26.8,0-40.2a21.29,21.29,0,0,0,0-2.88q0-22.72,0-45.46a18.82,18.82,0,0,0-.15-3.18,3.76,3.76,0,0,1-2.22,2.55c-.39.13-.41.55-.49.89-.19.88-.14,1.8-.36,2.67-.08.31,0,.84-.58.77a2.54,2.54,0,0,1-.26-1.58c0-6.22.08-12.44,0-18.66,0-5.45-.05-10.9,0-16.35a3.65,3.65,0,0,0-1.52-3.29,17.61,17.61,0,0,1-2.58-2.3A3.27,3.27,0,0,1,208.51,28.29Z"/><path class="cls-2" d="M74,216.77c-.48,0-.4-.4-.4-.71V29.55a2.57,2.57,0,0,0,0-.48c-.12-.77.2-.95,1-.94q21,0,42,0h1.16a2.64,2.64,0,0,1,.41,2.13,24.75,24.75,0,0,0-1.6,7.88c0,.93-.14,1.86-.19,2.78-.06,1.14.21,1.45,1.31,1.56a59.28,59.28,0,0,0,6.53.38c2.3,0,4.6.08,6.9,0a135.88,135.88,0,0,0,23.12-2.45,8.19,8.19,0,0,0,2.79-1,2.67,2.67,0,0,0,1.34-3.27,8,8,0,0,1-.52-1.75,2.23,2.23,0,0,1,2-2.94,8.42,8.42,0,0,0,4.1-1.75s.12-.07.15-.13c.94-1.36,2.3-1.42,3.81-1.42,13.15.05,26.3,0,39.45,0,.37,0,.77-.14,1.11.14.22,3.23.21,6.46.21,9.7,0,31-.06,62,0,92.94.06,27.64,0,55.27,0,82.91,0,3.43.19,3.14-3.21,3.17-4.88,0-9.75-.12-14.63,0-6.43.09-12.86,0-19.29,0-.64,0-1.28,0-1.92,0-7,0-14.08.06-21.12,0-1.82,0-3.65,0-5.47,0-8,0-15.94.06-23.91,0-1.8,0-3.59,0-5.38,0-3.56.05-7.12,0-10.68,0H75.86A3.27,3.27,0,0,1,74,216.77Z"/><path class="cls-3" d="M117.89,30.25c-.07-.71-.13-1.41-.2-2.12Q117,21.55,116.27,15c-.14-1.19-.16-1.19,1.07-1.2l6.92,0c.56.64.16,1.46.41,2.16a4.85,4.85,0,0,0,1.12,2.4,6.49,6.49,0,0,1,1.57,3.91,5.32,5.32,0,0,0,.22,1c.5,2.42.9,4.85,1.38,7.27.11.86.35,1.7.44,2.56s-.08,1.1-1,1.15c-1.16.06-2.31,0-3.47,0-.4,0-.91,0-.9.58s.54.53.93.54c1.63,0,3.27,0,4.9,0,.92,0,1-.13.87-1-.22-1.46-.45-2.92-.73-4.36-.44-2-.79-4-1.11-6a3.28,3.28,0,0,0-.23-1,6.45,6.45,0,0,1-.45-2.34,3,3,0,0,0-.86-2.16,11.29,11.29,0,0,1-1.67-2.77c-.25-.81-.37-1.59.51-2.14a15.87,15.87,0,0,1,3.16-.11c2.11,0,4.23,0,6.34,0,1.13,0,1.36.26,1.34,1.38a6.49,6.49,0,0,1-1,3.28,1.6,1.6,0,0,0-.37,1.15c.13,1.45.45,2.87.6,4.31.21,2.1.58,4.18.88,6.26a5.32,5.32,0,0,1,.09,1c.2,1.3.37,2.6.57,3.9.07.53.31.84.86.81,1.57-.08,3.13.25,4.7.2.39,0,.92.1.92-.54s-.51-.58-.91-.57a28.83,28.83,0,0,1-3.35-.21,1.26,1.26,0,0,1-1.27-1.19c-.2-1.29-.22-2.61-.48-3.9-.37-2.18-.59-4.38-.95-6.55-.14-1.13-.32-2.26-.42-3.39a5.41,5.41,0,0,1,.75-1.94,4,4,0,0,0,.54-2.18c0-.56-.15-1.18.35-1.65,3.56,0,7.12,0,10.67,0a3.09,3.09,0,0,0,1.05-.06h2.44a1.83,1.83,0,0,1,.53,1.39c.07,1.06.13,2.11.3,3.15a4.1,4.1,0,0,1,0,2A20.38,20.38,0,0,0,154,23.7c.38.38.27.88.33,1.34.13,1,.26,2.06.34,3.1.19,2.41.49,4.8.66,7.22,0,.4.14.83-.21,1.16a2.54,2.54,0,0,1-1.41.22H120.1c-1.7,0-1.78-.07-2-1.72-.14-1.08-.27-2.16-.36-3.25A3.42,3.42,0,0,1,117.89,30.25Z"/><path class="cls-3" d="M190.75,216.77l13.87,0c1,0,1.93,0,2.89,0,.7,0,.86-.23.84-.88,0-1.44,0-2.89,0-4.33l0-179.66c0-1.18,0-2.37,0-3.56-.11-.06-.11-.13,0-.19l.22.16c0,.85,0,1.71,0,2.56a1.89,1.89,0,0,1,.29,1.29V72.47c0,.54-.08,1.09-.05,1.63a10.51,10.51,0,0,1,0,1.25V131.2c0,.29,0,.58,0,.9a29.68,29.68,0,0,0,1.36-6.64,13.15,13.15,0,0,1,.78-3,16.2,16.2,0,0,0,.69-4.36,4.92,4.92,0,0,1,.23-1.52c.1-.33.2-.71.69-.61a3.47,3.47,0,0,1,.26,2.15c0,1.54-.06,3.07,0,4.6,0,12.39,0,24.77,0,37.16a68.9,68.9,0,0,1-.13,7.87,13.19,13.19,0,0,0,0,1.54q0,13.32,0,26.63c0,2.18-.09,4.36,0,6.54.05,5.48,0,11,0,16.45,0,1.26-.34,1.56-1.61,1.62-8,.35-16,.15-24,.18-.36-.08-.76,0-1.07-.28.18-.71.79-.52,1.24-.53,2.62,0,5.24,0,7.86,0,.32,0,.64,0,1,0s.9.06,1.07-.44a2.18,2.18,0,0,0-.06-1.77c-.23-.43-.77-.41-1.21-.42-1.31,0-2.62,0-3.93,0C191.45,217.24,190.92,217.38,190.75,216.77Z"/><path class="cls-3" d="M74,216.77c.26,0,.51,0,.77,0H113c.23,0,.45,0,.67,0a32.88,32.88,0,0,0,3.44.17c1,0,2,.05,3,.13.73.05,1.52.09,1.82,1a2.47,2.47,0,0,1-.79,2.57c-1.51.21-3,0-4.55.1h-6.93a4.24,4.24,0,0,0-1.33.14,9.08,9.08,0,0,1-1.73.09c-8.37,0-16.75,0-25.13,0a5.79,5.79,0,0,1-3.66-1.17c-.88-.65-1.78-1.26-2.65-1.91C75,217.27,74.16,217.36,74,216.77Z"/><path class="cls-3" d="M75.14,217.88a42.3,42.3,0,0,1,3.94,2.36,2.15,2.15,0,0,0,1.15.42l28.06-.07c2.74-.16,5.49,0,8.23-.07,1,0,2-.05,2.92,0-.08.66-.63.52-1,.53-1.57.05-3.14,0-4.71,0a21.44,21.44,0,0,0-4.31.44c-.12,0-.25.05-.37.09-.49.18-1.14.36-1.1.91s.72.35,1.13.46a9,9,0,0,0,2.2.17h27.07c.87,0,1.73,0,2.6,0a3.94,3.94,0,0,1,.77,0h37.86a3.63,3.63,0,0,1,.57,0c7.11,0,14.21,0,21.32,0a2.83,2.83,0,0,1,1.32.18.26.26,0,0,1,.13.32l-6,0H84.21c-1.78.38-3-.61-4.23-1.65-1.5-1.28-3-2.52-4.56-3.78A1.78,1.78,0,0,1,75.14,217.88Z"/><path class="cls-4" d="M208.29,28.13v.19L178,28.3c-3.78,0-7.56,0-11.35,0a1.71,1.71,0,0,0-1.54.69,7.89,7.89,0,0,1-5.09,2.8c-1.83.29-2.3,1-1.85,2.88.13.52.29,1,.43,1.56a.75.75,0,0,1-.75.61,5.27,5.27,0,0,1-2.74-.42l-.74-8.26a1.27,1.27,0,0,1,1-.33q3,0,6,0a1.2,1.2,0,0,1,.88.3h45.68Z"/><path class="cls-1" d="M153.57,20a5.84,5.84,0,0,1-.21-1.91,1.38,1.38,0,0,1-.08-.75c0-1.3.29-1.51,1.45-.89,3.23,1.71,6.46,3.42,9.65,5.18a6.52,6.52,0,0,1,1.5.85c-.2.87-.39,1.73-.62,2.59-.11.43-.3.49-.75.24-3.22-1.75-6.47-3.45-9.71-5.17C154.41,20,154,19.71,153.57,20Z"/><path class="cls-5" d="M138.56,13.7l0,1.71c-.11.5-.3.9-.94.81s-.71-.49-.71-1c0-2.49-1-3.47-3.54-3.54a11.72,11.72,0,0,0-7.15,2,1.72,1.72,0,0,0-.2,2c-.12.89-.6,1-1.58.37a5.59,5.59,0,0,1-.16-2.3,4.74,4.74,0,0,1,2.81-3,14.1,14.1,0,0,1,7.55-1.18,4.37,4.37,0,0,1,4.1,3.89C138.73,13.59,138.61,13.62,138.56,13.7Z"/><path class="cls-1" d="M165.88,22.52a5.75,5.75,0,0,1-2.5-1.1c-2.83-1.47-5.62-3-8.43-4.54-1.46-.79-1.56-.74-1.57.87,0,.13,0,.25,0,.38a18.14,18.14,0,0,1-.37-3.2,5.48,5.48,0,0,0-.24-1.4l5.86,2.84c2.29,1.12,4.57,2.3,6.89,3.36.81.38,1,.81.71,1.6A12.34,12.34,0,0,0,165.88,22.52Z"/><path class="cls-1" d="M162.23,28.12l-7.88,0a37,37,0,0,1-.4-4.45,1.38,1.38,0,0,1,1.46.05c2.13,1.17,4.27,2.34,6.41,3.49A.78.78,0,0,1,162.23,28.12Z"/><path class="cls-6" d="M138.56,13.7l.16-.23H149c.44,0,.89,0,1.33,0a13.43,13.43,0,0,1-3,.14C144.37,13.69,141.47,13.69,138.56,13.7Z"/><path class="cls-3" d="M212.52,116a2.63,2.63,0,0,0-.54,2.14,19.43,19.43,0,0,1-1.34,6.5c-.37,1.06-.13,2.16-.39,3.23a15.5,15.5,0,0,1-.88,3.13,4.86,4.86,0,0,0-.13,1.42c0,.28-.09.65-.43.66s-.26-.41-.31-.65a1.4,1.4,0,0,1,0-.29q0-28.54,0-57.09c0-.29,0-.58,0-.86.39-2.23,1.4-4.32,1.46-6.62a2.3,2.3,0,0,1,.32-1,12.15,12.15,0,0,0,1.42-4.73c.17-2.68.4-5.35.52-8,0-.43-.16-1,.48-1.19V73a1.7,1.7,0,0,1,.32,1.36c0,5.55.17,11.11,0,16.65-.27,7.74,0,15.47-.16,23.2C212.84,114.83,213,115.47,212.52,116Z"/><path class="cls-3" d="M212.52,112.68c-.13-21.31-.59-42.65-.68-64,.45-1.65-.94-3.58-.59-5.25.18-.84-.1-10,1.32-9.19.37-1-.24,1.17,0,0,.14-.7,3,2.83,3.82,2.62.06,0,.11.05.12.11.09,1.13.24,2.17.24,3.21q0,37.38,0,74.78c-.55,0-.55-.64-.67-1.15-.26-1.09-.43-1.15-.92-.24a6.21,6.21,0,0,1-1.18,1.65,2.87,2.87,0,0,0-.61,2c-.07,1.48-.24,2.94-.4,4.4,0,.42,0,1-.45,1.07C212.53,119.39,212.52,116,212.52,112.68Z"/><path class="cls-3" d="M212.53,118.25a22.2,22.2,0,0,0,.56-3.91c.09-.93.14-1.75,1.17-2.14.43-.17.68-.89,1-1.34s.73-.49,1,.26c.15.47-.07,1.12.5,1.4q0,27.09,0,54.17c0,.25,0,.5,0,.75-.63-.24-.45-.86-.45-1.33a65.55,65.55,0,0,0-.37-8.29c0-.34.1-.81-.23-1s-.49.34-.73.55a16.86,16.86,0,0,0-1.91,1.69.42.42,0,0,1-.54.07Q212.54,138.71,212.53,118.25Z"/><path class="cls-3" d="M212.52,159.92a1.42,1.42,0,0,0,.9-.81c0-.12.12-.31.19-.32.95-.11,1.29-1,2-1.46s.55.24.57.48c.16,2.35.48,4.7.42,7.08a5.39,5.39,0,0,0,.16,2.55q0,27.69,0,55.39c0,.78-.31.88-1,.87-4.3,0-8.6,0-12.91,0,0-.05,0-.11,0-.17.42-.41,1-.31,1.46-.31h10.5c1.36,0,1.42-.05,1.42-1.4V195.88c0-.44.12-1-.33-1.23s-.56.45-.9.61c-1.81.82-1.94,2.46-2,4.13,0,.8-.17,1.59-.24,2.39,0,.3,0,.68-.46.72,0-11.54-.06-23.08.06-34.61C212.42,165.23,212.44,162.58,212.52,159.92Z"/><path class="cls-3" d="M212.72,52.6c-.24.19-.18.46-.19.71-.13,2.54-.23,5.09-.4,7.63a12.58,12.58,0,0,1-1.64,5.87c-.52.84-.18,2-.49,2.89-.49,1.49-.61,3.1-1.48,4.47q0-6,0-12,0-15.63,0-31.28a21.09,21.09,0,0,1,4,3.43c.27.28.15.68.15,1Z"/><path class="cls-3" d="M94,82.94c0-8.31,0-16.63,0-24.94,0-1,.27-1.16,1.18-1.16q19.56,0,39.11,0c.93,0,1.18.26,1.18,1.18q0,25,0,50c0,.92-.3,1.1-1.15,1.1q-19.54,0-39.1,0c-1,0-1.23-.26-1.22-1.23C94,99.58,94,91.26,94,82.94Z"/><path class="cls-3" d="M143.06,121H96.14a2.78,2.78,0,0,1-1.83-.41,2.09,2.09,0,0,1-.71-2.34,2,2,0,0,1,1.71-1.49,3.83,3.83,0,0,1,.68,0H190.2c1.43,0,2.18.51,2.49,1.65a2.1,2.1,0,0,1-1.85,2.61c-.42,0-.84,0-1.25,0Z"/><path class="cls-3" d="M143.15,126.1h47a2.39,2.39,0,0,1,2.09.73,2,2,0,0,1,.36,2.16,2.21,2.21,0,0,1-1.73,1.37,5,5,0,0,1-.67,0H96.09c-1.74,0-2.64-.84-2.55-2.37a1.92,1.92,0,0,1,1.83-1.88c.42,0,.84,0,1.25,0Z"/><path class="cls-3" d="M107.07,137.71c2.57,0,5.14,0,7.71,0,.67,0,1,.12,1,.88,0,4.53,0,9,0,13.58,0,.74-.26.92-1,.92q-7.56,0-15.12,0c-.89,0-1.29-.2-1.27-1.24.06-4.4.05-8.79,0-13.19,0-.79.24-1,1-1C101.94,137.74,104.51,137.71,107.07,137.71Z"/><path class="cls-3" d="M107.06,171.23c2.6,0,5.2,0,7.8,0,.69,0,.87.21.86.87q0,6.75,0,13.48c0,.72-.2.94-.93.93q-7.74,0-15.5,0c-.74,0-.91-.24-.91-.94q0-6.74,0-13.48c0-.68.2-.87.87-.86C101.86,171.25,104.46,171.23,107.06,171.23Z"/><path class="cls-7" d="M155.09,36.41a8.56,8.56,0,0,1,2.08.17,1.44,1.44,0,0,0,1.41-.36A2.85,2.85,0,0,1,157,39.8c-1.73,1-3.67,1.06-5.54,1.44-2.88.57-5.8.9-8.71,1.28-1.45.19-2.92.3-4.38.42-1.88.15-3.77.17-5.66.22-1.25,0-2.5.17-3.73.14-4-.09-8-.13-12-.54a1.06,1.06,0,0,1-1-1.26,58.51,58.51,0,0,1,.67-7.24,13.7,13.7,0,0,1,1.22-4c.21,1.87.43,3.75.61,5.62,0,.41.21.58.61.56h35.41Z"/><path class="cls-3" d="M145,175.69H125.54c-1.6,0-2.5-.87-2.46-2.31a2,2,0,0,1,1.48-1.91,4.08,4.08,0,0,1,1.43-.14h38a7.71,7.71,0,0,1,1.44.12,1.94,1.94,0,0,1,1.6,1.8,2.07,2.07,0,0,1-1.3,2.24,4.1,4.1,0,0,1-1.52.19Z"/><path class="cls-3" d="M145.54,154H126.18c-1.64,0-2.55-.75-2.58-2.08a2,2,0,0,1,1.63-2.17,5.16,5.16,0,0,1,1.24-.11h38.24a4,4,0,0,1,1.42.15,2.15,2.15,0,0,1,0,4.07,4.33,4.33,0,0,1-1.43.14Z"/><path class="cls-3" d="M170.74,78.32H151.38a2.62,2.62,0,0,1-2-.68,2.12,2.12,0,0,1,.78-3.53,3.5,3.5,0,0,1,1.24-.16h38.71a2.68,2.68,0,0,1,1.67.37,2.1,2.1,0,0,1,1,2.23,2.3,2.3,0,0,1-2.06,1.76c-.54,0-1.09,0-1.63,0Z"/><path class="cls-3" d="M170.82,64.65h19.45c1.54,0,2.53.86,2.51,2.16a2.2,2.2,0,0,1-2.48,2.1q-19.61,0-39.2,0a2.17,2.17,0,0,1-2.31-1.52,2.08,2.08,0,0,1,.75-2.32,2.29,2.29,0,0,1,1.63-.42Z"/><path class="cls-3" d="M170.75,97c6.58,0,13.16,0,19.74,0a2.1,2.1,0,0,1,2,3.1,2,2,0,0,1-2,1.15c-1.73,0-3.47,0-5.2,0q-17.08,0-34.18,0c-1.63,0-2.69-1.1-2.45-2.5A2.17,2.17,0,0,1,151.11,97h19.64Z"/><path class="cls-3" d="M170.21,91.36c-6.58,0-13.16,0-19.74,0a2.13,2.13,0,0,1-2.05-1.16,2,2,0,0,1,.22-2.26,2.25,2.25,0,0,1,1.94-.86c2.31,0,4.62,0,6.94,0h31.87a5.7,5.7,0,0,1,1.24.07,2.19,2.19,0,0,1,1.63,2.32,2.13,2.13,0,0,1-2.11,1.86c-2.7,0-5.4,0-8.09,0Z"/><path class="cls-3" d="M145,185H125.35a2.15,2.15,0,0,1-2.19-1.39,2.25,2.25,0,0,1,.88-2.55,2.61,2.61,0,0,1,1.57-.33h39.18a2.13,2.13,0,0,1,1.39,3.88,2.53,2.53,0,0,1-1.65.38Z"/><path class="cls-3" d="M145.59,140.37c6.58,0,12.64-.51,19.22-.51a2.17,2.17,0,0,1,2.2,1.52,2.2,2.2,0,0,1-1,2.49,2.92,2.92,0,0,1-1.59.26h-32c-2.31,0-4.62,0-6.93,0a2.08,2.08,0,0,1-2.34-2.2c0-1.32.84-2.06,2.35-2.06C132,139.86,139,140.37,145.59,140.37Z"/><path class="cls-3" d="M119.45,220.64l-2.89,0c-.06,0-.07-.08,0-.12s0-.05.06-.05h4.62a3,3,0,0,1,1.77-.31h23.93a6,6,0,0,0,1.34-.07,1.63,1.63,0,0,0,1.32-1c.33-.88.15-1.27-.79-1.41a29.42,29.42,0,0,0-4.59-.39c-.44,0-1,.13-1.2-.49.35,0,.7,0,1.05,0H168.6l1,0a20.73,20.73,0,0,0,3.25.09c1.41,0,2.82,0,4.22.09.68.06,1.18.24,1.29,1,.17,1.14-.07,1.85-.83,2.12a7.26,7.26,0,0,1-2.45.43,6.2,6.2,0,0,0-2.1.16,9.87,9.87,0,0,1-1.72.08c-4.49,0-9,.06-13.46,0s-8.84.3-13.26.21a8.85,8.85,0,0,1-1.15,0c-7.54.1-15.08,0-22.62,0A1.68,1.68,0,0,1,119.45,220.64Z"/><path class="cls-3" d="M143,216.77c.19.23.46.19.71.18a29.73,29.73,0,0,1,5.25.39c.43.06,1,0,1.12.53a2.08,2.08,0,0,1-.44,1.87,2.49,2.49,0,0,1-1.73.69c-8.9,0-17.79,0-26.69,0a2.77,2.77,0,0,0,.55-1.78c.06-.93-.43-1.24-1.65-1.31-2-.11-4-.25-6.08-.39a1,1,0,0,1-.33-.17c.35,0,.7,0,1,0h27.18C142.27,216.73,142.62,216.76,143,216.77Z"/><path class="cls-3" d="M173,220.4c.46-.33,1-.14,1.49-.16a13.5,13.5,0,0,0,2-.18c1.53-.31,1.51-.32,1.56-1.83,0-.78-.37-1-1-1.08a41.24,41.24,0,0,0-5.44-.21c-.69,0-1.41.21-2.06-.17,1.59,0,3.19-.05,4.79-.05l16.4.05c.26.28.6.18.91.18,1.44,0,2.89,0,4.33,0s1.5.22,1.51,1.49c0,.26,0,.52,0,.77,0,.72-.28,1-1,1-3.17,0-6.34,0-9.52,0-.34,0-.71-.11-1,.16s-.62.3-1,.31c-3.56.07-7.12,0-10.69,0A1.47,1.47,0,0,1,173,220.4Z"/><path class="cls-5" d="M126.2,13.68a6.12,6.12,0,0,1,3.82-2,10.06,10.06,0,0,1,5.11-.06A2.49,2.49,0,0,1,137,14.11c0,.28,0,.57,0,.86s-.11.86.47,1,.82-.16,1.06-.57c0,1.44-.86,2.59-1.36,3.86a1,1,0,0,1-1,.82c-.58,0-.62-.43-.73-.82a.81.81,0,0,1,.13-1.14,6.13,6.13,0,0,0,1.28-4c0-.63-.51-.46-.85-.46l-9.24,0C126.59,13.7,126.4,13.68,126.2,13.68Z"/><path class="cls-5" d="M130.25,29.87c.5,1.69.63,3.45,1,5.16.09.45-.12.64-.58.64q-3.18,0-6.36,0c-.75,0-.55-.53-.58-1s0-.82.63-.81c1.34,0,2.69,0,4,0,.65,0,.91-.07.77-.84a10.71,10.71,0,0,1-.43-2.64C129.17,30.14,129.92,30.56,130.25,29.87Z"/><path class="cls-5" d="M138.54,29.28a23,23,0,0,1,.56,4c.09.63.27.89.93.89,1.31,0,2.62.14,3.92.14.68,0,.8.3.78.88s0,.94-.75.9c-1.91-.1-3.83-.16-5.74-.23-.38,0-.6-.15-.65-.55-.17-1.49-.37-3-.56-4.46A1.91,1.91,0,0,0,138.54,29.28Z"/><path class="cls-5" d="M124.42,16c.54-.06,1.27.66,1.58-.37a13.62,13.62,0,0,0,2.12,3.24,2.64,2.64,0,0,1,.42,1.82,5,5,0,0,0,.38,2c.17.58-.27.61-.63.68a1.29,1.29,0,0,1-1-.24c-.28-.28-.21-.69-.22-1a6.65,6.65,0,0,0-1.69-4A4.88,4.88,0,0,1,124.42,16Z"/><path class="cls-5" d="M127.31,23.15c.52-.21,1.25.37,1.61-.44.58,2.36.89,4.77,1.33,7.16-.09,1.36-1,.59-1.55.58Q128,26.79,127.31,23.15Z"/><path class="cls-5" d="M138.54,29.28s0,.06,0,.09c-.05,1.49-.05,1.49-1.5,1.44q-.5-3.66-1-7.3a1.27,1.27,0,0,0,1.57-.81C138.08,24.87,138.24,27.09,138.54,29.28Z"/><path class="cls-5" d="M137.6,22.7c-.15,1.26-.53,1.46-1.57.81a40.34,40.34,0,0,1-.57-4.24c.56.81,1,.8,1.72,0Z"/><path class="cls-3" d="M212.34,202.5a11.68,11.68,0,0,0,.36-3c0-.74.16-1.46.24-2.19a3,3,0,0,1,1.94-2.38,1.66,1.66,0,0,0,.87-1.32,3,3,0,0,1,.84,2q0,13.38,0,26.76c0,.95-.29,1.16-1.19,1.16-4.17-.05-8.35,0-12.52,0H180.16c-.13-1.08.61-2,2-2.45a6,6,0,0,1,1.87-.32,15,15,0,0,0,2.84-.28c6.48,0,13,0,19.44-.06,1.72,0,3.45-.13,5.18-.14.85,0,.79-.54.79-1.1q0-7.65,0-15.3C212.33,203.4,212.34,203,212.34,202.5Z"/><path class="cls-3" d="M186.9,220.45c-1.24.72-2.66.44-4,.72a3.2,3.2,0,0,0-2.77,2.33H140.85c-.55-.46-.13-.8.18-1.08a21.26,21.26,0,0,1,2.32-1.81c9.54-.18,19.07-.16,28.61-.19l1.06,0h12.91Z"/><path class="cls-3" d="M116.57,220.42a1,1,0,0,1,0,.17h-8.27c.27-.26.6-.16.91-.16Z"/><path class="cls-3" d="M143.35,220.61c-.46.87-1.38,1.26-2.06,1.89-.32.29-.66.51-.44,1q-15.21,0-30.43,0a9.88,9.88,0,0,1-3.38-.64c1-1.62,2.59-1.69,4.2-1.88,2.62-.32,5.25-.06,7.87-.18a.79.79,0,0,0,.34-.15Z"/><path class="cls-2" d="M119.66,94.82a30.5,30.5,0,0,1,9.44,4.62,9.13,9.13,0,0,1,2.64,4.18,15.79,15.79,0,0,1,.9,3.72c.06.52,0,.73-.56.73-2.43,0-4.87.07-7.31-.09-.32,0-.64,0-1,0-7.31,0-14.62,0-21.94,0-.93,0-1.85.08-2.78.17-.63.06-.84-.16-.84-.8a7.12,7.12,0,0,1,1.55-4.37c2.84-3.73,6.76-6,11-7.76a.41.41,0,0,1,.14.43,2.18,2.18,0,0,0,.43,2.31A4.74,4.74,0,0,0,114,99.82a6.2,6.2,0,0,0,5.82-2.53,1.28,1.28,0,0,0,0-1.52C119.64,95.5,119.39,95.19,119.66,94.82Z"/><path class="cls-8" d="M123.56,80.56c.91.89.38,3.17-.86,3.43-.57.12-.67.41-.79.87a8.37,8.37,0,0,1-3.22,4.93c-.52.85-1.46.82-2.26,1a8.5,8.5,0,0,1-3.69.08,1.46,1.46,0,0,1-1-.55c-2.69-1.41-4-3.82-4.8-6.61a1.3,1.3,0,0,0-.74-1A2.77,2.77,0,0,1,105,79.94a.71.71,0,0,1,.56-.58.82.82,0,0,1,.65,0,1.74,1.74,0,0,0,1.92-.52c.91-.94,1.92-1.79,2.9-2.66,2-1.76,4.22-1.54,6.5-.67a8.13,8.13,0,0,1,3.45,3c.32.43.62.89.9,1.35A1.26,1.26,0,0,0,123.56,80.56Z"/><path class="cls-9" d="M123.56,80.56c-.73.77-1,.77-1.61-.13a20.59,20.59,0,0,0-2.54-3.36,6.29,6.29,0,0,0-9,.06c-.6.58-1.22,1.13-1.81,1.72-1.17,1.19-1.53,1.26-3,.51a4.67,4.67,0,0,1-.85-4.17,9.68,9.68,0,0,1,5.72-7.13,3.1,3.1,0,0,0,1.17-.63,10.12,10.12,0,0,1,5.25-.65,6.59,6.59,0,0,1,4.31,2.58c0,.47.36.73.59,1.06A11.36,11.36,0,0,1,123.56,80.56Z"/><path class="cls-8" d="M119.66,94.82c.09.23.12.54.28.69.75.69.52,1.39,0,2-1.07,1.49-3.83,3.3-6.39,2.41a5.28,5.28,0,0,1-3.12-3.18c-.26-.59.42-1.05.33-1.64a6.86,6.86,0,0,0,.8-2.65c1.89.33,3.64-.37,5.43-.74a1.86,1.86,0,0,0,1-.62c.19-.2.34-.49.7-.37C119.05,92.11,118.9,93.57,119.66,94.82Z"/><path class="cls-10" d="M121.17,69.36c-.73-.11-1-.78-1.58-1.17A6.92,6.92,0,0,0,115,67c-1.15,0-2.21.59-3.37.46a6,6,0,0,1,1.67-4.25,1,1,0,0,1,1,0c2.29.82,4.54,1.73,6.83,2.55,1,.37.77,1.16.68,1.91A3.32,3.32,0,0,1,121.17,69.36Z"/><path class="cls-11" d="M121.79,67.65c.19-1.14-.4-1.57-1.42-1.91-2.12-.69-4.18-1.55-6.27-2.33-.27-.1-.55-.15-.82-.23a5.45,5.45,0,0,1,5.54-2,3.33,3.33,0,0,1,2.87,2.73A7.45,7.45,0,0,1,121.79,67.65Z"/><path class="cls-12" d="M118.68,90.77c-.86,1.31-2.26,1.5-3.64,1.72a14.78,14.78,0,0,0-1.87.39,1.5,1.5,0,0,1-1.57-.38c.06-.71.12-1.43.17-2.14a9.34,9.34,0,0,0,6.92-.57Z"/></g></g></svg>