<svg xmlns="http://www.w3.org/2000/svg" width="3.601" height="3.6" viewBox="0 0 3.601 3.6">
  <g id="Group_239" data-name="Group 239" transform="translate(576.233 -56.637)">
    <path id="Path_141" data-name="Path 141" d="M-574.431,60.237a1.8,1.8,0,0,1-1.8-1.808,1.8,1.8,0,0,1,1.814-1.792,1.808,1.808,0,0,1,1.787,1.816A1.8,1.8,0,0,1-574.431,60.237Zm0-.3a1.5,1.5,0,0,0,1.5-1.5,1.5,1.5,0,0,0-1.5-1.5,1.5,1.5,0,0,0-1.5,1.5A1.5,1.5,0,0,0-574.435,59.938Z" transform="translate(0 0)" fill="#fff"/>
    <path id="Path_142" data-name="Path 142" d="M-445.42,137.681c0-.073,0-.147,0-.22a.155.155,0,0,1,.185-.169.289.289,0,0,0,.3-.266.286.286,0,0,0-.281-.3.3.3,0,0,0-.274.2.151.151,0,0,1-.258.051.152.152,0,0,1-.024-.158.615.615,0,0,1,.522-.395.588.588,0,0,1,.573.372.575.575,0,0,1-.382.771c-.045.013-.062.03-.06.078,0,.086,0,.172,0,.257a.15.15,0,0,1-.154.158.153.153,0,0,1-.148-.165c0-.072,0-.144,0-.215Z" transform="translate(-129.225 -79.037)" fill="#fff"/>
    <path id="Path_143" data-name="Path 143" d="M-407.119,324.694a.16.16,0,0,1,.157-.169.15.15,0,0,1,.147.156.165.165,0,0,1-.154.169A.146.146,0,0,1-407.119,324.694Z" transform="translate(-167.526 -265.372)" fill="#fff"/>
  </g>
</svg>
