<svg xmlns="http://www.w3.org/2000/svg" width="3.759" height="3.642" viewBox="0 0 3.759 3.642">
  <g id="Group_173" data-name="Group 173" transform="translate(-27.002 -283.698)">
    <path id="Path_60" data-name="Path 60" d="M30.029,284.34l-1.276,1.006q-.325.256-.649.513a.567.567,0,0,1-.6.084c-.121-.049-.243-.095-.364-.145-.06-.025-.133-.05-.133-.127s.068-.107.126-.137l1.289-.677,2.033-1.066c.037-.019.074-.04.112-.057s.1-.059.157-.017.04.113.026.169c-.06.235-.126.468-.19.7-.2.729-.4,1.457-.592,2.187-.028.106-.061.124-.166.079-.395-.168-.795-.323-1.192-.485-.212-.086-.237-.2-.079-.369q.708-.759,1.418-1.516A.2.2,0,0,0,30.029,284.34Z" fill="#fff"/>
    <path id="Path_61" data-name="Path 61" d="M62.52,380.145c-.112-.276-.216-.53-.316-.786a.13.13,0,0,1,.008-.146c.043-.044.1-.025.145-.007.122.047.244.095.361.152a.217.217,0,0,1,.113.3C62.739,379.824,62.63,379.975,62.52,380.145Z" transform="translate(-34.194 -92.804)" fill="#fff"/>
  </g>
</svg>
