<svg xmlns="http://www.w3.org/2000/svg" xmlns:xlink="http://www.w3.org/1999/xlink" viewBox="0 0 1602.83 500.34"><defs><style>.cls-1{fill:#8ecfb4;}.cls-2{fill:url(#未命名的渐变_80);}.cls-3{fill:none;}.cls-4{fill:url(#未命名的渐变_49);}.cls-5{fill:#6f9f40;}.cls-6{fill:url(#未命名的渐变_49-2);}.cls-7{opacity:0.7;}.cls-8{fill:#f7af86;}.cls-9{fill:#fff;}.cls-10{fill:#9ecd5e;}.cls-11{fill:#ecf6f2;}.cls-12{fill:#b98466;}.cls-13{fill:#cdcccc;}.cls-14{fill:#a4755a;}.cls-15{fill:#cd9170;}.cls-16{fill:#bfbfbe;}.cls-17{fill:#8f664f;}.cls-18{fill:#b88365;}.cls-19{fill:#9d7057;}.cls-20{fill:#696b59;}.cls-21{fill:#eff8f4;}.cls-22{fill:#acb4b1;}.cls-23{fill:#b5bebb;}.cls-24{fill:#5e8b7a;}.cls-25{fill:#c5c5c4;}.cls-26{fill:#b1b9b5;}.cls-27{fill:url(#未命名的渐变_49-3);}.cls-28{fill:url(#未命名的渐变_49-4);}.cls-29{fill:url(#未命名的渐变_49-5);}.cls-30{fill:url(#未命名的渐变_49-6);}.cls-31{fill:url(#未命名的渐变_49-7);}</style><linearGradient id="未命名的渐变_80" y1="250.85" x2="1600.01" y2="250.85" gradientUnits="userSpaceOnUse"><stop offset="0" stop-color="#e9f5ef"/><stop offset="0.05" stop-color="#d2dfcc"/><stop offset="0.08" stop-color="#ccdbc5"/><stop offset="0.3" stop-color="#a8c295"/><stop offset="0.51" stop-color="#8baf70"/><stop offset="0.7" stop-color="#76a155"/><stop offset="0.87" stop-color="#699845"/><stop offset="1" stop-color="#65953f"/><stop offset="1" stop-color="#8ccfb5"/></linearGradient><linearGradient id="未命名的渐变_49" x1="1199.25" y1="250.34" x2="1384.11" y2="250.34" gradientUnits="userSpaceOnUse"><stop offset="0.08" stop-color="#e9f5ef"/><stop offset="0.2" stop-color="#e0efde"/><stop offset="0.44" stop-color="#c9deb3"/><stop offset="0.6" stop-color="#b8d293"/><stop offset="0.99" stop-color="#9cc25e"/></linearGradient><linearGradient id="未命名的渐变_49-2" x1="1315.13" y1="163.75" x2="1555.71" y2="163.75" xlink:href="#未命名的渐变_49"/><linearGradient id="未命名的渐变_49-3" x1="687.66" y1="376.61" x2="742.65" y2="376.61" gradientTransform="matrix(0.84, -0.54, 0.54, 0.84, -563.34, 299.1)" xlink:href="#未命名的渐变_49"/><linearGradient id="未命名的渐变_49-4" x1="598.4" y1="571.09" x2="664.91" y2="571.09" gradientTransform="matrix(0.84, -0.54, 0.54, 0.84, -563.34, 299.1)" xlink:href="#未命名的渐变_49"/><linearGradient id="未命名的渐变_49-5" x1="577.14" y1="274.55" x2="632.13" y2="274.55" gradientTransform="translate(-570.1 208.57) rotate(-24.77)" xlink:href="#未命名的渐变_49"/><linearGradient id="未命名的渐变_49-6" x1="641.19" y1="209.97" x2="696.18" y2="209.97" gradientTransform="matrix(0.99, 0.13, -0.13, 0.99, -511.12, -179.74)" xlink:href="#未命名的渐变_49"/><linearGradient id="未命名的渐变_49-7" x1="554.84" y1="149.23" x2="606.69" y2="149.23" gradientTransform="translate(-499.35 -206.96) rotate(10.38)" xlink:href="#未命名的渐变_49"/></defs><g id="Layer_2" data-name="Layer 2"><g id="Layer_2-2" data-name="Layer 2"><rect id="Rectangle_971" data-name="Rectangle 971" class="cls-1" y="0.34" width="1599.78" height="500"/><rect class="cls-2" y="1.36" width="1600.01" height="498.98"/><rect class="cls-3" x="2.83" width="1600" height="500"/></g><g id="Layer_3" data-name="Layer 3"><g id="Shield_Icon-4C"><path class="cls-4" d="M1295.3,330.65a6.15,6.15,0,0,1-6.15-6.15V168.65a6.15,6.15,0,0,1,6.15-6.15l88.81-35.12-.1-107.6a253.67,253.67,0,0,1-184.45,76.85S1183.42,373.31,1384,480.91V330.65Z"/><path class="cls-5" d="M1384.11,127.37,1429,144.8l53.53-60.4c-32.77-12.31-65.49-33.54-98.56-64.62l.1,107.6Z"/><path class="cls-5" d="M1568.46,96.63a193,193,0,0,1-35.08-.19l-52.93,77.71V324.5a6.15,6.15,0,0,1-6.14,6.15H1384V480.91C1584.6,373.31,1568.46,96.63,1568.46,96.63Z"/><polygon class="cls-6" points="1375.88 233.14 1315.13 183.87 1373.85 297.26 1555.71 30.24 1375.88 233.14"/></g></g><g id="Layer_6" data-name="Layer 6"><g class="cls-7"><path class="cls-8" d="M137.92,500.25c-7.71.13-15.47,0-23.2-.05a33.14,33.14,0,0,1-9.57-1c-1.48-.45-2.67-.9-3.48-2.26a10.3,10.3,0,0,1-1.23-4.58c-.53-7.87-1.88-17.13-8.37-22.47-2.41-2-4.74-4.07-7.09-6.11a24.33,24.33,0,0,1-6.85-11,112,112,0,0,1-3.31-13.64c-.62-3-1.09-6.07-1.55-9.12a1.51,1.51,0,0,1,.08-1.16.54.54,0,0,1,.3-.19.72.72,0,0,1,.48.22c.91,2,1.27,4.15,2,6.2a32.79,32.79,0,0,0,7.56,12.46,21,21,0,0,0,9.74,5.52,7,7,0,0,0,1.78.46c3.32.24,2.63.31,3.5-2.45.43-1.35.78-2.72,1.24-4.06a7.07,7.07,0,0,1,.58-2.31c.7-2.22,1.27-4.47,2-6.67.63-2.55,1.44-5,2.12-7.57a8.51,8.51,0,0,1,.73-1.79c1.13-.83.83-2.17,1.19-3.28a112,112,0,0,1,2.47-11.75,47.18,47.18,0,0,1,1.3-5.37c.83-2.78.11-5.35-1-7.88a16.8,16.8,0,0,0-1.61-2.94c-1.07-1.6-2.36-3-3.53-4.56a33.17,33.17,0,0,1-5.15-7.18c-.35-.7-.75-1.38-1-2.11-.49-.85-.52-1.88-1-2.73a10.71,10.71,0,0,1-.59-2.17,14,14,0,0,1-.66-5.77,3.56,3.56,0,0,1,3.89-3.12,5.82,5.82,0,0,1,2.38.22,9.07,9.07,0,0,1,3.12.93,6.71,6.71,0,0,1,2.23.92,8.24,8.24,0,0,1,1.84.83,14.56,14.56,0,0,1,2,1.14,36.88,36.88,0,0,1,7.2,5.33,47.71,47.71,0,0,1,4.3,4.35,43.35,43.35,0,0,1,5.35,7.07c.1.19.32.29.46.45,1.11,1.68,2.14,3.41,3.21,5.12a1.46,1.46,0,0,0,.54-.09,1.7,1.7,0,0,0,1.19-1.64c.59-4.45,1.21-8.89,1.55-13.36a9.41,9.41,0,0,1,.32-1.49c.13-1.81.41-3.6.54-5.41a1.76,1.76,0,0,1,.49-1.28c.73-.29,1,.29,1.22.74.8,1.47,1.44,3,2.14,4.53,1,2.1,2,4.2,2.9,6.32a9.5,9.5,0,0,1,.83,3c.17,2,.45,3.95.47,5.94a2.16,2.16,0,0,0,0,.35,3.26,3.26,0,0,0,0,.54,9.28,9.28,0,0,1,.23,1.28c.37,3,.54,6.08.77,9.12.34,4.63.64,9.27,1,13.9.19,2.53.34,5.07.51,7.61.28,4.09.51,8.18.8,12.27.19,2.75.34,5.51.51,8.27.26,4.23.51,8.47.81,12.71.2,2.9.47,5.8.48,8.7,0,12.44,0,16.27,0,28.71,0,3.06-3.39,3.07-5.64,3.15C141.62,500.17,139.77,500.22,137.92,500.25Z"/><path class="cls-5" d="M143.82,395.38a2.16,2.16,0,0,1-.17-1.15,2.81,2.81,0,0,1,1.8-.24h83.77a24.64,24.64,0,0,0,5.75-.34,14.46,14.46,0,0,0,12.17-6.13,14,14,0,0,0,2.75-7.24,48.67,48.67,0,0,0,.18-5.12q0-65.26,0-130.53a12.86,12.86,0,0,0-.09-2.4c-.07-.24-.11-.5-.4-.61a22.18,22.18,0,0,0-4.46-.26H19.85a23.52,23.52,0,0,0-4.67.23c-.3,0-.42.24-.49.5a2.62,2.62,0,0,0-.09.38c0,.55,0,1.1,0,1.64v134a3.78,3.78,0,0,0,.11,1.3,1.71,1.71,0,0,1,.07.95,13.43,13.43,0,0,0,3.41,8.12,15.51,15.51,0,0,0,7.33,4.77,13.94,13.94,0,0,0,3.2.44,3.86,3.86,0,0,1,1,0,17.69,17.69,0,0,0,4.11.33c6.17,0,12.34-.05,18.51,0,.78.24,1.11.7.74,1.51a1.64,1.64,0,0,1-1.33.35c-7.3,0-14.6.08-21.91,0a13.92,13.92,0,0,1-5.65-1A15.56,15.56,0,0,1,17,390.15a19.73,19.73,0,0,1-2.22-3.08,11.6,11.6,0,0,1-1.61-5.9c0-.35.11-.72-.1-1.06V240.8a13.89,13.89,0,0,1,1.74-6.31c3.31-5.2,7.79-8.42,14.15-8.59a12.14,12.14,0,0,0,2.17.17c10,0,20,.27,30-.06,20.29-.68,40.57-.18,60.86-.3s40.6-.34,60.89.07c17,.34,34,.09,51,.28a5.69,5.69,0,0,0,1.84-.14A15.26,15.26,0,0,1,247,230.84a1.18,1.18,0,0,1,.38.32,14.22,14.22,0,0,1,2.72,3.68,4.29,4.29,0,0,1,.5,1.16,10.16,10.16,0,0,1,1.18,5.68q0,68.76,0,137.51c0,3.33-.55,6.51-2.62,9.25-2.61,3.46-5.78,6.1-10.2,6.89a18.63,18.63,0,0,1-4.75.55q-44.17,0-88.35,0C145.14,395.88,144.37,396.06,143.82,395.38Z"/><path class="cls-9" d="M108.05,397.13c2.46,3.48,3.9,7.2,2.71,11.55-.47,1.68-.85,3.38-1.28,5.07a2.89,2.89,0,0,1-2.17.48H80.13c-2.8,0-5.6,0-8.4,0a12.44,12.44,0,0,1-12.34-10.4,10.49,10.49,0,0,1-.1-1.85q0-55,0-110a12.34,12.34,0,0,1,12.13-12.1q22.53,0,45.07,0a12.29,12.29,0,0,1,12.15,10.7,20.59,20.59,0,0,1,.19,2.83q0,47.76,0,95.53c0,.81.37,1.77-.54,2.41-1.87-2.56-3.73-5.13-5.81-7.53a1.51,1.51,0,0,1,0-1.55,28.86,28.86,0,0,0,2.46-8.1,29.24,29.24,0,0,0-2.23-16.3A28.89,28.89,0,0,0,110.3,344.2a28.44,28.44,0,0,0-11.22-3.62,29.86,29.86,0,0,0-13.39,1.62,27.26,27.26,0,0,0-8.94,5.3,29.24,29.24,0,0,0-9.31,15,29.45,29.45,0,0,0,7.62,27.93,29.49,29.49,0,0,0,31.33,6.71A1.8,1.8,0,0,1,108.05,397.13Z"/><path class="cls-10" d="M61.75,426.6a12.76,12.76,0,0,1-5.9-9.25,60.19,60.19,0,0,1-.22-8.28c0-3.67,0-7.35,0-11a3.88,3.88,0,0,1-.44-1.45c0-3.49-.09-7,.06-10.47,0-.35-.06-.69,0-1-.12-2.61-.1-5.22,0-7.83,0-.34-.15-.68,0-1,0-4.14,0-8.28,0-12.41,0-.55,0-1.09,0-1.64,0-3-.07-6,0-8.95-.07-5.08,0-10.17,0-15.25a17.59,17.59,0,0,1,0-2.18c0-2.85-.11-5.7,0-8.55-.11-4.18,0-8.36-.06-12.54a20.46,20.46,0,0,1,.08-2.07q-.18-11.67,0-23.34A17.74,17.74,0,0,1,56.63,284c2.71-4.81,6.75-7.58,12.33-7.6,16.57-.06,33.13,0,49.7,0a15.34,15.34,0,0,1,4.69.84c1.22.84,2.65,1.3,3.82,2.23a12.34,12.34,0,0,1,4,5.21,8.89,8.89,0,0,1,1.1,4.32,1.46,1.46,0,0,1,0,.59c.14,10.11,0,20.22.06,30.33q0,20.72,0,41.45a13.21,13.21,0,0,1-.07,2.18,30.09,30.09,0,0,0-.09,3.8c0,4,.09,8.06,0,12.08-.16,5.62-.28,11.24-.15,16.86a3.86,3.86,0,0,1-.1.75c-1.34-1.81-2.44-3.77-3.62-5.68,0-.36,0-.73,0-1.09V292.75a12,12,0,0,0-7.65-11.63,10.69,10.69,0,0,0-4-.8q-22.65,0-45.29,0A11.85,11.85,0,0,0,59.76,291.6c0,.44,0,.88,0,1.31q0,54.09,0,108.17a12.12,12.12,0,0,0,4.71,10.18A11.85,11.85,0,0,0,72,413.74h37.53L107,425.49a1.62,1.62,0,0,1-1.37.52c-3.05,0-6.09.08-9.14-.05q-4.16.15-8.31,0c-2.55.1-5.09.1-7.64,0-2.84.09-5.68.11-8.51,0a19.14,19.14,0,0,1-8.52-1.09c-.67-.28-1-.08-1.11.65A1.34,1.34,0,0,1,61.75,426.6Z"/><path class="cls-9" d="M99.75,370.15c-3.47.31-3.78,2.74-3.45,5.43.14,1.11.37,2.2.56,3.31-1.65,1.45-2,3.61-3,5.42a.65.65,0,0,0,.22.95c.42.22.69-.05.89-.38A31.54,31.54,0,0,0,96.36,382c.22-.49.35-1.14,1.11-1.15a18.85,18.85,0,0,1,1,2.73,1.53,1.53,0,0,0,1,2,50.13,50.13,0,0,0,5.12,7.16c.07.69-.45.87-.92,1a23.74,23.74,0,0,1-11.28,1,24.76,24.76,0,0,1-12-5.16,24.4,24.4,0,0,1-8.85-14.48,24.95,24.95,0,0,1,19.75-29.3A23.59,23.59,0,0,1,111,350.59a24.58,24.58,0,0,1,8.19,27.93c-.16.46-.27,1-1,1a68.07,68.07,0,0,0-7.18-5.33,2.2,2.2,0,0,1-.1-1.69c.06-.39,0-.76-.41-.89s-.65.17-.82.53-.22.79-.66.95l-1.78-.85a3.3,3.3,0,0,1-.38-2.3,13.39,13.39,0,0,0-1.6-6.35A3.86,3.86,0,0,0,105,363c-.2-.25-.43-.41-.75-.26a.6.6,0,0,0-.31.74,7.76,7.76,0,0,0,.62,1.38,11.52,11.52,0,0,1,1.1,5.26c0,.47,0,1-.51,1.22l-3.08-.91a2.06,2.06,0,0,1-.43-1.31c-.4-3.62-3.54-4.16-5.85-3.62a3.38,3.38,0,0,0-2.58,2.55,6.35,6.35,0,0,0-.19,3.21c.09.37.2.75.67.71s.51-.45.54-.81c.05-.66,0-1.31.06-2A2.8,2.8,0,0,1,97,366.6a2.9,2.9,0,0,1,3.21,2.19C100.35,369.32,100.48,369.9,99.75,370.15Z"/><path class="cls-11" d="M118.23,379.49a17.28,17.28,0,0,0,1.76-6.13,22.5,22.5,0,0,0-2.43-14.05c-4-7.59-10.27-12.18-18.88-13.26a23.27,23.27,0,0,0-18.25,5.43A23.73,23.73,0,0,0,71.64,368a23.27,23.27,0,0,0,4.82,16.91,24.25,24.25,0,0,0,27.39,8.3,3,3,0,0,0,.73-.46,30.84,30.84,0,0,1,3.47,4.42,42.45,42.45,0,0,1-7.43,2.08,29.31,29.31,0,0,1-17-2.26,28.56,28.56,0,0,1-9.45-6.69,29.5,29.5,0,0,1-7.85-16.55,30,30,0,0,1,14.77-29.92,30.65,30.65,0,0,1,11.74-3.68,28.88,28.88,0,0,1,17.43,3.51,29.21,29.21,0,0,1,11.44,11.21,29.91,29.91,0,0,1,4,16.72,28.66,28.66,0,0,1-2.88,11.1,2.27,2.27,0,0,0-.35,1.13Z"/><path class="cls-9" d="M57,284.26a16.71,16.71,0,0,0-1.37,4.8c-.48.61-1.18.48-1.82.48q-9.15,0-18.32,0a25.32,25.32,0,0,0-3.48.23,5.45,5.45,0,0,0-4.68,5c0,.33,0,.65,0,1q0,34.92,0,69.83a6,6,0,0,0,.62,3,5.34,5.34,0,0,0,4.95,3c5.13,0,10.25,0,15.38,0a11.53,11.53,0,0,1,2.49.21c.66.32,1.08.74.7,1.53a1.17,1.17,0,0,1-.91.28c-6.11-.38-12.22-.06-18.33-.17a6.35,6.35,0,0,1-2-.39,6.91,6.91,0,0,1-4.71-6.55c0-8.55,0-17.11,0-25.66V295.16a7,7,0,0,1,3.92-6.56,8.41,8.41,0,0,1,4.11-.9h19a11.47,11.47,0,0,0,1.31,0,1.15,1.15,0,0,0,1-1.31c0-.73-.61-.72-1.12-.72-2,0-3.93,0-5.9,0-5,0-10-.05-15.06,0a7.05,7.05,0,0,1-7.21-6c-.64-4.23,1.55-7.58,5.44-8.61a10.3,10.3,0,0,1,2.6-.14h68.1c15.53,0,31.07,0,46.6,0a7.35,7.35,0,0,1,6.63,11.19,6.84,6.84,0,0,1-6.21,3.55c-2.15,0-4.3,0-6.44,0-.57,0-1.24-.06-1.22.84a1.1,1.1,0,0,0,1.22,1.22c2.07,0,4.14,0,6.22,0a7.5,7.5,0,0,1,7.23,5.58,9.1,9.1,0,0,1,.18,2.6v67.79c0,.91,0,1.82,0,2.73a6.85,6.85,0,0,1-2.73,5.46c-.86.69-.88.95-.39,1.93,2.64,5.44,5,11,6,17a4.91,4.91,0,0,1,.08,1.62c-.14.83.28,1.13,1,1.15h1.53q35.75,0,71.48,0c.76,0,1.63-.3,2.23.49a8,8,0,0,1-1.07.13h-90.4l0-.36a1.17,1.17,0,0,1,1.13-.28,34,34,0,0,0,8.84-.14c.83-.05,1.66-.09,2.49-.22.66-.1.82-.41.81-1a15,15,0,0,0-.58-3.65,76.74,76.74,0,0,0-5.68-14.68c-.33-.67-.8-1.33-.46-2.16.22-.46.68-.65,1.07-.9A5.78,5.78,0,0,0,154,365.7q0-35.06,0-70.09c0-3.79-2.3-5.9-6.5-6.05-1.89-.06-3.79,0-5.68,0a4.45,4.45,0,0,1-1.62-.16.91.91,0,0,1-.7-.62c-.36-1.42-.71-2.85-1.17-4.24.26-.77.93-.73,1.54-.74,2.91,0,5.82,0,8.73,0a5.47,5.47,0,0,0,4.65-8.18,5.32,5.32,0,0,0-4.63-2.83H33.76a7.13,7.13,0,0,0-3.5.62,5.53,5.53,0,0,0-2.83,6.17,5.43,5.43,0,0,0,5.29,4.23c7.2,0,14.4,0,21.6,0,.55,0,1.1,0,1.64,0S56.77,283.84,57,284.26Z"/><path class="cls-12" d="M74,429l-.16-.16c.23-.54.73-.53,1.19-.54,1.79,0,3.58-.08,5.37,0a16.2,16.2,0,0,1,2.09,0,12.48,12.48,0,0,0,2,.35c.56,0,.9.41,1.24.79,1.61,1.86,3.14,3.79,4.73,5.67,3.34,4,6.57,8,9.9,12l-1.77,6.34a.79.79,0,0,1-.85.66,7.65,7.65,0,0,1-2.57-.24c-1.28-.67-2-1.91-2.83-3-2.55-3.07-5-6.17-7.63-9.2C81.1,437.52,77.76,433.08,74,429Z"/><path class="cls-13" d="M150.35,372.05c1.62,3.45,3.23,6.91,4.59,10.48a36.72,36.72,0,0,1,2.55,10.33c0,.59-.16.78-.71.8-1,0-1.95.15-2.93.22-2.62.23-5.25,0-7.88.09a2.66,2.66,0,0,1-1.28-.09h-1.06v-.22c.48-.63,1.18-.45,1.82-.47,1.5-.06,1.75-.32,1.57-1.75-.58-4.61-.85-9.25-1.51-13.85-.15-1.08-.13-2.17-.38-3.24-.32-1.39.53-2.07,1.58-2.62,1-.26,2.08-.1,3.11-.34C150.2,371.44,150.29,371.73,150.35,372.05Z"/><path class="cls-14" d="M100.34,447.14a1.16,1.16,0,0,1-1-.52q-2.86-3.47-5.74-6.94-4.26-5.13-8.52-10.27a1.17,1.17,0,0,0-1-.38,3.14,3.14,0,0,1-1.39-.15c.23-.54.73-.53,1.19-.54,1.39,0,2.78-.06,4.17,0,1.53-.08,3.06-.08,4.58,0a14.13,14.13,0,0,0,2.24.36c.5,0,.78.34,1.07.67,2.2,2.54,4.2,5.25,6.5,7.71a3.85,3.85,0,0,1,.5,1.07c-.69,2.78-1.58,5.5-2.43,8.24C100.45,446.65,100.4,446.89,100.34,447.14Z"/><path class="cls-15" d="M74,429c1.35-.2,1.64,1.07,2.23,1.76,2.6,3,5,6.19,7.62,9.22,2.36,2.75,4.56,5.63,7,8.35a59.67,59.67,0,0,0,4.15,4.83,1,1,0,0,1,.25.7,19.22,19.22,0,0,1-8.52-3.36c-5.5-3.69-8.63-9.1-10.86-15.13A33.37,33.37,0,0,1,74,429Z"/><path class="cls-16" d="M146.87,372c-1.23.54-1.32,1.41-1.18,2.71.41,3.73,1,7.45,1.21,11.21.12,2.09.42,4.17.72,6.24.14,1-.34,1.37-1.16,1.43s-1.89,0-2.83,0c-.16-1.77-.38-3.54-.47-5.32-.12-2.25-1.18-4.17-2.1-6.14-1.46-3.12-2.76-6.33-4.46-9.34a.41.41,0,0,1,.06-.37,3.31,3.31,0,0,1,2.35-.89c.78,0,1.57-.06,2.36-.06,1.39.12,2.78-.06,4.16,0C146,371.59,146.56,371.51,146.87,372Z"/><path class="cls-17" d="M103,438.17a18.74,18.74,0,0,1-2.91-3.06c-1.55-1.85-3.07-3.74-4.56-5.64a1.22,1.22,0,0,0-1-.45,3.19,3.19,0,0,1-1.5-.15c.21-.48.65-.5,1.08-.53a19.87,19.87,0,0,1,2.44,0c2.63-.12,5.25-.06,7.88,0,.49,0,1,0,1.3.55Z"/><path class="cls-18" d="M136.6,372.67a.54.54,0,0,0,0,.18c-.21,2-.42,4.08-.65,6.12a4.41,4.41,0,0,1-.2.71,7.53,7.53,0,0,1-2.74.43c-.46,0-1,0-1.09-.64,0-5.2,0-10.39,0-15.57,0-.28,0-.54.42-.38a1.57,1.57,0,0,1,.71.79c1.27,2.35,2.3,4.82,3.5,7.21A1.29,1.29,0,0,1,136.6,372.67Z"/><path class="cls-19" d="M132.06,379.66c1.22.23,2.46-.54,3.69,0q-.72,7.74-1.81,15.43c-.16,1.17-.63,1.46-1.89,1.37a1.77,1.77,0,0,1-.24-1.25c0-3.93-.05-7.86,0-11.79A17.74,17.74,0,0,1,132.06,379.66Z"/><path class="cls-10" d="M99.75,370.15c.33-1.95-.36-2.86-2.34-3.08-1.63-.17-2.64.74-2.72,2.5,0,.65,0,1.3,0,2a1,1,0,0,1-.86,1.1,1,1,0,0,1-1.23-.68c-1.31-2.71.71-6.77,3.61-7.07,3.59-.37,6.25,1.24,5.83,5.55Z"/><path class="cls-10" d="M105.65,428.89l-9.18-.1a2.79,2.79,0,0,1,0-3.25l10.54,0c-.13.85-.3,1.7-.38,2.56C106.55,428.71,106.25,429,105.65,428.89Z"/><path class="cls-10" d="M80.51,428.8l-6.72.08h-.24l-1.76-.1a2.79,2.79,0,0,1,0-3.24h8.73A2.91,2.91,0,0,1,80.51,428.8Z"/><path class="cls-10" d="M105.13,371.34a12.41,12.41,0,0,0-1.48-7.24c-.19-.34-.47-.68-.34-1.11a1.31,1.31,0,0,1,1-1c.55-.13.88.22,1.14.65a13.36,13.36,0,0,1,1.94,6.06c.08,1.15,0,2.31-.06,3.47Z"/><path class="cls-10" d="M97.47,380.81c-.66,1.37-1.31,2.75-2,4.12-.34.68-.77,1.33-1.68.86s-.71-1.15-.35-1.88c.65-1.33,1.27-2.68,1.91-4,.29-.64.7-1.11,1.49-1C97.06,379.53,97.27,380.17,97.47,380.81Z"/><path class="cls-20" d="M132.06,379.66q0,8.41,0,16.82l-.18.51a10.94,10.94,0,0,1-.22-3.33q.07-15.14.16-30.27a.19.19,0,0,1,.17.19Q132,371.62,132.06,379.66Z"/><path class="cls-10" d="M109.06,373.06c.07-.38.14-.77.23-1.16a1.05,1.05,0,0,1,1.34-.91,1.1,1.1,0,0,1,.85,1.4c-.1.6-.28,1.18-.43,1.77Z"/><path class="cls-10" d="M99.46,385.55c-.58.08-1.16.19-1.48-.51a1.16,1.16,0,0,1,.46-1.5Z"/><path class="cls-9" d="M235.12,394.11l-4.37,0H159.81c-1.67,0-1.8-.13-1.47-1.73a5.69,5.69,0,0,0-.23-2.36,65.53,65.53,0,0,0-4.76-13.78,29.34,29.34,0,0,0-1.53-3c-.32-.52-.31-.91.27-1.25,2.5-1.46,3.31-3.74,3.31-6.53q0-35,0-70.08a7,7,0,0,0-7.07-7.15c-2.15-.08-4.3,0-6.44,0-.91,0-1.41-.29-1.34-1.24,0-.59-.59-1.23-.19-1.65s1.25-.16,1.89-.17c2.15,0,4.29,0,6.44,0a6.3,6.3,0,0,0,5.86-3.49,6.77,6.77,0,0,0-.18-7.06,6.38,6.38,0,0,0-5.81-3.21H32.78A6.69,6.69,0,0,0,26,277.16c-.4,4,1.71,7.13,5.41,7.9a7,7,0,0,0,1.3.07h21.5c1.5,0,1.5,0,1.22,1.42-.32,1.62-.34,1.64-2,1.64-6.73,0-13.46,0-20.19,0A6.9,6.9,0,0,0,27,291.48a6.65,6.65,0,0,0-1,3.51q0,35.65,0,71.29a6.55,6.55,0,0,0,6.64,6.63c5.28,0,10.55,0,15.83,0,1.05,0,2.09.12,3.14.18s1.24.58,1.55,1.25a1.5,1.5,0,0,0,.86,1.48c.58.35,1.08.82,1.63,1.23v8.08c-.64.48-1.16,0-1.69-.24s-.88-.35-1.21.2a.87.87,0,0,1-.27.14,1,1,0,0,0-1,.95c-.12.92-.86,1.89.15,2.76a1.75,1.75,0,0,1,0,1.4c-.92.82-.33,1.7-.12,2.58.11.45.68,1-.26,1.27H30.57a2.77,2.77,0,0,1-1.18-.08l-.83-.05a1.47,1.47,0,0,0-1.06-.47,14.43,14.43,0,0,1-5.56-1.94,14,14,0,0,1-4-3.35,10.52,10.52,0,0,1-2-3.2,14.17,14.17,0,0,1-1.11-3.6,1.4,1.4,0,0,0-.47-.95l0-.83c.5-4,.22-8,.22-11.93q0-58.64,0-117.25a54.45,54.45,0,0,0-.22-8.66h0a1.13,1.13,0,0,1,.89-.31c.29,0,.59,0,.88,0H248.6c.6,0,1.25-.18,1.77.31a3.72,3.72,0,0,1,.17,1.62V378.11c0,7.15-3.65,12.56-10.19,15.17A12.12,12.12,0,0,1,235.12,394.11Z"/><path class="cls-9" d="M250.37,241.88h-236l0-.64a2.26,2.26,0,0,1,1.18-.1H249.15a2.25,2.25,0,0,1,1.18.1Z"/><path class="cls-9" d="M14.35,241.88a3.15,3.15,0,0,1,.68,2.41q0,66.45,0,132.91a3.48,3.48,0,0,1-.68,2.52,3.53,3.53,0,0,1-.17-1.61q0-67.31,0-134.62A3.39,3.39,0,0,1,14.35,241.88Z"/><path class="cls-21" d="M250.33,241.24H14.38c.33-.35.75-.2,1.13-.2H249.2C249.58,241,250,240.89,250.33,241.24Z"/><path class="cls-8" d="M52.41,384.94a.24.24,0,0,0,.16-.05c1.29-.38,2.15.39,3,1.12v12a28,28,0,0,1-2.52-2.7,3.19,3.19,0,0,0-.68-1.13l-.3-.17a4,4,0,0,1-.87-3.67,3.44,3.44,0,0,0,0-1.53A3.8,3.8,0,0,1,52.41,384.94Z"/><path class="cls-9" d="M14.39,380.55c.77,0,.87.54.95,1.08a13.25,13.25,0,0,0,2,5.1,19.94,19.94,0,0,0,2.47,2.78c1.71,2,4.13,2.52,6.31,3.57a1.6,1.6,0,0,0,1.06.05c.76-.16,1.29.06,1.36.93A14.14,14.14,0,0,1,18,388.87,13.46,13.46,0,0,1,14.39,380.55Z"/><path class="cls-21" d="M52.31,394.07a.55.55,0,0,1,.08.15l-22.26,0a3.72,3.72,0,0,1-.74-.14l19.58,0,2.5,0A.65.65,0,0,1,52.31,394.07Z"/><path class="cls-10" d="M71.79,425.55v3.24c-3.56.26-7,0-10-2.19,0-.29,0-.57.1-.86.37-1.92.38-1.94,2.17-1.21C66.53,425.55,69.16,425.54,71.79,425.55Z"/><path class="cls-21" d="M50.77,372h-18a5.84,5.84,0,0,1-6-5.92V295.18a5.89,5.89,0,0,1,5.27-5.93,31.67,31.67,0,0,1,4-.19H55.62l0,23.58c-.47.5-1,.28-1.54.16-1.34-.33-2.69-.59-4-.95-1.15-.32-1.31-.19-1.35,1a16.52,16.52,0,0,0,1.22,6.59,16.71,16.71,0,0,0,4.8,6.65,5,5,0,0,1,.89,1.2v8.51c-.69.43-1.28,0-1.84-.26-1.28-.6-2.58-1.15-3.85-1.77-.88-.43-1.12-.29-1.22.63a29,29,0,0,0,.18,9.2A12,12,0,0,0,54,351.56a3.56,3.56,0,0,1,1.62,1.7v8.89c-.44.35-.89.18-1.34,0-1.13-.39-2.25-.8-3.37-1.23-.66-.25-1,0-1.16.64a11.38,11.38,0,0,0,.78,9C50.73,371,51.17,371.45,50.77,372Z"/><path class="cls-21" d="M57,284.26H32.88a6,6,0,0,1-1.38-11.92,5.65,5.65,0,0,1,1.3-.09H148.57a6,6,0,0,1,.05,12h-8.84c-.44,0-1-.18-1.21.45-.91.18-1.18-.78-1.84-1a38,38,0,0,0-10.07-4.78c-1-.32-2.08-.79-3.13-1.16a21.3,21.3,0,0,0-6.55-.91c-15.52,0-31,.08-46.57,0C64.44,276.77,59.94,279,57,284.26Z"/><path class="cls-22" d="M132,363.58l-.17-.19q0-35.08,0-70.18c0-1.31,0-2.62,0-3.93,1,.17,1.39.67,1.52,2,.23,2.35.39,4.7.65,7s.63,4.68.91,7c.36,3.1.66,6.2,1,9.3.55,4.43,1.07,8.87,1.47,13.31.38,4.19,1.11,8.34,1.44,12.54.22,2.82.7,5.62.95,8.43.21,2.34.41,4.69.69,7q.87,7,1.77,14c.17,1.28,0,1.59-1.08,2a11.08,11.08,0,0,0-4.6.64q-2-4.07-4-8.12C132.45,364.21,132.37,363.79,132,363.58Z"/><path class="cls-23" d="M141.2,372a1.47,1.47,0,0,0,.64-1.6c-.41-3.09-.86-6.17-1.22-9.26-.3-2.52-.47-5.05-.74-7.57-.29-2.7-.62-5.39-.95-8.09s-.57-5.1-.81-7.66c-.21-2.35-.61-4.67-.89-7s-.55-5-.83-7.44c-.34-3.13-.68-6.26-1-9.39-.59-5.14-1.23-10.28-1.8-15.43-.27-2.41-.45-4.83-.67-7.24a2.62,2.62,0,0,0-1-2.06c0-.15,0-.3,0-.45a1.1,1.1,0,0,1,1-.39c1.94.27,3.9.26,5.84.53a3.61,3.61,0,0,1,1.59.62,6.65,6.65,0,0,1,.55,3.07c.32,5.95.41,11.92.2,17.87s.05,11.71-.22,17.55c-.28,6.1-.16,12.21-.12,18.31a42.2,42.2,0,0,0,.56,8.24,6.8,6.8,0,0,0,1.06,2.59,128,128,0,0,1,7.43,12.57c.28.55.77,1.12.26,1.81-.94.72-2,.34-3.08.44Z"/><path class="cls-8" d="M55.59,353.26c-5.41-3-7.65-7.71-7.66-13.7a36.79,36.79,0,0,1,.33-5.65c.19-1.29.2-1.29,1.37-.76l6,2.69Z"/><path class="cls-24" d="M93.64,421.84h-9c-1.48,0-2.35-.75-2.33-2a2,2,0,0,1,2.27-1.95q9.1,0,18.22,0c1.44,0,2.38.82,2.37,2s-.93,1.92-2.42,1.93Z"/><path class="cls-8" d="M55.59,327.33a16.59,16.59,0,0,1-7.18-11.47A13.47,13.47,0,0,1,48.3,312c.1-.85.4-1,1.16-.77,2,.52,4.09,1,6.13,1.46Z"/><path class="cls-8" d="M50.77,372a12.3,12.3,0,0,1-2.1-7.08,17.51,17.51,0,0,1,.74-4c.19-.67.49-.85,1.18-.58,1.65.64,3.33,1.22,5,1.82,0,4.52,0,9.05,0,13.58,0,.24.05.51-.2.69a3.07,3.07,0,0,1-2.62-2c-.42-.43-.83-.87-1.25-1.31Z"/><path class="cls-25" d="M140.08,289.72c-2.72-.58-5.51-.5-8.25-.89a14.49,14.49,0,0,0-1.09-4.13,1.53,1.53,0,0,1,1.58-.9c1.05,0,2.1,0,3.15,0a4.09,4.09,0,0,0,1.57-.36,6.81,6.81,0,0,1,1.53,1.3c1.15,1,.89,2.43,1.29,3.66.08.23.14.47.21.71A.4.4,0,0,1,140.08,289.72Z"/><path class="cls-26" d="M137,283.41c-.13.66-.59.84-1.19.84-.9,0-1.8,0-2.7,0a5.37,5.37,0,0,0-2.41.45,14.24,14.24,0,0,0-7.21-7A31.87,31.87,0,0,1,137,283.41Z"/><path class="cls-10" d="M96.45,425.54c0,1.08,0,2.17,0,3.25l-3.52.08-4.78-.07a2.84,2.84,0,0,1,0-3.26Z"/><path class="cls-10" d="M88.15,425.54c0,1.09,0,2.17,0,3.26l-5.47.08-2.19-.08c0-1.08,0-2.17,0-3.26Z"/><path class="cls-9" d="M55.59,386c-1.15,0-2-.85-3-1.12.15-.94.81-.64,1.33-.48a17.94,17.94,0,0,1,1.69.73Z"/><path class="cls-9" d="M52.8,374.41l2.62,2c.08.21.25.39.17.64A2.93,2.93,0,0,1,52.8,374.41Z"/><path class="cls-10" d="M95.22,360.65c.6,0,.89,0,1.18,0a1,1,0,0,1,.38,1.93,2.2,2.2,0,0,1-.93.26c-3.8.09-6.57,3.06-5.59,7.76.54,2.58.93,5.15.06,7.73a8.64,8.64,0,0,1-3.17,4.44c-.61.44-1.16.47-1.61-.14a1,1,0,0,1,.2-1.54c3-2.39,3.27-5.55,2.51-9a12.88,12.88,0,0,1-.38-4.63A7.81,7.81,0,0,1,95.22,360.65Z"/><path class="cls-10" d="M97.21,356.74a7.7,7.7,0,0,1,5.24,2.18c.51.5.82,1.07.29,1.71s-1.18.48-1.73,0c-2.49-2.09-5.29-2-8.13-1.06A10.21,10.21,0,0,0,86.74,365a1.87,1.87,0,0,1-.89,1.06,1,1,0,0,1-1.11-.22,1.24,1.24,0,0,1-.19-1.51,12.15,12.15,0,0,1,2.6-3.74C89.54,358.12,92.86,356.75,97.21,356.74Z"/><path class="cls-10" d="M96.91,353.89c0,.9-.56,1.13-1.32,1.14a13.51,13.51,0,0,0-7.75,2.49,15.42,15.42,0,0,0-5,6.2c-.34.73-.82,1.17-1.6.85a1.1,1.1,0,0,1-.55-1.64c2.65-5.55,7.9-10.19,14.79-10.11C96.24,352.83,96.86,353,96.91,353.89Z"/><path class="cls-10" d="M112,367.44c0,.66,0,1.43-1,1.53-.82.08-1.17-.38-1.23-1.18a13.4,13.4,0,0,0-1.7-5.91,12.72,12.72,0,0,0-5.37-5.11,8,8,0,0,1-1-.53,1.06,1.06,0,0,1-.35-1.53,1,1,0,0,1,1.41-.4A15.11,15.11,0,0,1,112,367.44Z"/><path class="cls-10" d="M86.41,373.61a10.61,10.61,0,0,1-1,5.21,4,4,0,0,1-1.29,1.45,1,1,0,0,1-1.29-.13,1,1,0,0,1-.2-1.37c2.12-2.24,1.5-4.91,1.26-7.53-.06-.68-.26-1.35-.35-2s0-1.3.78-1.45,1.22.31,1.39,1A24.8,24.8,0,0,1,86.41,373.61Z"/><path class="cls-10" d="M94.52,376.07a12.84,12.84,0,0,1-3.31,8c-.52.58-1.18,1-1.87.32s-.38-1.24.16-1.82a10.83,10.83,0,0,0,2.81-6.81,3.84,3.84,0,0,1,.07-.76c.16-.61.49-1.07,1.21-1s1,.56,1,1.2A6.27,6.27,0,0,1,94.52,376.07Z"/><path class="cls-10" d="M82.47,367.86a13.74,13.74,0,0,0,.19,5.89A1,1,0,0,1,82,375a1,1,0,0,1-1.42-.66,13.86,13.86,0,0,1-.19-7.09c.11-.62.69-.82,1.29-.7S82.49,367.3,82.47,367.86Z"/><path class="cls-21" d="M140.08,289.72c0-.21,0-.43,0-.64a87.18,87.18,0,0,1,9.14.18,5.88,5.88,0,0,1,5.3,5.79c0,2.61,0,5.23,0,7.85q0,31.19,0,62.38c0,3-1.12,5.1-3.8,6.4a1.69,1.69,0,0,0-.39.37l-.4-.45a94.7,94.7,0,0,0-5.72-10.4,21.92,21.92,0,0,0-1.65-2.56c-1.8-2.18-2.14-4.75-2.27-7.44-.32-6.8-.3-13.6-.13-20.39.14-5.89,0-11.78.2-17.67.06-2,.13-4.07.15-6.1C140.59,301.26,140.45,295.49,140.08,289.72Z"/><path class="cls-9" d="M144.69,393.88h9.16a1.2,1.2,0,0,1-.82.21h-7.51A1.22,1.22,0,0,1,144.69,393.88Z"/><path class="cls-9" d="M90.66,264.82H33A6.61,6.61,0,0,1,26.59,261a6.89,6.89,0,0,1,.68-7.34c1.43-2,3.55-2.66,5.89-2.82.36,0,.72,0,1.09,0h99.86c4.58,0,9.16-.07,13.74,0a7.42,7.42,0,0,1,6.27,2.92,7,7,0,0,1-3,10.51,7.13,7.13,0,0,1-2.75.53Z"/><path class="cls-9" d="M52.41,384.94a14.82,14.82,0,0,0-1.17,3.91c-.14,0-.36,0-.4-.12-.54-1.06.13-2,.3-3C51.25,385.08,51.81,384.91,52.41,384.94Z"/><path class="cls-9" d="M52.31,394.07h-.84a12.91,12.91,0,0,1-.82-2.58c-.06-.51,0-1,.57-1.1A18,18,0,0,0,52.31,394.07Z"/><path class="cls-21" d="M90.67,264H32.83a6.05,6.05,0,0,1-4.13-10.5,5.56,5.56,0,0,1,3.85-1.53q58,0,116,0a5.85,5.85,0,0,1,5.94,5.94,6,6,0,0,1-6,6.07Z"/></g><path class="cls-27" d="M255.67,243c7,3.87,14.83,4.9,22.82,5.79-16.49,15.94-44.5,13.74-59.3-4.5-3.64-4.48-7.37-8.94-10.07-14.08s-5-10.22-7.29-15.58c3.95,5.17,9.37,5.87,15.16,5.46a64.85,64.85,0,0,0,13.92-2.54A40.76,40.76,0,0,1,279.49,239c1.62,3.38-.81,3.16-2.48,3.36-7,.87-14-.52-20.94-1.12C254.77,241.57,254.3,242.07,255.67,243Z"/><path class="cls-28" d="M293,454.33c8.51,4.68,17.93,5.93,27.6,7-20,19.29-53.83,16.62-71.72-5.43-4.41-5.43-8.92-10.82-12.19-17s-6.08-12.36-8.82-18.85c4.78,6.25,11.34,7.11,18.34,6.6a78,78,0,0,0,16.84-3.07,49.31,49.31,0,0,1,58.76,26c2,4.08-1,3.81-3,4.06-8.5,1-16.89-.63-25.32-1.35C291.91,452.62,291.34,453.22,293,454.33Z"/><path class="cls-29" d="M105.8,218.33c6.44,4.79,14,6.88,21.81,8.84-18.51,13.55-46,7.55-58.13-12.53-3-4.94-6.08-9.87-8.06-15.33s-3.59-10.81-5.09-16.43c3.21,5.66,8.48,7.1,14.27,7.47a63.79,63.79,0,0,0,14.14-.61,40.75,40.75,0,0,1,45.19,27.91c1.15,3.56-1.23,3-2.91,3-7.09-.1-13.77-2.42-20.59-4C105.1,216.8,104.57,217.23,105.8,218.33Z"/><path class="cls-30" d="M126.86,134.22c2.88,7.49,8.17,13.31,13.71,19.13-22.89,1.56-42.88-18.19-42.43-41.67.11-5.77.13-11.59,1.38-17.26s2.75-11,4.48-16.61c-.32,6.5,3.37,10.54,8.07,14a64.07,64.07,0,0,0,12.28,7,40.76,40.76,0,0,1,23.27,47.75c-.94,3.62-2.65,1.89-4.07,1-5.93-3.88-10.34-9.41-15.28-14.36C127.09,132.55,126.41,132.63,126.86,134.22Z"/><path class="cls-31" d="M46.69,61.53c2.36,7.2,7.07,12.92,12,18.66-21.63.4-39.53-19.13-38-41.22.38-5.43.67-10.91,2.11-16.19s3.1-10.28,5-15.43c-.6,6.1,2.68,10.07,7,13.51A60.79,60.79,0,0,0,46,28.06,38.43,38.43,0,0,1,65.66,74.11c-1,3.37-2.58,1.66-3.87.72-5.41-3.92-9.3-9.34-13.72-14.23C47,60,46.34,60,46.69,61.53Z"/><g id="Shield_Icon-4C-2" data-name="Shield_Icon-4C"><path class="cls-10" d="M176.1,338.79a1.38,1.38,0,0,1-1.38-1.38v-35A1.38,1.38,0,0,1,176.1,301l20-7.89,0-24.18a57,57,0,0,1-41.45,17.27S151,348.38,196,372.56V338.79Z"/><path class="cls-5" d="M196.05,293.11l10.1,3.92,12-13.57c-7.37-2.77-14.72-7.54-22.15-14.52l0,24.18Z"/><path class="cls-5" d="M237.48,286.21a43.31,43.31,0,0,1-7.89,0L217.7,303.63v33.78a1.38,1.38,0,0,1-1.38,1.38H196v33.77C241.1,348.38,237.48,286.21,237.48,286.21Z"/><polygon class="cls-5" points="194.2 316.88 180.55 305.81 193.75 331.29 234.61 271.29 194.2 316.88"/></g></g></g></svg>