<svg xmlns="http://www.w3.org/2000/svg" xmlns:xlink="http://www.w3.org/1999/xlink" viewBox="0 0 1600 500"><defs><style>.cls-1{fill:url(#未命名的渐变_80);}.cls-2{fill:url(#未命名的渐变_49);}.cls-3{fill:#6f9f40;}.cls-4{fill:url(#未命名的渐变_49-2);}.cls-5{fill:none;}.cls-6{fill:url(#未命名的渐变_49-3);}.cls-7{fill:url(#未命名的渐变_49-4);}.cls-8{fill:url(#未命名的渐变_49-5);}.cls-9{fill:url(#未命名的渐变_49-6);}.cls-10{fill:url(#未命名的渐变_49-7);}.cls-11{fill:url(#未命名的渐变_49-8);}.cls-12{fill:url(#未命名的渐变_49-9);}</style><linearGradient id="未命名的渐变_80" y1="250" x2="1600" y2="250" gradientUnits="userSpaceOnUse"><stop offset="0" stop-color="#e9f5ef"/><stop offset="0.05" stop-color="#d2dfcc"/><stop offset="0.08" stop-color="#ccdbc5"/><stop offset="0.3" stop-color="#a8c295"/><stop offset="0.51" stop-color="#8baf70"/><stop offset="0.7" stop-color="#76a155"/><stop offset="0.87" stop-color="#699845"/><stop offset="1" stop-color="#65953f"/><stop offset="1" stop-color="#8ccfb5"/></linearGradient><linearGradient id="未命名的渐变_49" x1="1207.71" y1="250" x2="1392.57" y2="250" gradientUnits="userSpaceOnUse"><stop offset="0.08" stop-color="#e9f5ef"/><stop offset="0.2" stop-color="#e0efde"/><stop offset="0.44" stop-color="#c9deb3"/><stop offset="0.6" stop-color="#b8d293"/><stop offset="0.99" stop-color="#9cc25e"/></linearGradient><linearGradient id="未命名的渐变_49-2" x1="1323.59" y1="163.41" x2="1564.17" y2="163.41" xlink:href="#未命名的渐变_49"/><linearGradient id="未命名的渐变_49-3" x1="214.21" y1="447.09" x2="267.5" y2="447.09" xlink:href="#未命名的渐变_49"/><linearGradient id="未命名的渐变_49-4" x1="-567.31" y1="1246.22" x2="-514.21" y2="1246.22" gradientTransform="translate(836.84 -841.3) rotate(5.92)" xlink:href="#未命名的渐变_49"/><linearGradient id="未命名的渐变_49-5" x1="-691.68" y1="1205.11" x2="-638.59" y2="1205.11" gradientTransform="translate(716.15 -916.3)" xlink:href="#未命名的渐变_49"/><linearGradient id="未命名的渐变_49-6" x1="-645" y1="1123.06" x2="-590.58" y2="1123.06" gradientTransform="translate(605.82 -970.23) rotate(-5.5)" xlink:href="#未命名的渐变_49"/><linearGradient id="未命名的渐变_49-7" x1="-608.74" y1="1049.19" x2="-554.32" y2="1049.19" gradientTransform="translate(605.82 -970.23) rotate(-5.5)" xlink:href="#未命名的渐变_49"/><linearGradient id="未命名的渐变_49-8" x1="-675.55" y1="957.52" x2="-628.92" y2="957.52" gradientTransform="translate(700.39 -912.01)" xlink:href="#未命名的渐变_49"/><linearGradient id="未命名的渐变_49-9" x1="-664.26" y1="1333.1" x2="-583.48" y2="1333.1" gradientTransform="translate(617.7 -946.61) rotate(-3.41)" xlink:href="#未命名的渐变_49"/></defs><g id="Layer_2" data-name="Layer 2"><g id="Layer_3" data-name="Layer 3"><rect id="Rectangle_971" data-name="Rectangle 971" class="cls-1" width="1600" height="500"/><g id="Shield_Icon-4C"><path class="cls-2" d="M1303.76,330.3a6.15,6.15,0,0,1-6.15-6.14V168.31a6.15,6.15,0,0,1,6.15-6.15L1392.57,127l-.1-107.6A253.62,253.62,0,0,1,1208,96.29S1191.88,373,1392.47,480.57V330.3Z"/><path class="cls-3" d="M1392.58,127l44.92,17.43L1491,84.06c-32.77-12.31-65.49-33.55-98.56-64.63l.1,107.6Z"/><path class="cls-3" d="M1576.92,96.29a193,193,0,0,1-35.08-.19l-52.92,77.71V324.16a6.15,6.15,0,0,1-6.15,6.14h-90.3V480.57C1593.06,373,1576.92,96.29,1576.92,96.29Z"/><polygon class="cls-4" points="1384.34 232.8 1323.59 183.52 1382.31 296.92 1564.17 29.9 1384.34 232.8"/></g><rect class="cls-5" width="1600" height="500"/></g><g id="Layer_6" data-name="Layer 6"><path class="cls-6" d="M244.6,466.13c3.2,7.67,8.84,13.52,14.73,19.39-23.62,2.28-44.86-17.55-45.09-41.84-.05-6-.2-12,.93-17.89s2.51-11.51,4.14-17.31c-.14,6.73,3.79,10.8,8.75,14.19a67,67,0,0,0,12.9,6.92,42.15,42.15,0,0,1,25.47,48.68c-.86,3.78-2.69,2-4.18,1.12C256,475.56,251.29,470,246,465,244.79,464.41,244.09,464.51,244.6,466.13Z"/><path class="cls-7" d="M173.53,359.83c3,7.16,8.25,12.62,13.75,18.09-22,2.13-41.88-16.38-42.09-39.05-.05-5.58-.19-11.19.87-16.7s2.34-10.74,3.86-16.15c-.12,6.28,3.54,10.07,8.17,13.24a62,62,0,0,0,12,6.46,39.33,39.33,0,0,1,23.77,45.44c-.8,3.53-2.51,1.9-3.89,1-5.84-3.58-10.24-8.8-15.15-13.44C173.7,358.22,173.05,358.31,173.53,359.83Z"/><path class="cls-8" d="M55.83,305.7c3.71,6.81,9.51,11.71,15.55,16.58-21.71,4.39-43.35-12-45.89-34.5-.63-5.55-1.35-11.11-.87-16.7s1.23-10.93,2.18-16.47c.52,6.26,4.56,9.66,9.49,12.33a62.29,62.29,0,0,0,12.65,5.18,39.37,39.37,0,0,1,28.33,42.75c-.44,3.59-2.3,2.15-3.77,1.45-6.17-3-11.09-7.7-16.45-11.81C55.84,304.08,55.2,304.24,55.83,305.7Z"/><path class="cls-9" d="M105,223.61c4.45,6.59,10.85,11,17.49,15.39-21.72,6.62-45.4-8-50.21-30.7-1.18-5.59-2.46-11.2-2.52-17s.18-11.27.61-17c1.14,6.34,5.6,9.4,10.89,11.64A63.07,63.07,0,0,0,94.7,190a40.33,40.33,0,0,1,33.1,40.83c-.09,3.71-2.14,2.42-3.7,1.85-6.59-2.41-12.07-6.76-17.94-10.43C104.88,222,104.24,222.19,105,223.61Z"/><path class="cls-10" d="M134.05,146.61c4.45,6.59,10.85,11,17.49,15.39-21.72,6.62-45.4-8-50.21-30.7-1.18-5.59-2.46-11.2-2.52-17s.17-11.27.6-17c1.15,6.34,5.61,9.4,10.9,11.64a62.9,62.9,0,0,0,13.41,4,40.34,40.34,0,0,1,33.1,40.83c-.09,3.71-2.14,2.42-3.7,1.85-6.59-2.41-12.07-6.76-18-10.43C133.9,145,133.26,145.19,134.05,146.61Z"/><path class="cls-11" d="M52.38,60.35c3.26,6,8.36,10.28,13.66,14.56C47,78.77,28,64.39,25.73,44.6c-.55-4.87-1.18-9.75-.76-14.66s1.08-9.6,1.92-14.46c.46,5.5,4,8.48,8.33,10.82a54.66,54.66,0,0,0,11.11,4.56A34.55,34.55,0,0,1,71.21,68.4c-.38,3.16-2,1.89-3.31,1.27-5.42-2.59-9.74-6.76-14.44-10.37C52.39,58.93,51.83,59.07,52.38,60.35Z"/><path class="cls-12" d="M83,446.43c6.25,10,15.5,16.91,25.11,23.78-32.58,8.63-66.91-14.28-72.82-48.27-1.45-8.36-3-16.75-2.82-25.28.21-8.36.87-16.71,1.82-25.21,1.36,9.47,7.8,14.26,15.53,17.87a94.78,94.78,0,0,0,19.67,6.73,59.88,59.88,0,0,1,46.9,62.37c-.34,5.49-3.3,3.46-5.6,2.53-9.64-3.93-17.54-10.68-26-16.45C82.86,444,81.9,444.27,83,446.43Z"/></g></g></svg>