<svg xmlns="http://www.w3.org/2000/svg" width="4.384" height="4.389" viewBox="0 0 4.384 4.389">
  <g id="Group_174" data-name="Group 174" transform="translate(-230.237 -137.086)">
    <path id="Path_62" data-name="Path 62" d="M230.237,241.178A.244.244,0,0,0,230.3,241a.262.262,0,0,1,.267-.264c.173-.019.18-.036.081-.174a.38.38,0,0,1-.015-.386.215.215,0,0,1,.221-.138.222.222,0,0,1,.23.146.351.351,0,0,1-.024.382,1.151,1.151,0,0,0-.081.122.6.6,0,0,0,.254.069.174.174,0,0,1,.155.146c.088.341.091.34-.23.465-.026.01-.06.006-.073.039h-.468c-.128-.047-.281-.026-.38-.146Z" transform="translate(0 -99.937)" fill="#fff"/>
    <path id="Path_63" data-name="Path 63" d="M339.058,241.388a1.641,1.641,0,0,0-.244-.121c-.1-.032-.132-.085-.1-.182a.248.248,0,0,0,.017-.071.281.281,0,0,1,.311-.3.2.2,0,0,0,.121-.04c-.155-.287-.164-.5-.027-.606a.268.268,0,0,1,.325.01c.13.116.117.324-.04.592a.426.426,0,0,0,.232.063.19.19,0,0,1,.18.175.378.378,0,0,0,.07.216v.088c-.041.114-.149.12-.242.147a1.241,1.241,0,0,0-.167.028Z" transform="translate(-105.284 -99.913)" fill="#fff"/>
    <path id="Path_64" data-name="Path 64" d="M285.264,241.419l-.269-.136c-.025-.013-.06-.02-.074-.041-.055-.083.1-.445.194-.467s.177-.039.283-.062c-.109-.147-.206-.278-.139-.463a.251.251,0,0,1,.237-.2.245.245,0,0,1,.253.178.436.436,0,0,1-.125.469.522.522,0,0,0,.251.07.184.184,0,0,1,.166.153c.087.335.088.339-.236.461-.026.01-.06,0-.073.038Z" transform="translate(-53.069 -99.944)" fill="#fff"/>
    <path id="Path_65" data-name="Path 65" d="M291.529,137.086c.263.1.275.342.314.562.02.112-.251.45-.365.484a.205.205,0,0,1-.1,0,.765.765,0,0,1-.375-.49c.028-.219.053-.448.292-.561Z" transform="translate(-58.983)" fill="#fff"/>
    <path id="Path_66" data-name="Path 66" d="M275.478,172.693l.095.341.033.006c.058-.191.126-.379.17-.573.014-.062.022-.085.08-.074.1.018.191.038.286.058a.135.135,0,0,1,.1.111q.059.248.115.5a.082.082,0,0,1-.043.108,1.775,1.775,0,0,1-1.211.2c-.18-.037-.323-.156-.5-.2-.052-.013-.044-.052-.035-.093.039-.166.075-.332.113-.5a.155.155,0,0,1,.14-.128c.119-.02.236-.047.337-.068a2.571,2.571,0,0,0,.158.661l.038,0,.1-.346Z" transform="translate(-43.027 -34.254)" fill="#fff"/>
    <path id="Path_67" data-name="Path 67" d="M252.9,209.847c.013.189.131.176.252.174.3,0,.6,0,.906,0,.082,0,.143.013.168.1a.2.2,0,0,0,.135.138.185.185,0,0,1,.1.266.194.194,0,0,1-.267.069.186.186,0,0,1-.047-.279.119.119,0,0,0,.019-.153.136.136,0,0,0-.142-.076c-.321,0-.643,0-.964,0-.04,0-.095-.019-.11.042a.127.127,0,0,0,.055.15.18.18,0,0,1,.034.3.174.174,0,0,1-.261,0,.183.183,0,0,1,.009-.282c.061-.046.105-.091.078-.166s-.1-.042-.153-.043c-.3,0-.594,0-.891,0-.179,0-.229.084-.143.239a.2.2,0,0,1-.062.269.192.192,0,0,1-.265-.073.182.182,0,0,1,.1-.265c.048-.023.1-.033.117-.1.029-.123.113-.145.229-.142.287.008.575,0,.862,0C252.771,210.022,252.892,210.041,252.9,209.847Z" transform="translate(-20.467 -70.627)" fill="#fff"/>
    <path id="Path_68" data-name="Path 68" d="M302.607,174.2a.118.118,0,0,1-.085-.091c-.017-.055.039-.061.07-.066s.086.008.087.053A.139.139,0,0,1,302.607,174.2Z" transform="translate(-70.162 -35.874)" fill="#fff"/>
    <path id="Path_69" data-name="Path 69" d="M254.216,226.053c-.08-.01-.124-.047-.123-.123a.1.1,0,0,1,.106-.112.109.109,0,0,1,.124.111C254.328,226,254.275,226.037,254.216,226.053Z" transform="translate(-23.157 -86.129)" fill="#709f40"/>
    <path id="Path_70" data-name="Path 70" d="M301.441,226.15c-.008.083-.051.12-.126.115a.106.106,0,0,1-.109-.112.118.118,0,0,1,.235,0Z" transform="translate(-68.887 -86.34)" fill="#709f40"/>
    <path id="Path_71" data-name="Path 71" d="M348.925,225.924a.116.116,0,0,1-.119.12.116.116,0,0,1-.008-.231C348.874,225.809,348.912,225.854,348.925,225.924Z" transform="translate(-114.979 -86.124)" fill="#709f40"/>
  </g>
</svg>
